<?xml version="1.0" encoding="utf-8" ?>
<svg baseProfile="full" height="84.67091391292243" version="1.1" width="254.20405063176574" xmlns="http://www.w3.org/2000/svg" xmlns:ev="http://www.w3.org/2001/xml-events" xmlns:xlink="http://www.w3.org/1999/xlink"><defs /><rect fill="white" height="84.67091391292243" width="254.20405063176574" x="0" y="0" /><path d="M25,55.686654850167855 m0.332843363228717,-0.6449633836609677 l0.4553676843285228,-0.8787508606408405 0.6229094862344544,-1.2067291736751578 l0.5722954869792874,-1.396423459133477 0.5781948566874464,-1.5187395810102666 l0.5645784140859915,-1.6378725767862001 0.5372537969369641,-1.5715092420490453 l0.4410102365939734,-1.3952244519012447 0.3603653311298238,-1.1231895684981843 l0.2693512140190209,-0.7602686286486355 0.18677604210000415,-0.3765968382104377 l0.046662896855974155,-0.003609277348834561 0.0554019735077451,0.23034164290801845 l0.29228171695109256,0.8307585717761248 0.25436192744281044,1.410756826466647 l0.1983144877326929,1.759081482944865 0.18319277473489143,1.794247508088405 l0.25017654877925427,1.6644099950122742 0.2637019754699593,1.4164167643291847 m-3.9622695445503533,-2.045875072482091 l0.051648683701409986,-0.13411423539633588 0.05199330313561004,0.015790741808712105 l0.2679795622641949,0.002885744706475702 0.6340084670433986,0.03544456515866902 l1.0776038170208682,0.04250141251305121 1.1823011635890148,-0.10174316173723129 l1.1960878372040882,-0.2551214398325178 1.0470095873554808,-0.3523771764635228 m2.0455634594037297,-3.5970518589279976 m-0.048444390397028844,0.7792376876195096 l-0.13453169183508576,0.8228303193929017 0.12127104392754542,1.278248429280953 l-0.009571593157518153,1.1520828008305597 0.20703420044742007,1.0458822249051427 l0.12211790684616478,0.7461003661104242 0.11575587102179494,0.5175502301014032 l0.11835905157955173,0.21593360596743352 0.08179038767607584,0.024063702704879092 l0.03980564697085523,-0.09322839965687238 -0.003990909041218182,-0.2824244200949162 l0.06291389451621442,-0.5767452716376474 0.14818130415046923,-0.8985039592992308 l0.3141384421078453,-1.0055757760785053 0.48029035327389574,-0.9947577118779032 l0.5859855412757593,-0.9420461059502676 0.6696913242382155,-0.772024810222007 l0.7079975009107675,-0.5347241161840715 0.7007468344947642,-0.23348695053428103 l0.6534694432679555,0.06957598775373204 0.602485895022927,0.3771890104054018 l0.5756346583369502,0.6890439390502963 0.5469847917583187,0.9208381176359911 l0.5050352810935849,1.0163170100566357 0.48044657703225957,0.938913047140779 l0.44202291956124,0.7343535424851055 0.41475623837690023,0.46862190960312206 l0.4193207322884901,0.2081931530738549 m1.2927961350460027,-4.866282463033917 l-0.026414049720386384,0.004241302617090177 -0.023007912709902337,0.0034676938403628873 l0.19533388325350595,0.21014408765691378 0.38799589883354463,0.5607186556527545 l0.4844176173582423,0.8529040218910512 0.5257233382855634,0.8438330887525293 l0.5745882392250562,0.6811088919145021 0.5275144577762847,0.3999506535114921 l0.5696277618803978,0.1878333984484122 0.6034595369993927,-0.027003884318373136 l0.5719657539508384,-0.27098798741155483 0.5637327433175142,-0.5787872673051722 l0.5792248249170857,-0.850096762061887 0.567994892691559,-1.0280109643834583 l0.47322219626491197,-0.930397033702736 0.37453955406289036,-0.6079896091146972 l0.11678731439963606,-0.1365886330999503 0.05396260323048644,0.0787474065842641 l0.10440391304938514,0.2998515666677804 -0.03742606924554365,0.67208027843778 l-0.08212743704145681,1.1202913524793041 -0.19629061243917745,1.3464677333765773 l-0.20844371618341295,1.6517266034972793 -0.24365620318132192,1.8069819211514837 l-0.24443195769086054,1.8550817966619293 -0.1854124069141295,1.7924129962189288 l-0.10413996876595626,1.6915433406700604 -0.1860064716604036,1.3470840452639634 m22.316268920956553,-16.462278366048373 l0.07470446818282252,-0.4247965215263059 -0.24274371582980794,-0.8121370671538473 l-0.17016898103238293,-0.6510409712937926 -0.21202017378221022,-0.8186665773799745 l-0.37751564393766307,-0.8746589422325074 -0.5471270085086686,-0.7997767924169075 l-0.6303514838077271,-0.6077095269748004 -0.6933377383201623,-0.42197018873091174 l-0.6831661462734212,-0.22161151466093815 -0.6573041082415375,-0.06224629289549943 l-0.5776798130250481,0.0688138380468462 -0.5385830405013766,0.224880948498058 l-0.502634942455332,0.40839216103494247 -0.39108681698802933,0.5943967700938421 l-0.26883372656053256,0.7908853887817141 -0.18579374262909326,0.9726533890947737 l0.00985512866202811,1.1424131393391062 0.23684191705221722,1.3012620210225092 l0.4224127233227492,1.4197551012707323 0.5615899563170892,1.4423587321737505 l0.6599506139652674,1.2855350972337896 0.7078686951810641,1.1037989854954282 l0.6862033605993938,0.8764407634958721 0.6242750286189501,0.6610496044226332 l0.5317993758576146,0.43522086751486366 0.3439588546302682,0.20126158004162417 l0.18734993040714198,0.08277893058987934 -0.06530064347993945,-0.2673617898908548 m-5.770637989007672,-4.316523552018536 l0.07068437322854706,-0.0023599565764570304 0.13163132975122926,-0.15185216062484322 l0.4978415070423651,-0.2738538085133193 0.8050818442764093,-0.3356493412883276 l0.983003497214208,-0.41762360923036496 0.9469411970614975,-0.530643522604531 l0.8631559611358243,-0.5739780664429289 0.794601619108717,-0.5819783806484842 m3.852708578267535,0.2007585169211922 m1.297542333657905,-0.481269300029559 l0.7058702110579209,-0.4555734395372423 0.8149592875846806,-0.4653009473801483 l0.7912536860532015,-0.5538546441801697 0.7471338510902711,-0.5100160241335349 l0.5798713566901613,-0.4780822695642076 0.40181723216462484,-0.3932351470052731 l0.20713126660644215,-0.2918312251878852 -0.017798867167869114,-0.23688629268221192 l-0.21731121846932883,-0.2034007013845263 -0.429269015777136,-0.15423651031590963 l-0.6337909103445922,-0.07196637983868676 -0.7618127465812914,0.05646355432772003 l-0.8325070144239833,0.20503962038644544 -0.8109673858331655,0.33946108808219905 l-0.7170481683380276,0.4565064608880051 -0.5256987809385067,0.5654376745438239 l-0.3266365828597356,0.7095779777031773 -0.1126420647079595,0.8347484470370748 l0.10735214495724903,1.0622370243795254 0.30513513090225136,1.1693941355057025 l0.492005378200314,1.0884096623321322 0.7626956106275767,0.952427745081022 l1.050785660904574,0.7403029203220992 1.3037980793897372,0.4760857818752743 l1.430425047665038,0.115832611753441 1.466547012264935,-0.2115448562849389 l1.4028847218148988,-0.45713445558086413 1.3082157373048713,-0.5966686009955882 l1.1463675498890722,-0.7421775461299654 0.9682734012316868,-0.8120164872011536 l0.701986372453486,-0.8922330737109287 m-0.4511992336219757,-0.434400677595168 l0.08609449859390071,-0.06668449952644193 0.4132882059214021,-0.22928899538047517 l0.6027457712832328,-0.47015136463085794 0.669595003137994,-0.677450299256825 l0.696612358036961,-0.8524571656408091 0.5774007440581952,-0.8514668941236145 l0.28269889942738546,-0.9141452908060806 0.07108953589844733,-0.7745381593622915 l-0.08097527899816052,-0.6377185582781798 -0.24045579137616652,-0.5126531125659863 l-0.3823998569266809,-0.3813565670772118 -0.5086433290684936,-0.2182517348204619 l-0.6354742051150272,-0.02859991978611693 -0.7213566900425471,0.22818395508302794 l-0.7691048980584266,0.5243787765196442 -0.7631756066652973,0.8240904809564983 l-0.6531610489426791,1.0718286037486398 -0.49467751379683994,1.224463462825726 l-0.2907408177322166,1.2777359485549729 -0.010952528550896599,1.234743118338105 l0.31860277053659514,1.1204321384167808 0.6848638057453794,0.925840377951717 l0.9595707653377892,0.7147064210199444 1.1336872576773864,0.43816894281366137 l1.254096508013182,0.09494312827428615 1.2974817753190877,-0.24253200014783083 l1.2620304822976036,-0.47501251111150505 1.1497193575903382,-0.5875633954688542 m5.732416629620736,-4.5323805808254765 l-0.12058565761321981,-0.40726986525794195 -0.2615466412871153,-0.6085727809449454 l-0.2677038014736407,-0.5494769216357148 -0.3637960254834663,-0.5993939042722713 l-0.43824276332131523,-0.5887247919083785 -0.5998966098321886,-0.5403848289665788 l-0.6598387956123937,-0.39248904592716083 -0.6683468818326134,-0.25398337829838274 l-0.5806566475753042,-0.06592057645373244 -0.5554876923916776,0.11835134777209752 l-0.4986535013384851,0.3484377862025113 -0.4733290971910497,0.6741184592344768 l-0.41463133695743,0.9873718021904001 -0.29903089998624227,1.2220952509653156 l-0.15688893234909865,1.2874426839825635 -0.038419958109956555,1.202852606923581 l0.11776177607894327,1.013878584088702 0.29735881087296345,0.7483502033015951 l0.45764955861704293,0.435660362224633 0.5504664181675802,0.16691558049997574 l0.5181286930653665,-0.11868814379805363 0.5134356020238374,-0.38910806171943046 l0.5300422906404446,-0.7025855183206521 0.5479102134354454,-0.9905986785791658 l0.5634905696113907,-1.19246780881073 0.5263078807482607,-1.3075009583926018 l0.4403179884757896,-1.3541556596519269 0.346090674538519,-1.381755709691929 l0.2906619905425535,-1.3738495111674005 0.24357631807831812,-1.298916101532512 l0.18650938580279783,-1.1493383645294477 0.1060177535707694,-0.9507016539403673 l0.03613716738333122,-0.6501196622917319 -0.04644573843127387,-0.3317624926559948 l-0.0087856986731289,0.0004799049100774131 -0.006335713031545016,0.12455061066942265 l-0.0012315957558505443,0.1988569499759709 0.05967573061341553,0.7133232355189215 l-0.003201421425596263,1.1037726402970038 -0.014769207574294898,1.421343207355156 l0.025972371905389056,1.572728395192611 0.11664979148856185,1.5762780907385696 l0.21335273965099283,1.451537728282214 0.2872751056715949,1.2571691275221644 l0.33755880577051767,1.030404210019957 0.3436559140547645,0.801722645730745 l0.36308100833225015,0.5874336955930605 0.3524793387220301,0.3111369906314243 m1.8453047277204797,-11.874795913736937 l0.11931333694476527,-0.0961794554924612 -0.0563598872511891,-0.3044365942344564 l0.1449670493228179,-0.1735759823491941 0.1538029461220961,-0.15569376957980086 l0.10639122106061565,0.08785785756517057 0.018315929840552355,0.06941761817930152 l0.005209273716460264,0.19084899124621676 0.06466878214599105,0.5028926133253174 l0.16196355221026312,1.0730047225760302 0.02160486985001752,1.2213720084697206 l0.02731252471309342,1.3747032880690366 -0.004435647333831103,1.3521831034694538 l0.05552519131201198,1.3492336272947874 0.06346639249333427,1.1973627806757268 l0.08304768055619556,0.9862505198166114 0.10378181178824025,0.7311967610994373 l0.09167029722191511,0.38008061050201686 0.06202685833671006,0.12113383407452705 l0.0393324644444527,0.0002471879658045709 0.034758295889018874,-0.0692016481315357 l-0.012842500488323916,-0.2797448337118812 -0.005162209307562543,-0.6027504205642876 l0.057109009454750476,-0.9280583857338928 0.19722615203414062,-0.9992391467137137 l0.36500889062676534,-0.9021204708577875 0.4603138565624021,-0.753940939964963 l0.5878378153252005,-0.5835726259707241 0.6800417304229557,-0.40756666654123874 l0.7134358287860725,-0.25784111026446016 0.7665945291578347,-0.016407960950354197 l0.7479102611921098,0.22687572255481867 0.6602142454632743,0.4615261852654839 l0.5201547740618746,0.6473514437662895 0.32907327995069274,0.7497960926553568 l0.12601836023093235,0.7975358366945292 -0.11688199656502116,0.8039895295540217 l-0.3840635717046415,0.7733408212275297 -0.6214588878700031,0.7342780231732251 l-0.8193385005071587,0.6356226207781198 -0.9434267280930277,0.46844089050220267 l-0.9366722108162094,0.25084519395760896 -0.8335705995098458,0.05320840708785631 l-0.707540452692798,-0.13389825818889178 -0.5828387141989827,-0.30327168110308567 m11.121863365056477,-5.818612098696886 m-1.0194469690649373,-0.012345323296404321 l-0.6754141449109675,0.3547908066328546 -0.6806108355944215,0.5249711275169255 l-0.6173639893023264,0.7280771732508861 -0.3789793549888104,0.8971824050294201 l-0.20356428624249615,0.9622312189784952 -0.0010076986517165076,0.8778674602675045 l0.22614888831616609,0.7377808095017294 0.41547417640626494,0.47817149757293964 l0.5821390747608545,0.27263748633638757 0.6536282897996281,0.0769120676306424 l0.6829067468690093,-0.12664586310542036 0.7010234595054237,-0.29254081836447476 l0.7143623231779057,-0.46204441793168116 0.6641048790267152,-0.6553820371398512 l0.5558936596285768,-0.8184300064810189 0.4344578086652525,-0.8800547121707534 l0.31035077570431313,-0.8497595190810252 0.17311497035809875,-0.743424117623024 l0.04406248033699037,-0.5383332969681036 -0.055991243528265656,-0.2995382844036497 l-0.01911887888781059,0.0006857223080973717 0.015757920299845955,0.11791463935168951 l0.0068680606754394176,0.15616129338209797 0.07839325071148966,0.5386144517756045 l0.08094201968622965,0.863340794931123 0.12219850727303946,0.9673400522266583 l0.19680789112178773,0.9639992714799271 0.30068203797115695,0.8964294196495353 l0.38695734729787357,0.7721937298922396 0.4423304497614632,0.5993288756169659 l0.48031741373823034,0.3899490834990372 m5.431608200187909,-6.495730400262085 l-0.16726729265089402,-0.28283250322322634 -0.2125871779849477,-0.30558007943168475 l-0.25528207431145666,-0.12576399760593374 -0.3419869243043801,-0.0036888759510429075 l-0.3962725996872199,0.1609004289679927 -0.5156520606002722,0.40068772443229994 l-0.5517004727529103,0.6649492979165633 -0.5146826505753176,0.8898822664564244 l-0.37421444061030135,0.9823851584907659 -0.16194075358962196,0.9824578166036338 l0.09775178140607753,0.8945342899686635 0.35819271193830454,0.7659427523357969 l0.593113184015726,0.592473805145085 0.7678014636377519,0.42966812858325254 l0.8871107101386436,0.2483922541238127 0.9538136127041397,0.05528052529824737 m3.8977053164362316,-12.670286178620149 l0.0220365597959822,0.077155977700895 0.02674007219727925,0.0026992262340499733 l0.15350805221649486,0.27435031549180017 0.14356766618453054,0.4466322958014982 l0.11746349931216982,0.7094725370215358 0.06607615934129923,0.9073002934778249 l0.0457951723282629,1.1145974397717875 0.03169360763144318,1.2206659316691126 l0.08499237895212083,1.262889385228988 0.10530699783987967,1.2130724191205444 l0.13090449562799497,1.1471068859197229 0.1278193295647737,1.0264132022149357 l0.131654188093759,0.8456013799068886 0.11132960023579393,0.6319622397677912 l0.08127371974533912,0.428075671195739 0.01048694738121751,0.16967239977178278 l-0.021446961967340143,0.0008136287081981008 0.00031344213723822766,0.0005282156584808269 l-0.003377024162783518,-0.1666834951870934 -0.0033038800381392022,-0.36209496841935873 m3.688647270213142,-5.544671535443699 l-0.11529325696023632,-0.08538083740985507 -0.14734789730621503,-0.051402501895349506 l-0.36477768409245165,-0.08521455534802945 -0.5203230978623319,0.13098025332080587 l-0.7384825349098385,0.24950584775252485 -0.9009293316366482,0.3453509508988364 l-0.8432523013264868,0.5189653634105008 -0.7162095905052589,0.6054927706867619 l-0.44543516628332147,0.5798856020296062 -0.2035894838432849,0.32274955514669623 l0.07382416711708494,0.3525430858402162 0.36374232177328236,0.3926914930001034 l0.54711455102126,0.31064969289395566 0.6575149892889951,0.2619758246685901 l0.8175108431846009,0.16012088953845163 0.897490263028432,0.07021296031542229 l0.9266449211832232,0.08963540954092479 0.8059601188947687,-0.02826682668604155 l0.6968904734222647,-0.0633388755428976 0.5542746780687441,-0.09654444460708758 l0.4775038062980546,-0.08297794309163352 0.40330246079770327,-0.08355601877430997 l0.32427865266166866,-0.0752550436116819 0.29549357286762684,-0.06401477016082366 m13.45860481276497,-5.203852176835298 l-0.043785266610089156,-0.2479566186997948 0.05720355368904939,-0.1514877380330401 l0.0479461252129395,0.00013520899047851761 0.056088712018439624,0.06806110576184837 l-0.03423831613181397,0.13434597857136893 0.20554399481624186,0.6405676602810988 l0.23163253095983116,0.9186290503909132 0.2754412593070034,1.0518329144617637 l0.07476806641749575,0.9228347540389042 0.08067946878377028,0.8212684392472313 l0.07017612456731125,0.6570639013453413 0.04625915366393563,0.4619500935396428 m-2.419636249441827,-9.479681968725915 l-0.18214857589855168,-0.38462263346953074 -0.015653301056782254,-0.25010707974891033 l0.014029255129155099,-0.11465814693549631 0.07491030543412035,0.010889474315728339 m9.206484794743421,3.018452882725597 l0.04434258488562319,0.01945000883846806 -0.1176059246575524,-0.10788606103600448 l-0.2978147564919397,-0.13433188206853314 -0.4606494008612002,-0.047957010451315514 l-0.5572123527959684,0.0899730994511119 -0.6567317843080103,0.20665858691673913 l-0.652125418179393,0.2451346367984049 -0.5415242909203755,0.245928153303062 l-0.26067909596718636,0.24401560418486865 0.023358373151965903,0.2945658863334356 l0.2901811897850261,0.3736927210703813 0.5494641065803358,0.3997208774911403 l0.7770563957894832,0.3597520886929336 0.9438303112132741,0.33479288213078673 l1.0070081948303198,0.36336049433845174 0.9384950997769831,0.4278587998058934 l0.7435324788939643,0.4641407131206452 0.4837021529486113,0.47829210749787016 l0.21721068014105158,0.4671898485024064 -0.044928487563076214,0.42815780635417455 l-0.2903324961138953,0.39619961385840946 -0.5313428641130034,0.33941125851617077 l-0.7447065709838809,0.24328011268173916 -0.9303772449626594,0.13535986836650146 l-1.0176448821555046,0.006239694525237408 -1.0282646417015506,-0.08824782825960227 l-0.962190687691215,-0.15510773669038952 -0.849583208569695,-0.14660915723905002 m19.64854621868365,-6.343285560580247 m-1.1079953908814282,0.6932840348027116 l-0.3185848891684842,0.7561519742878875 -0.43006482717529987,0.8678697348804236 l-0.33962142469771645,1.0288140773427445 -0.12432590122877285,1.0146794320522687 l0.06802149125505307,0.6661227939663634 0.40706381216247023,0.43007573491246803 l0.589040994665294,0.10876536365207867 0.7807260155525054,-0.13736794897703183 l0.8501733540958536,-0.459619760473139 0.9507166742810588,-0.6178197861951307 l0.892559885810684,-0.7378177642088114 0.7378297446974474,-0.7943665385252056 l0.5337899326185428,-0.7412707209884914 0.3116279542781067,-0.6105975507354465 l0.10575927784733997,-0.41807183624082644 -0.010866928746185878,-0.22888132918054432 l-0.020894151258715042,3.6694272058177843e-05 0.01920685549548676,0.10767310853133409 l0.0028269513930863194,0.20509520168967618 0.07803630077861202,0.546557426350535 l0.09218002854104913,0.6980642079652548 0.21498128775889108,0.7505922914221576 l0.31446775803207383,0.6812918188296913 0.4240419563387308,0.5376542211509576 l0.5066695212664126,0.35195678480370934 0.5082756876517792,0.15911830958073275 l0.43684816336249593,-0.032375317232925714 0.3940316139331908,-0.21863779419834886 l0.365387737705068,-0.42846420390387185 0.29963031407292573,-0.6153214575968962 l0.21405108282025692,-0.7454960942101764 0.09335439640703042,-0.7860506773515333 l0.007841721038519218,-0.7381144167226216 -0.04337730637799203,-0.6496556998603507 l-0.08054040374268617,-0.5170276760919396 -0.09105764324157166,-0.3701755404188627 l-0.08582462366433426,-0.22944276045246653 5.273885571910234e-05,0.0002896168913623503 l0.00029743464495470684,0.11443142589079805 0.03692388914743557,0.18042261902946366 l0.08347626034757417,0.5503638984815089 0.13510499889217298,0.7682468294900086 l0.21972949793892624,0.8483133909263272 0.29782012105973293,0.8151982426832122 l0.40099632747965236,0.7234612703529797 0.4983897210596816,0.5990815759004766 l0.5583088995056401,0.43208900112670157 0.5735846757367719,0.24840474111564217 l0.5460346938726257,0.0784350633842052 0.4758122264415351,-0.09161335235717226 l0.379477500990454,-0.25367209306344274 0.2916550933876614,-0.4080140888820444 l0.211204454335459,-0.5677226780976746 0.11905449639763444,-0.6866347193627833 l-0.004432808703710889,-0.7253174184755595 -0.13078843076750152,-0.6802718637830029 l-0.23321272453535705,-0.5962794424620468 -0.3168523610489474,-0.496723294061989 l-0.36780247096833507,-0.37663075317251843 -0.3587164281562493,-0.2530505061132605 l-0.3078113794392478,-0.12592327618808946 -0.2404287011310983,0.002329190454623598 l-0.18065677585174328,0.15261431034919462 -0.10748168813529617,0.35086876141975476 l0.04062404471128715,0.6266837119086796 0.18109981726130742,0.7692456842611662 l0.3067975045622014,0.7803055049283133 0.4273377060311235,0.7212479709742547 l0.5428149104210445,0.622503400042356 0.6408331392575713,0.4951623976005027 l0.7004575729281939,0.3451459706493386 0.736681819064952,0.1869264542633656 l0.7473193405780548,0.029991935910470148 0.7191005945114071,-0.12433868643282786 l0.6646034118723018,-0.26132544877255715 0.5836153626765201,-0.3962747752818788 l0.49112147084986707,-0.524343192464535 0.39031133066579343,-0.6354268790314271 l0.302585124997869,-0.7159451247046933 0.20731125776591508,-0.7580510973648741 l0.136967733478666,-0.7842637301558686 0.0785900056243788,-0.8105282187507397 l0.03497618794579744,-0.8269671797838806 0.012931462298637932,-0.8197951316716696 l0.016263337998684495,-0.7961682081262837 0.008745828711389849,-0.7739248872437532 l0.006715452159158368,-0.7184165120819593 0.009704520921336815,-0.6402752399559876 l0.017564324793542925,-0.5604443549171497 0.02705225345244951,-0.47372305392639896 l0.045237150139167265,-0.3593921661218181 0.06584560886576085,-0.23761948931868324 l0.08845047666860399,-0.13891860853779495 0.12405069160878403,-0.05506589639641754 l-0.05404585600182339,-0.04181463644975453 0.12071180347617196,0.14838704473650774 l-0.034617848683456125,0.17690861222365245 0.09635870141737377,0.4666533172952319 l0.05361293241807783,0.7401038407741775 0.054997034285175876,0.9620255829176303 l0.06847925498445326,1.1196169852509819 0.10500715676249965,1.2143027782181646 l0.13854870202140715,1.198900818828964 0.16491846722864265,1.100850462932164 l0.19238787867771293,0.9895620348614078 0.21777060627128314,0.8477004172490364 l0.2309773415878141,0.682801663551482 0.2383006960508904,0.5102434755143739 l0.23034755895362088,0.35671147702396816 0.18903097501208913,0.217328786870885 l0.111304149135209,0.08486860988132 0.09315896790715647,0.04329079387274297 l-0.0035223139469946767,0.00041578172630805195 -0.004389982717709457,0.0004360025586923007 l-0.004221174987190268,0.0009116189747194561 -0.0046046190214595675,0.001340557391872838 l-0.0021442025134295727,0.0011711956371997178 0.0004559419977684733,0.0009161503342041814 l0.0033602603872673756,0.0011141845155980463 0.00693884881500762,0.0012136960703677357 l0.0048746951311304226,0.000986431459148761 0.003311168453268777,0.0008202584291828641 l0.0053543672790453915,0.0010386355715391764 0.007541332524479389,0.0011354756667223934 l0.005241077617756233,0.0009311859660925901 0.003544021254379821,0.0008250335955160515 l0.0046544559789989965,0.0009771699420329108 m5.953826904323582,-4.27417278290796 l-0.07613558303632305,-0.1739848852255264 -0.2050192952505786,-0.23480570302740694 l-0.38243421911532927,-0.18191948548638454 -0.48334029325083167,-0.08905856307369381 l-0.5751579403223076,0.022738812587529706 -0.6242488026018711,0.17069676513291318 l-0.6301002501825754,0.3472894131352465 -0.5821547508913805,0.5186246632821675 l-0.4497447909879853,0.6361764072391377 -0.2580505309331988,0.7000622749181673 l-0.020550556519865763,0.729763388670202 0.23156213762946662,0.7000786661630318 l0.48595297331509896,0.6148945092835932 0.693258047102447,0.5098165870242033 l0.8335765005034317,0.36920610062525694 0.9168798922506701,0.19666859513984297 l0.9178812503123175,0.006602296746191932 0.8798923493694571,-0.1259251087634135 l0.8021036385405885,-0.21352927392398535 0.7031196356031845,-0.2720531523457176 m5.4134578703619525,-3.6381282807208835 l-0.03901185843322527,-0.3315610587787016 -0.10628102720517883,-0.4060398339781412 l-0.23270581655253253,-0.3803579211893503 -0.34191679966005106,-0.29696726805926676 l-0.4900006353523539,-0.19804659496424565 -0.6240458489057774,-0.05977442863274852 l-0.717457055906543,0.1298728883673236 -0.7549291847432794,0.32987785333154196 l-0.6953458784890904,0.48611152173600347 -0.5551290514662252,0.6023141741036124 l-0.35684114706811515,0.6860134601189181 -0.12935349342893354,0.7219330074037644 l0.12095306805437803,0.6899340750078098 0.3533462583104931,0.5901628139287775 l0.5717116595211619,0.42629006493515365 0.7513184549632164,0.23077280820928575 l0.8398286104447306,-0.0003148980029022634 0.8323705794655549,-0.20011352011531372 l0.7392534614208209,-0.3548110126884179 0.5923529864048198,-0.4611889421447271 l0.41646066316209224,-0.5282961728014327 0.2380597888282727,-0.567227482914991 l0.04128760094402213,-0.560122132413067 -0.140142574845294,-0.5008250474057386 m2.9479022027726893,-1.1785457132604524 l0.0805933400449624,0.1777791383122555 0.027109967584440963,0.17749971146270246 l0.1390175224927067,0.49188786746690233 0.08003824941249689,0.6507056952887464 l0.09445454930414274,0.7555734516113227 0.11008860164177932,0.7112049462129101 l0.13130609679357974,0.5995672348290089 0.12727609261103118,0.4621319473819618 l0.1248791740573872,0.24681322290452437 0.12280738350672225,0.11536979672685556 l0.003587219982131975,0.0006303201581822561 0.06441678848994836,-0.03533034013580928 l-0.03256148850954712,-0.27517092225943984 0.0235173552948045,-0.5545117854942385 l0.0854837894960325,-0.7289834619012083 0.17558073980508998,-0.7750347851230529 l0.2650045157108165,-0.7482936978513586 0.33346617219494046,-0.6566274764003832 l0.39695948354277305,-0.5259457827144005 0.4209510981292349,-0.3664376436933869 l0.42339071624857266,-0.19735570249800158 0.43584224582029135,0.008876920817311477 l0.43014210464343366,0.24430289884022083 0.38834989072404513,0.4777210652318901 l0.33105573051449194,0.6470608115377849 0.25554078810179076,0.6654036641519884 l0.21789367496447662,0.6693343519412448 0.1589568258205815,0.5661751630130678 l0.1128424554792828,0.4046966731155361 0.06175974008675557,0.12824405712570713 l0.063228629441033,0.03736453503061918 0.0395451784453119,-0.03764881185823951 l-0.003943854750846098,-0.19739064586904215 0.04474235334145342,-0.4316995740083866 l0.15204721687689832,-0.7037731409160841 0.23046910764878883,-0.7801254988230844 l0.3499549924824132,-0.7239309550386708 0.43731653683689337,-0.6160793901297665 l0.5143929719682034,-0.4610946476258438 0.5524650813587837,-0.2871343791841775 l0.5560408235006369,-0.10387067509623271 0.5242581367075607,0.11266729970547815 l0.46595802899217675,0.34710505595544583 0.40321928270087676,0.5785730479741629 l0.3522171081291597,0.7365332840650216 0.32268825196618695,0.8064339756735497 l0.29654973746787827,0.8215394019035378 0.28512278200131735,0.7659792304385411 l0.28911152485549063,0.6418078542925749 0.28650867942877956,0.47785261278741387 l0.2760065196754157,0.29602983587571435 m1.8858022690093184,-2.5745062828492227 l0.14605896178689284,-0.06033201507575018 0.31090450296372485,-0.21000753349317097 l0.436814457189803,-0.2944203911752136 0.5200821756250753,-0.3434877096204771 l0.5275807975930907,-0.41952875266877976 0.4775051472726828,-0.4491070509149096 l0.3574745952726673,-0.4507794976391467 0.201754525393913,-0.408626973827776 l0.04873696337914439,-0.33102336540110544 -0.08925829837820334,-0.2876499294328726 l-0.21684373896477602,-0.26182335600405077 -0.3385741115233818,-0.20013754085475666 l-0.44726252548786216,-0.0963070317428294 -0.5413142441791978,0.05460954843000717 l-0.6008017062460091,0.22872562704341426 -0.5890284777170399,0.38995906702402067 l-0.5034635662946676,0.5228625534788767 -0.3565200865770924,0.6308675410269784 l-0.16685964178230422,0.7192037701511982 0.037182524799978044,0.7588930130887179 l0.26277241112574057,0.7439221144285785 0.4936262369160205,0.6756379007972547 l0.7087795734656587,0.5603547690892638 0.9055377840840898,0.4130740762936037 l1.0693026782232957,0.24505347013183224 1.1657323837210007,0.08181626330819498 " fill="none" stroke="black" stroke-width="1" /></svg>