<?xml version="1.0" encoding="utf-8" ?>
<svg baseProfile="full" height="77.60347895226192" version="1.1" width="144.71095958805216" xmlns="http://www.w3.org/2000/svg" xmlns:ev="http://www.w3.org/2001/xml-events" xmlns:xlink="http://www.w3.org/1999/xlink"><defs /><rect fill="white" height="77.60347895226192" width="144.71095958805216" x="0" y="0" /><path d="M25,38.12172182901391 m0.05757403364413332,0.18525278560994904 l0.031094482088539852,0.2888292074136484 0.11084547610005945,0.8254976274281015 l0.09347759194123738,1.3085879087803534 0.23513132344443716,1.5020364521360483 l0.22033125162023018,1.344285368916822 0.24431215212624124,1.0381662846444815 l0.1375759840067953,0.6142190098239773 0.15274012081249136,0.2188266813410226 l0.057520333634449416,-0.15790463980038527 0.0014180914641955253,-0.9021526574375671 l-0.028392110098847675,-1.7649198769874899 m-0.741966903151611,-13.245620727583379 l-0.05991435787188039,-0.037705496062599896 -0.1765461714393094,-0.17669859528637927 l0.0410466566568317,0.03490534789043655 0.14192202693593364,0.004680030149741902 m7.032459258978997,2.7996430399493737 l-0.08739609285683851,-0.12817195043252969 -0.23855765166566267,-0.35434737785280634 l-0.4470544158739362,-0.7374865412745006 -0.4835543335577839,-0.7736722825685297 l-0.4783975182263008,-0.6222783327304358 -0.47780898225584256,-0.44377031924672444 l-0.51644814019848,-0.20827423039539347 -0.49113735561355976,0.10644620650836227 l-0.48373231284340834,0.6356396079296874 -0.44798436766332306,1.2563672066557154 l-0.19298884260986043,1.7733091114416737 -0.03044120586712754,1.8483085632179432 l0.36798599367960794,2.4170858860276643 0.6041184664382128,2.429822683144561 l0.7436894178397345,2.645183801541058 0.9056526422821984,2.651811599746639 l0.9641039373335539,2.504067897819241 0.7738075257631809,2.1786556242358808 l0.5231241583131652,1.7543666363481378 0.4302701649662973,1.218241929942698 l0.1031086743458732,0.37350937735886625 0.05725993952327917,0.07701427490464718 l-0.25656664365187243,-0.4982379675510634 -0.5634147525374968,-1.2228149174647034 m-3.7361471654331058,-7.968683719551718 l0.15678289523629005,-0.01175916223726322 0.2414239496004931,0.007342301290483465 l0.40878152849962135,0.10069290534407294 0.6374449730335485,0.2535400987939109 l0.8587414621116418,0.19616045054230435 0.9826653002154622,0.18306949721238172 l1.080032348527564,0.0963341297526453 m15.123703956535964,-5.692922115235876 l-0.17064666749213397,0.07924082877075064 -0.11557412145965514,0.136102318673569 l-0.30358892669000154,0.29473656411862653 -0.6120090486073925,0.7018494011184769 l-0.5579065680222542,1.232989549668466 -0.40548199410144264,1.6288613079880676 l-0.12096579360523294,1.6084730625327102 0.21660858396131996,1.2483617068475477 l0.480622649284776,0.60641217241867 0.6396126150968812,0.15127688656910906 l0.683410525185398,-0.2766899467605231 0.5097756384781686,-0.6474753617415522 l0.3720456361187829,-0.8717946409628547 0.21918663369799898,-1.2424688339839383 l0.04457673422746052,-1.4526337384312873 -0.0673985035763451,-1.3007149696906433 l-0.12337027491603877,-0.8106405733506297 -0.02109191194228632,0.0008853143621050702 l-0.021253969588785174,0.0006308533380380177 0.1070055812947989,0.33202078938242624 l0.3786797524424992,1.0512813331073712 0.5607607960527822,1.1741364001598047 l0.6356052756360797,0.9432935714065356 0.7382389901818659,0.6655846238871578 l0.7261083720430648,0.4347494840840006 0.7733257411477964,0.2720610199667243 l0.7201816438811166,-0.04003253212633205 0.7011640667983601,-0.38976514329951467 l0.6802493334274304,-0.8349406720986097 0.7194217443495194,-1.2639601231298991 l0.7481594085667836,-1.606690287578993 0.7518920897968016,-1.483190298105007 l0.7562949062444576,-0.9894400834329202 0.8663224578573882,-0.44901591531311025 l0.847050726369898,-0.1417678296326393 0.8543809651551943,0.2791815697144683 l0.7340615390141866,0.6055702566300268 0.5712746381979453,0.8692955374449924 l0.29821589580046903,0.9538451433393061 -0.008964288932017866,0.93441903600601 l-0.2638236284160052,0.8393744825358107 -0.4788189827632619,0.6677473186622902 l-0.5845044850858491,0.45642116683922407 -0.5786287187983635,0.19944947946119398 l-0.4228687583879843,-0.05158632258405723 -0.3484493196616527,-0.19275361301672958 l-0.2042930275971913,-0.20830029263521482 -0.01184281345868416,0.0008560214098174767 l-0.008369822205500057,0.0005798497718309404 0.3058423996759527,0.3416634201198566 l0.5509272216934001,0.5938866138906902 0.7696053982648029,0.7275103927643399 l0.9474418756964664,0.6370660066011787 1.116791725442935,0.3431922793479526 l1.210027694860123,-0.017812767979298746 1.1780486106323969,-0.35195356618497686 l1.1092129946090155,-0.6851723789984224 1.0262656212413106,-1.105274438924767 l0.9275258780007336,-1.6025815011129367 0.7644778489968088,-2.0608665942795064 l0.4949091672074946,-2.573714733117238 0.24996225543825923,-2.8835089206742057 l0.15051750836908925,-2.7455382347269843 -0.04505317283079984,-2.3956584932210956 l-0.20206497600694817,-1.7941513060404586 -0.34585917014228,-1.1299074888010288 l-0.27341142292055204,-0.4592046141608638 -0.22769592706164585,0.026798261415775272 l-0.2364923208887541,0.5211910008017493 -0.12671169618733785,1.3365463021749593 l0.060991458682932265,2.020432472109409 0.27755522733184995,2.654024600859712 l0.057664289982838936,2.7268321515748246 0.0980153828675486,2.838113069429825 l-0.029709350256765663,2.7057478427190436 -0.07301287357272275,2.4915955066844995 l0.04295247042506218,2.3430440427083656 0.04411818120850927,1.829223871334495 l0.03070095556886977,1.1666301488093707 0.11131258310848093,0.4633614720600685 l0.04003606370703116,-0.03909026088871832 -0.04744495449724003,-0.35171505810509696 l0.012900397126558107,-1.1564146281383367 0.286281019535757,-1.653658628368957 l0.5316300986081182,-1.5857301952344027 0.6159623265125419,-1.370169997250229 l0.7232264279461598,-1.128033637927215 0.8974342942133783,-0.8681873681708829 l0.9264904856526633,-0.613690197568366 0.8743124606367613,-0.34355309625050723 l0.6441166997657437,-0.02241998371393156 0.39687484496344316,0.30016541477564307 l-0.06596141305238144,0.30225944516101455 -0.06899133330773702,0.7564415931234211 l-0.49399235848560186,0.8788610099744434 -0.7425241470644425,1.006946921379595 l-0.6559247970578506,1.1264450549743372 -0.40797108409381977,1.0273212193098369 l-0.09017069657042436,0.8433419465804213 0.2614130973668494,0.6584508417938921 l0.6400863528800681,0.46895131458282213 0.9281631112275599,0.18976476777361823 l1.1298360825131688,-0.08247359848291047 1.25751161576704,-0.3376280962433675 l1.268284917024195,-0.5353232621628167 1.1471204759229334,-0.7247155309415078 l0.996936202068115,-0.8366808295703945 0.7789774537717566,-0.9229398966331215 l0.4814361034207574,-0.9951167703479303 0.1647161395046921,-0.915014028462962 l-0.12704953576411693,-0.6163093449576782 -0.37953564519094646,-0.32008182990829154 l-0.5934983493743371,-0.0027239833279135853 -0.6899847984495674,0.39972838767144053 l-0.6265754699091659,0.771122395924029 -0.3707452713430081,1.0715899466847423 l-0.0602501072558404,1.172359347090828 0.28561022874490033,1.077598810237945 l0.6569545865641343,0.8755340577376907 0.8779213428820785,0.5395471454805694 l1.028993845013651,0.19735993453555398 1.0927842855627672,-0.12692826977919155 l1.0535264016282446,-0.45446881648698684 0.9748040435770864,-0.7670211194888064 l0.8308332561930523,-1.0086231231602012 0.6928775907352449,-1.0410325527094797 l0.458605438447528,-0.9262411593087697 0.1989794523410758,-0.30972227455748563 l0.05551234648851323,0.10580362387601495 -0.005758125351161548,0.10712990166505343 l0.017677545497046417,0.6091606022214776 0.09964185952111196,1.011693716084305 l0.2450878024029784,0.9658080337720596 0.28664410111133376,0.5679478048018853 l0.49966835984867747,0.4076132178028647 0.5102471114296685,0.015537689306598889 l0.531572103438013,-0.3408592641922626 0.49126309150819736,-0.6906322837458443 l0.3666407465397792,-0.9619057774863984 0.16151402882321206,-1.1659103631259344 l-0.07236066460008045,-1.182680249165322 -0.29845166203502427,-0.7956075072458563 l-0.5219619273873157,-0.3961182533218241 -0.737660288849007,-0.15724782640906387 l-0.8107504248320029,0.08658508225244041 -0.6528472900314731,0.3609558345810316 l-0.4977543651402266,0.5815218092880817 -0.3090907632117443,0.6624767781457117 l0.032281409882641145,0.6705740690094485 0.3403528928913568,0.3598671555851701 l0.5888026355200245,-0.01613704300826107 0.9006691573967585,-0.555152296835741 l1.1318875552108885,-1.097952365828283 1.129358410782797,-1.4779802560807969 l0.9617007970885579,-1.7566622495829989 0.6601874829243545,-1.916601538565577 l0.38328266122787136,-1.8666325808519293 0.12021633981641171,-1.6590490341235251 l-0.1254954040785156,-1.4320986269896274 -0.2929661273028524,-1.1002551316734253 l-0.35782703770662755,-0.5538395047551292 -0.34082144496615857,-0.1212291868367088 l-0.29717949037893165,0.32193541538160886 -0.24157162009230976,1.1673910619233607 l-0.02924842210613098,2.0130834579515735 0.0833646134037323,2.431920766768895 l0.24900412549614723,2.70102500919066 0.3650471568138527,2.6054286956296733 l0.6032009720442939,2.4130907059858124 0.686530530576853,2.037437915893711 l0.6715784073120671,1.669739842384234 0.6794751287360155,1.377745509171244 l0.6061675547671914,0.9801992772912712 0.4546378851259677,0.571206211915979 l0.35802295800850326,0.2525236308586506 0.2013494816691069,0.008403771519744203 m15.73685550696314,-13.889151573010974 l-0.042439654441849564,0.03595347714388519 0.03551333032475406,0.22108013910804306 l-0.05378382666883158,0.7093183995232925 0.005172655001141661,1.6319314240740808 l0.04112013426131675,2.1275117396660805 0.010608576185359568,2.2750716208861745 l0.0961384924236149,2.187541007991815 0.041043531160146876,1.8258906603439382 l0.013945344958871035,1.236499786144853 0.015541738035174458,0.6359497902664127 l0.050830759151775956,0.09163402015531412 -0.15443658839778227,-0.3338325917887429 l-0.28244102003888266,-0.7783043979117921 -0.36210677016918147,-1.1812620165323597 l-0.38210949294868246,-1.2578102348714262 -0.30353873973167134,-0.9467034936641388 l-0.23040370648154163,-0.5051386951365306 -0.1168557554168613,-0.2188809365655695 l0.016623694423444017,-0.0007897899134598598 0.3602671325411713,0.13426220412138645 l0.7830684781448711,0.17245590699263438 1.0581350326999794,0.09435074778611366 l1.1875207424624699,-0.07824372508430268 1.2754050492037399,-0.2151066810628799 l1.2511166337216335,-0.3384611009746039 1.070430874919358,-0.46685516840976693 l0.7942366598354836,-0.4708862899797535 0.42134726047503274,-0.4227969647068547 l-0.010964650682375296,-0.08922374278161771 -0.1310346572868935,0.10737464569770369 l-0.591397881694653,0.32609307763660456 -0.6974645853489458,0.8211082218989058 l-0.5821253062042179,1.107825040720789 -0.2976045011733044,1.2315502166590915 l0.0005141420560772392,1.0804835557801096 0.3310751916394933,0.7245829701175805 l0.6374078988500302,0.38111740349784584 0.7848946451859965,0.07386855786199255 l0.7511061429876568,-0.30318969476386065 0.6449319722610584,-0.5474320648741867 l0.40396142025532794,-0.8005881309121331 0.06406036024457377,-0.9599350691282138 l-0.22385315582991136,-0.8916030529019773 -0.4767170846047004,-0.7126098275548045 l-0.5249212982161588,-0.34468740228524913 -0.48408016564319295,-0.1241787523414747 l-0.2858394086746091,0.036915425289515635 0.028662368705918092,0.03151704362330025 l0.3608830571299199,0.0682264119978683 0.8750802277376829,-0.027603132628605753 " fill="none" stroke="black" stroke-width="1" /></svg>