<?xml version="1.0" encoding="utf-8" ?>
<svg baseProfile="full" height="75.84037771878323" version="1.1" width="362.8632504062962" xmlns="http://www.w3.org/2000/svg" xmlns:ev="http://www.w3.org/2001/xml-events" xmlns:xlink="http://www.w3.org/1999/xlink"><defs /><rect fill="white" height="75.84037771878323" width="362.8632504062962" x="0" y="0" /><path d="M25.317156737706977,37.58281310365732 m0.09639789913367529,0.06999936674507877 l-0.234490350047469,-0.08047303559615836 -0.10213173913651537,0.04599574574235588 l-0.05225421501035269,0.5913110970767683 -0.024678332646315828,1.1146566867190337 l0.03724239009034767,1.460639834493375 0.13955394927254738,1.605021119145447 l0.18957594029168903,1.635036826164023 0.23072060941165498,1.5112949610089998 l0.19741296773416778,1.3182224035576173 0.3136087955850186,1.2794321774097501 l0.2960140707013606,1.125294566163309 0.2478737681359273,0.9145993590196589 l0.13506421437066757,0.4731690884032309 0.13181632753931544,0.16832493259502254 l0.1026095973071087,0.025039486478386313 m5.973775863617375,-13.028580665642236 l-0.015279650537590788,-0.40416058880639505 0.0685157775437384,-0.1800672559989621 l-0.01514590909613993,-0.0006593735360372524 -0.010773807782677551,0.07840099922097338 l0.029606768987710107,0.5092356206552592 -0.0182719993798745,0.9405711292081146 l0.024040931812547423,1.227507352711019 0.08945296707183768,1.3625832794658264 l0.14460918304662568,1.3719924686236988 0.15765948595756807,1.3081148862239473 l0.2063169628820031,1.2166745662919054 0.19591172039082322,1.1000005006303673 l0.10447384433814934,0.8533059357194586 0.06461558477802208,0.5754190684676368 l0.06658290338337841,0.3229446409986604 0.06389663354822299,0.15957967957838412 m-3.721706628798361,-3.655255794587475 l0.0007121535703710384,-0.057137817032878256 0.1148399488866241,-0.0611926466063426 l0.6552103758418355,-0.18378706279906917 0.9745700358553923,-0.18861132862503344 l1.2958571912588237,-0.11169438067803608 1.241685867372785,-0.11200673870665884 l1.1900068524178529,-0.10942421854078722 1.0807859896693401,-0.04275623343714222 m14.313998222282633,1.0688520672164934 l-0.14887455105020997,-0.2532027662355284 -0.03339913856706465,-0.18185099962275744 l0.10124528419855403,-0.03406279532734398 0.09791842082185599,0.02546276175378472 l-0.09046630542611482,0.08163242766938765 0.04153747852805446,0.18153494611246473 l0.1422838569829901,0.5771576761841624 0.18614873287559566,0.7595701217134821 l0.13773821294904423,0.6601591110486775 0.2396823019255192,0.5262696146792737 l0.24912755184564964,0.33076670764933797 0.3143297433765907,0.2900570034110756 l0.23521518702218677,0.1978488266097932 0.22650450462816193,0.06284972284107991 l0.11662718663904097,-0.22539363799251425 0.2087909130913143,-0.4253670276134897 m-0.43838536749951945,-7.664954185485989 l-0.23963519929309254,-0.5349916815347862 -0.043433882329210347,-0.15160234283651738 l0.053399764125738054,-0.11051091551698221 0.03284306839295539,-0.015880271718929733 l0.023407654792791745,0.02177391193094241 0.18902765220906045,0.10082784282059178 l0.3186531662024505,0.20377632972332962 0.4162763953694635,0.24514128262445548 m7.633377551991156,4.126230716643889 l-0.23313900811997246,-0.2044950425272696 -0.4300180971760928,-0.23203647143905698 l-0.6671593785639365,-0.2662271559953542 -0.8694290519315201,-0.20024710901599327 l-0.8758134842219581,-0.04466235254461911 -0.9223291276661499,0.04626233505628567 l-0.7355189919659457,0.27029451718593905 -0.6855406164464192,0.3559871018477841 l-0.3791498840180519,0.4863536356703062 -0.04581531876832722,0.6167312861746623 l0.28843197217844796,0.718590855697465 0.7451065777514557,0.715602219108899 l0.9574646354140884,0.5399389862381134 1.2476069928296536,0.41010010241789935 l1.3297418355135053,0.30877369642207 1.2690070867225334,0.2851939201114319 l1.0414488315778383,0.31134974962729906 0.7599984406098539,0.3309291302652686 l0.4341028332629381,0.3370532393098525 0.10625098650853003,0.32115724673450446 l-0.20159955333554064,0.29533362384995104 -0.5606348513876829,0.32351723309278757 l-0.9548138976695452,0.3228262663413031 -1.2159315346962045,0.27651029815683087 l-1.2338227033057707,0.20215108998170123 -1.0337418320333414,0.1364346593460741 l-0.7259570958666158,0.09531987457865851 -0.49674877535016665,-0.003034515743418053 l-0.08363835516739224,0.015098817668813429 0.02635416019438743,-0.07285457851075028 l0.22471098613708843,-0.050366629010654675 m23.089239120570838,-5.568101405993119 l0.11715181179661496,-0.3788836002595437 -0.1293837429276664,-0.4385538101452836 l-0.4471966624271518,-0.5939041376654329 -0.4681449830291325,-0.40988299267139217 l-0.7963089943220183,-0.3711228667113443 -0.9521702527472894,-0.1675103454220198 l-1.1399041415281639,0.09328838441555151 -1.2699702977094656,0.35070115330203344 l-1.2270249129782482,0.652880549536823 -1.049639701827732,0.9151989221682316 l-0.8394047021187948,1.069940328701078 -0.46975794421992445,1.0237406490055623 l-0.01739354068816081,0.7845242022798765 0.4419631361818503,0.5562826394681568 l0.8607374429313479,0.3562771080804422 1.043632030440463,0.044484444177793854 l1.1387034655357724,-0.2635231613934633 1.1575384140384992,-0.4959174097663978 l1.0650261642350962,-0.6951041817385595 0.9010937810480075,-0.8478639721388941 l0.7044666407741159,-0.9204728603937826 0.46317270393907134,-0.851497650126059 l0.2058253735255181,-0.6858589649581768 0.0005833618004554416,-0.47194343803257266 l-0.10487431294874017,-0.27528235330657597 -0.01571321490077587,-0.017578281289503582 l-0.042219355780972134,0.0789964049946164 -0.02732574211870994,0.09897799045268793 l0.05093542130144185,0.6253290772735766 0.16009306908784127,0.9568048716709215 l0.3003458084427994,0.9796317220783833 0.490103423713007,0.954176723999031 l0.6246510147282758,0.8073073624359987 0.6731092931140844,0.6042086481923368 l0.6369317174435885,0.35191756479947733 0.5577631593225184,0.062317907864926116 m0.5717203617428217,-12.250027656502656 l0.02747895414355202,-0.20803494746456938 -0.10569508369783441,-0.243714690136402 l0.02661928150300017,0.01145306616042663 0.15114903445314312,0.27386927606612216 l0.16550092389822957,0.7039330006944123 0.22402557734502757,1.0853383541002257 l0.23142927882295997,1.322323799084181 0.2669018208332661,1.3829535245867184 l0.16925613571623432,1.2837646007802705 0.23772013192737462,1.205389499747691 l0.21204543116400398,0.9762160776252254 0.14509566115612876,0.6499472260644985 l0.05493393521808613,0.28731164348768085 0.058594934563386804,0.07059763379468874 l0.04605802887928685,-0.07738958314916733 0.09783382710000996,-0.17820271863446094 l0.2219438552785961,-0.6153421401504756 0.36455079909611354,-0.8834834098040021 l0.6672236919417979,-0.7889306544639593 0.8085827826173552,-0.6568517686449394 l0.9073109030492409,-0.4480645956184957 0.9223393797886706,-0.18932859607983074 l0.8744453789672416,0.05747215460849507 0.7611569762980529,0.26212421066576846 l0.5925096869463312,0.43146890409031907 0.3937050998338975,0.5756475330536102 l0.13069522388318958,0.6255397795820603 -0.17791600508272407,0.6065092681988359 l-0.4945043624367186,0.5616159440471724 -0.817145168807732,0.4497940241992047 l-1.0517125129307987,0.28459626451013326 -1.1615185737892233,0.16250723585583526 l-1.1843535900718765,0.036933384837071766 -1.048779964460137,-0.09011140472611122 l-0.729888081778333,-0.16011707486644122 -0.3346205950666093,-0.23571389931598966 l-0.049841191549579854,-0.36334362642670215 0.2347432672855707,-0.5617645384896602 l0.6474385260933095,-0.715706408081366 0.9050107003852816,-0.8037506340864704 m7.1399564743246,-6.411299705559012 l-0.018841529344543424,-0.27069365966095515 0.058970943121942405,-0.11432555325611399 l0.029026508212132665,0.024461507859144995 0.0332340525160812,0.1398535222290597 l0.010399283794721433,0.5992728471458526 0.04945485299215574,1.0746282338206872 l-0.09534130996331827,1.2155524493218164 -0.035226877785273426,1.350634217408379 l-0.00912635401606314,1.3748646974816632 0.08279038955208165,1.3212826251933856 l0.1621612907532091,1.181621551619219 0.263382911771444,1.0411643982040113 l0.32943525892030084,0.8293178080595829 0.3619854748604941,0.6038343903917129 l0.3825407923121972,0.3399493396495222 0.30123186121550116,0.11147994548700207 l0.3692750035764636,-0.07176568364060251 0.4628628194089157,-0.3788846728878308 l0.5964473484781787,-0.6289537549289603 0.6559941171180894,-0.7746616601779077 m1.506376981749455,-1.5672862528571039 l0.031782306708716325,-0.0020347088672141105 0.07630522562589627,-0.002262912677663684 l0.31559354060716055,-0.01904147112714442 0.6744927764632384,-0.10145959252870364 l0.8947582246337256,-0.1880444438243902 0.9417112469856231,-0.2776157557706579 l0.9043489695621157,-0.35682392126444606 0.7642094494674869,-0.48588642463541326 l0.5554261206163853,-0.4647977650519726 0.3085339367339815,-0.4750191567749741 l-0.006549205572332653,-0.4703887402190726 -0.3148309589409542,-0.42757865782474475 l-0.6293453574703932,-0.31622746581122785 -0.9423990846346482,-0.11390843230058806 l-1.1191776990757794,0.17298316960466184 -1.1501855850662437,0.4008578657107912 l-1.015727281542978,0.5725260971780498 -0.7082917093070905,0.684354364879243 l-0.3386143744615412,0.7403975726582429 0.02965568403916194,0.8065264224971261 l0.38916939485605945,0.8083477615453253 0.6859114766634048,0.6619344352627989 l0.9687082172928414,0.5290816425291699 1.2265872954930719,0.38323867324777167 l1.407292604571362,0.23839241276679735 1.437390685057701,0.11672862613840505 l1.3327484128558988,0.06820978225766634 1.1590275765641271,0.07052891710305467 m19.437023162744524,-13.32127857211283 l-0.07040194416207532,0.020099069812884673 0.1162115410826143,0.2358488141303557 l0.061171855669595696,0.7100759148710607 0.08283871427050551,1.1139475108475665 l0.13159356998595376,1.3546118736206534 0.10043378166983881,1.4063537122216583 l0.10581763074748463,1.4006994961794563 0.13362941140455067,1.4247896669835778 l0.11966291075996965,1.4144926070354298 0.09457992760138641,1.2211023568363186 l0.17047025270542465,1.0052145718608052 0.17008247975356658,0.7258306740836689 m-3.6576364040667557,-3.2695755957924546 l-0.04460169377862269,-0.06218571957416751 0.0519722962105246,-0.1232637464983819 l0.3965467811340608,-0.16971558336221146 0.817758977517506,-0.20914797485923087 l1.1697421071683778,-0.1621473879730418 1.2817734479837442,-0.1359267382907414 l1.3491615057791615,-0.10183660697131802 1.338629484159352,-0.1030244379455936 l1.3191320896383831,-0.1028770802606339 1.1692210434455514,-0.11772704123136375 l0.9724945427966322,-0.1357929257927229 0.7517607214115666,-0.16127583370455684 l0.46850958472063875,-0.1869377643982782 0.19618670635552451,-0.182793140379711 l-0.022368677003363716,-0.21634273225922157 -0.1784097850128715,-0.25905334944599795 l-0.2729898693017793,-0.2513775528417905 -0.3622863292560637,-0.21685393167791261 l-0.46886172874103593,-0.1306929437872031 -0.5746174455174489,0.010791067907643141 l-0.6205914019781152,0.21651001275074927 -0.5665362477575738,0.45651203387139033 l-0.48908558484834225,0.6695616841117681 -0.3658302128140734,0.7893297076584037 l-0.10447393358048973,0.793625712258313 0.2608354985769903,0.7457070352093599 l0.5816038252169693,0.5827633140601226 0.9242250918660374,0.3805443941083848 l1.1584023237333423,0.1304859519990278 1.2949841021922834,-0.11195498699557313 l1.2535625696220951,-0.31409627189031986 1.0480469465829272,-0.4651671051879409 l0.7624351379973473,-0.5780762433013874 0.4325426519867994,-0.6956038475994745 l0.08014559744215999,-0.7534319163691857 -0.2645255624780024,-0.7339650392494222 l-0.5695354938339954,-0.6103388667212435 -0.7999954223660594,-0.41573375464076884 l-0.9307941792791262,-0.19095604129772104 -1.0173115730736848,0.0795727819550578 l-0.9898935555936924,0.24457731843959535 -0.8000012635865463,0.34600928439775996 l-0.38475799548069634,0.44164827464460293 -0.027457926484442053,0.46537175788344554 m20.318513870272845,-4.710123061977117 m-0.8156495093703813,1.0328021051209197 l-0.6579315662213614,0.8559501170017335 -0.3245928287635047,0.9506295324083391 l-0.027810599907107113,0.9498037699183456 0.2690061034363624,0.7426666619106149 l0.47264277924040227,0.5123299955873046 0.7954781054783147,0.3015113472602662 l1.027097225210811,0.0024115873727737335 1.1977742908639517,-0.22391784199584794 l1.1568979024729216,-0.4128287433572339 0.933087587444779,-0.5858533382148775 l0.7158849836068621,-0.5786158442968576 0.3615440427297617,-0.5666518211640365 l0.08235637837749105,-0.4975196124956442 -0.09492875648620648,-0.3589254318408285 l-0.21515665960111566,-0.23786848792606574 -0.024207651565365737,-0.042246386350181554 l-0.05048507444731411,0.031446460574324646 -0.002638332444097683,0.08168195199488204 l0.056771881937067864,0.19657757892723265 0.1575476379374231,0.5676118135462527 l0.28313446045746704,0.6685626507901986 0.47481030237546257,0.6421655415886768 l0.625909864980297,0.5978561044147738 0.7473012209236387,0.5034989715335485 l0.8110244868634517,0.34719544629545923 0.7703493237297806,0.12333495921020983 l0.6962100266002055,-0.08069310329263985 0.5287907124667134,-0.2732850906190063 l0.3554410338975886,-0.46508607268060675 0.18308319148766555,-0.6526239514485854 l-0.04712398735895711,-0.7734904885332782 -0.2645034491911187,-0.7775925995997088 l-0.4362589120485132,-0.7201846839418246 -0.5816522240697051,-0.6288238166740047 l-0.6567595600141098,-0.5184175967570231 -0.6225260495037659,-0.358080774649747 l-0.26324301944421113,-0.17891599241852557 -0.001843847467046227,-0.0332835912936146 l0.08950179050793658,0.03505999585320515 0.2575067580544477,0.16316920515174488 l0.698017597085396,0.3447384833738241 0.8955832122160676,0.3753552139425062 l1.0707738398685112,0.30141490693588424 1.1862865686794912,0.13508754959561223 l1.2119387389114071,0.019627863477794445 1.1200931072593012,-0.11354891971175271 l0.937936007963625,-0.18135826291760532 0.6973377466020365,-0.24398037814901663 l0.40298938752994157,-0.1844094097918218 0.14844390740419225,-0.04819599525139707 l0.011900674506658193,0.0332701430687762 -0.03760927897565126,0.03461069613768613 l-0.052205562567537896,0.07404259581583804 -0.03012174554600189,0.46142289034557016 l-0.08270667491189244,0.7832679150537404 -0.04731618998318595,0.8669510483730242 l0.04114793243509722,0.9089644552285492 0.1319284438949134,0.9029090405122528 l0.23628261679611515,0.7856097221773102 0.28605026028490216,0.5573408005862758 l0.21760047948803143,0.2396893799464068 0.11458704633449208,0.03153873980439676 l0.020769294471729496,-0.12870214880582484 -0.062165469142595076,-0.3940572739325592 l-0.0920243412920402,-0.7538797258649591 -0.1401856094197907,-0.8666654229469694 l-0.1493419262424139,-0.9316446781458733 -0.12729637299588992,-0.8861551283422041 l-0.06895177070377145,-0.8167040943330423 0.009579962247524049,-0.740141928167219 l0.1067781746674896,-0.6068484784769894 0.21457055202807868,-0.4540204705844914 l0.3421936033521771,-0.3082657456033355 0.493479043276628,-0.16112792498108694 l0.6425056457121574,-0.008194869356900275 0.7609375713304338,0.14239454272926502 l0.8090121151820616,0.2491566389141035 0.8231320977702022,0.31189900633806683 l0.8024931549205466,0.32269433139642817 0.7590623497512845,0.30903628470255984 l0.6792258022218836,0.2579741776525158 0.5842848420312999,0.19208182401279297 l0.480626612992651,0.11177864666010114 m2.040414094934785,-0.21653300520165336 l-0.060835853127900096,-0.026679113629135495 0.13904289905587133,0.12143845127820473 l0.07954698787686103,0.27270585309715767 0.0615712777073838,0.48238512863161476 l0.05454843503563062,0.6447026134348426 0.05919779841172327,0.6699633598904755 l0.06073850011243363,0.6351482271632998 0.07071180649629513,0.5407531261666595 l0.1160276531227645,0.39136880625759995 0.15640848880614847,0.19590760770473523 l0.15793792901800388,0.03244261814726174 m-0.5473607181411729,-8.812679290841137 l-0.18228313302490368,-0.7332665921371114 -0.06068968414232192,-0.6784995198696623 l-0.06854940965617347,-0.656330287417677 -0.09884648032144422,-0.5494291185592701 l-0.10164025417946844,-0.43438169340942967 -0.09400196366143419,-0.2552457156066388 l-0.0021701082589790626,0.03863931452188537 0.05943368762466186,0.17075359822327885 m4.509335041063549,0.2128757537001639 l-0.013684866974496664,-0.048656046313485135 0.1439045816858775,0.18234041329718015 l0.07145898038618431,0.4154955445381508 0.25785762069984763,0.6769104002898685 l0.23776514829685305,0.8013105989163696 0.17595255368034737,0.8670430183966241 l0.1142199786196826,0.8970085980284719 0.2010410429049711,0.9984745978719287 l0.25844326608969814,1.036072611864255 0.2566542327221358,1.0144187212147717 l0.2599456308330259,0.9299209119021145 0.24479091161952196,0.7839937804881059 l0.16017025712694147,0.5552033780140166 0.10993974655426009,0.30372196423549236 l0.08007109917094712,0.10633718226675724 0.07045795758327036,0.017705008458882517 m-1.7344367504333704,-2.898576736525308 l-0.018668316342993905,-0.1067963019099526 0.042301364427262886,0.05295192462356453 l0.09608630092111206,-0.018503591593698795 0.3400021792227677,0.024288356358374744 l0.766270279942191,0.1769595145907374 0.9351823926533331,0.13165782378458413 l1.0661023854811678,0.08450579648723551 1.1309341191917848,0.037534054317854226 l1.1191443206182188,-0.04860419776449221 1.055040478776454,-0.16469226787508226 l0.9451795221658885,-0.27910119274467277 0.7300645112122646,-0.3858937620944694 l0.4156712888953887,-0.41465687755949787 0.11633929623475014,-0.40166345214780536 l-0.16706560555078556,-0.41079553958046466 -0.39164751758367833,-0.38233673576195676 l-0.6001760362122203,-0.2847551108037016 -0.7730560900325585,-0.12892192611232428 l-0.8090043663963609,0.0884576961852991 -0.7922047377443708,0.29641857729272614 l-0.6528074740070817,0.47914892443160356 -0.4576017856986043,0.6397197843500154 l-0.17181418839409746,0.7635987998043642 0.18406692146516238,0.8481963873261192 l0.5613129734120336,0.8235650658290847 0.94097298388265,0.7420062421681901 l1.322534918699471,0.5940005182820858 1.6484612225842186,0.467006653720011 l1.8618005515907308,0.37746196981652796 1.9139568805632814,0.3414659499674023 l1.856935262642195,0.36832219357639945 m17.194541931204192,-13.983961105245518 m0.016424003938085505,0.9366710185279704 l0.2546890972170205,0.944024860813406 0.11083604388213787,1.0914133785937805 l0.25317949044452526,1.3853791954543837 0.3190236389066254,1.4040178060889492 l0.3857852221544834,1.3544082641701518 0.38924047347319735,1.3009892701808652 l0.5328065158467401,1.2735791204561584 0.5739623309504149,1.160536050771195 l0.6132763623269627,0.991969764304256 0.6296913026598485,0.8062884212097851 l0.6077362296952498,0.6085296870360396 0.4964094162025685,0.3359883130913772 l0.35324770201349237,0.13328295953816946 0.1794232428346825,-0.0008560941295278808 l-0.10721500216308366,-0.16858927911717117 m-6.123989581916507,-4.672072410673493 l-0.13910365113398923,-0.14979131513052907 0.20281742517033222,-0.01086599373089329 l0.2701960205332277,-0.15004941828045285 0.7084231377686697,-0.14274452615944644 l0.9971063734007386,-0.07989378271027857 1.0802754163797075,-0.13580533850279797 l1.139074444792904,-0.15242640688750952 1.0612248180621908,-0.13936799761026167 m3.700070619477467,1.6674585342857848 l0.12401176236508052,-0.004932791159875234 0.2212307305979307,-0.1253740189362914 l0.46519112585328615,-0.32045391183748806 0.6299634574366371,-0.4416612685527138 l0.5434788464537086,-0.59382140636038 0.42886918783907924,-0.6226136089262475 l0.21253669260101735,-0.6005896327670451 0.004070002560546187,-0.4887781439962035 l-0.17462845143796538,-0.3986922206458349 -0.37692874668066506,-0.3198429942049301 l-0.5567580460939708,-0.18618430201754063 -0.6754750013544008,-0.016739934537117175 l-0.7283932566253462,0.1581707746685663 -0.7171497940498353,0.3154249787430495 l-0.6043579576643916,0.4650284947343924 -0.4483482240777421,0.6167019009447378 l-0.2735845745152996,0.7148538826425554 -0.07566264260191287,0.7722535132885265 l0.1992625593226019,0.7999156714460719 0.46515777708463224,0.7936395404220971 l0.7018615006484595,0.7305709123426831 0.9116808770372798,0.6257771848640314 l1.0738676786886698,0.4854855836023082 1.1977531908936248,0.32645064586535383 l1.2596813440450103,0.13780230275547578 1.2407176494119079,-0.052665114373089905 l1.149665832371575,-0.2384185641290996 1.0620168447373315,-0.3603346943915937 m1.5945010185972484,-5.0978055000430444 l0.02753042615237932,0.009430229645526013 0.0872566625826336,-0.05388729996966567 l0.13429555277854655,0.15650355812672032 0.15460279581682296,0.23346871144637846 l0.368277222010977,0.5195772648235335 0.4548412859751792,0.6588144301551225 l0.6034029127108138,0.745525300739203 0.819146335231368,0.8030768034017969 l1.0016944409115367,0.7716254592626421 1.0587861539925016,0.571991622421616 l1.0806092024846952,0.37350702284476717 1.028107643176964,0.1885476408628897 l0.9397357105514265,-0.07098826013360814 0.8314720987995822,-0.3442035017670291 l0.7489132881009531,-0.571064054739432 0.6205310224292815,-0.8658087850751891 m-3.39729952796769,-3.078941345289549 l-0.2806851268999103,0.18909922229535328 -0.28743821380270534,0.6654323935545868 l-0.6125720142548476,0.8278075456379291 -0.8108333348487092,0.7866613269345338 l-0.8570002317061621,0.9727436898767317 -0.9372349380310329,1.0279253721542823 l-0.8439058662169339,0.9974832534494116 -0.6823784112389828,0.7836468815207785 m6.100434302981514,-8.260228157080773 l0.14484822759051078,0.31807303429400174 0.14126065372022972,0.6828393938145859 l0.19199176120334388,0.8419396876013173 0.30342602733794294,1.0514179468897986 l0.17010216407238954,0.9335532191018857 0.22755326310173588,0.9660035968213275 l0.12018200012298985,0.9041103719830695 0.15005397797211262,0.7491796017875539 m-3.133501052768724,-3.0378503800036185 l0.20029087357036132,-0.02780872582135549 0.5080280305793233,-0.08230986437315843 l0.7812834977693824,0.052135698613242035 1.2028310299421223,0.1226607782875402 l1.3679261207456401,0.09657062594889819 1.5351876020247102,0.05490832028409455 l1.5452944039960566,-0.052021719419499554 1.4817202091797692,-0.17107427112142232 l1.2683221102433948,-0.263071596642675 0.8311256766110678,-0.35128158330968834 l0.41043344141046956,-0.40084221972078216 0.12706802781628698,-0.4632656870534832 l-0.05023384458898638,-0.46655952938763623 -0.22360043212705807,-0.42233493931353666 l-0.33103039873756435,-0.3462736010734699 -0.4394928516543464,-0.23198588199646616 l-0.5098037124910827,-0.10810467595307394 -0.5299265980655766,-0.015815759104183428 l-0.44775655849546864,0.06963423627472769 -0.30871745931403527,0.17248706520371895 l-0.11731068802285195,0.24307620532582197 0.1149031370554895,0.35514506691223124 l0.34630256896861805,0.43140006049946056 0.6273672581532229,0.468707889403037 l0.8926128744468852,0.48010626434210846 1.045787334472614,0.4483517110745148 l1.0913881062607365,0.48539975281938785 1.082503795498522,0.6086494921649027 l1.050725102442675,0.5204879046192886 0.9709708689012422,0.6934306620683048 l0.7351642249503472,0.6086784004328343 0.5765260460798235,0.6039187311331811 l0.19109027079386628,0.4935843645475958 -0.07664877907443834,0.40058395241854466 l-0.439031004967435,0.32062044742656054 -0.7461217046909928,0.25030818570190533 l-1.0065944194067649,0.11387995644494157 -1.0665471553234878,0.03545659787708657 l-1.0670390128296285,-0.028762651806228334 -1.0099859237642128,-0.11965062461403263 m22.207405090304157,-5.968500137380356 l-0.34893995506956693,-0.24941477184403527 -0.4626403749580182,-0.1986050757200701 l-0.5357698199627365,-0.08030892903062471 -0.8319593668154531,0.10766724495933663 l-0.9352957605503984,0.3024855555371203 -0.9633575677455911,0.5637683867982157 l-0.9445841907580431,0.7904904484196422 -0.7723969817879743,0.9464622141761109 l-0.432038962842981,0.9035683871325021 0.0006178988261664602,0.7914485335657141 l0.4312674700297024,0.6310412288126267 0.7535830735741607,0.42801380151291135 l0.9655953050524488,0.1850613057619088 1.0562350749691378,-0.12233312427222914 l1.0429682730421828,-0.37495508791753596 0.9229345321748468,-0.5973379612360349 l0.775049626810542,-0.7341777086832261 0.5809620024996662,-0.8343116045033717 l0.3767953216674409,-0.853756606860457 0.1707667707753362,-0.766819238730961 l0.015198029686170803,-0.6093603968088497 -0.09639456873304857,-0.4302978515026163 l-0.15680757174697624,-0.2756224871330787 -0.017674673516266386,-0.031032994596168328 l-0.034098722026187966,0.03678035739851454 -0.010381348419622453,0.09496626248278635 l0.07183696348743535,0.42951422936137085 0.08861907568438156,0.8021115064970198 l0.2110372485869516,0.8658956885668585 0.33759588010090263,0.9041830896934907 l0.43717953550302174,0.8732525109515996 0.5041401387400443,0.7767212986209099 l0.5306854845199188,0.6410932539500127 0.5217019916653773,0.45606982694876413 l0.46861672412746486,0.26013416052376864 0.40719667093807155,0.0640668571320291 m5.660801887454203,-5.030556201773303 l-0.17230585221185069,-0.27936562893992006 -0.3478556275747208,-0.282911747831833 l-0.5680688619644134,-0.22693353890636592 -0.6963219642973069,-0.1122785509653436 l-0.8218320012631716,0.01559730153298448 -0.8298475742065674,0.10567177092609649 l-0.7090682387344948,0.21509471532691188 -0.49637618661293165,0.2811765372256282 l-0.25035139911887805,0.3544880152270521 0.05268175151190342,0.4318600298824021 l0.38368445627891606,0.5059580207656931 0.7270535231289699,0.5393513441463542 l0.9535155889706133,0.494861930554679 1.056771755272852,0.45300811508734806 l1.0659378765283154,0.4372124669991694 0.9398803113599818,0.4459381998502905 l0.7321275471881482,0.460515201008722 0.4846949874306201,0.46373322605035516 l0.23039227722929456,0.45071026673256254 -0.025460578738022092,0.40790325384817416 l-0.2791925072565712,0.3549146356446352 -0.5356506705079749,0.29930028325000146 l-0.7281851172577227,0.2213156820885711 -0.8290319441238685,0.15632355219740135 l-0.8010669947368799,0.06586722285163028 -0.6910971403346644,0.014401251596963297 l-0.5017431973231475,-0.03402433906543864 -0.3513375818854126,-0.08842177688834248 m22.39798164377355,-4.1925530433327465 l-0.021388044810972826,-0.06939002874337462 -0.12417325373275546,-0.0736683160343408 l-0.046970173709675454,-0.12066373222098589 -0.02628169974155383,-0.0075811072918587465 l-0.053703561411341326,-0.06904122234492392 -0.0703681558960783,-0.05539751065434286 l-0.08275558040732109,-0.03414724759764325 -0.11013923595991,-0.02394086140664987 l-0.25259256361654736,0.054711911911082926 -0.3173767329990934,0.19682741168552775 l-0.4398528338311504,0.38433915373534644 -0.5612237453342735,0.4438809156017619 l-0.4801385700010081,0.5244991183710567 -0.33134117710029737,0.5002456308092954 l-0.1200151443419811,0.4695845246935459 0.14486859739450558,0.4314081072305356 l0.327633559575449,0.30993646368843825 0.6214536429023472,0.23691256328627835 l0.8264629840286075,0.05257733908733515 1.0418739319840107,-0.16041898729244125 l1.0747150183658025,-0.3777247667039089 0.9742563366764784,-0.49084806438017947 l0.7743530870519766,-0.5136120320287259 0.468832463094006,-0.49785596151366435 l0.2161537408982851,-0.4318411348824173 0.016002297337593903,-0.37246918680580154 l-0.14803713556566178,-0.3206790685668292 -0.2601461112359495,-0.2793787419912606 l-0.3235257863527913,-0.20516374719558206 -0.13026502719521102,0.004084877600186415 l-0.12388685351365186,0.06924518938411021 -0.10710823547535994,0.10634725549262507 l-0.08088084322952574,0.45812794553094915 -0.024581644619389196,0.7293542622975606 l0.07734388855531037,0.9576974510065549 0.16580197218225645,1.1481122968574484 l0.21314205222003355,1.3154627084517387 0.2289056776275707,1.477513074871371 l0.18117050811457142,1.5798242092242791 0.06318327779519413,1.558409571514313 l-0.08058069644489096,1.4018117190340502 -0.27817651632627655,1.142884731300477 l-0.40404766778201684,0.7978211044633702 -0.5385782720434243,0.4124695061472277 l-0.6563255785569195,0.04000187662260025 -0.7939755319893634,-0.2557450829247167 l-0.8551961780330424,-0.5678828954660695 -0.6842646599596751,-0.7250937818865684 l-0.5275267361050356,-0.878756463392029 -0.24061118062546985,-1.0561723710529978 l0.0190377030237052,-1.2569890021854697 0.42783093447493387,-1.2559958696062705 m8.500817298854228,-7.134644985228868 l-0.053932346472026084,-0.07137995220242384 0.01350056189020973,0.065841511165086 l-0.005341440380183407,0.06359954934773789 0.049197077658796516,0.29612395193359725 l0.02969137955277026,0.3969772756474489 0.05272137002131785,0.5081665514699103 l0.13611805445866568,0.6530761719968811 0.13849018515342573,0.6590378881237797 l0.18534211812313167,0.5899354815718388 0.21763226384416415,0.47906807069433927 l0.21712495383251373,0.3117771744200123 0.1762848198484662,0.13093680132980204 m-1.974872350668009,-8.609447479403974 l-0.1315977425374763,-0.20391260100083689 -0.1515769513323874,-0.20274177194583504 l0.08894840624187075,0.06692483269179965 0.1159052774492113,0.07154329880594054 m4.945293426534002,4.037667751458116 l-0.044355667846112765,-0.023024991110122475 0.0012558175878155267,0.034966733328527615 l0.007748696829640543,0.19320572927964264 0.025565247937496833,0.4202272892145514 l0.1587265581116649,0.5110518332930538 0.2898256779724131,0.5996327996791759 l0.39008343215067254,0.6726670859843655 0.4533224406142096,0.676316618843059 l0.42841684804513513,0.5624126792927113 0.34744518993691414,0.4843348562513092 l0.27000150100716147,0.34141698488319344 0.17052136353543224,0.18163153524486766 l0.044028081036306545,0.004705026754221367 -0.043265253443926406,-0.12105579675572396 l-0.016914071289655417,-0.5076038241788582 0.10815690468952281,-0.7563154697723222 l0.0919667781458136,-0.882115185455726 0.11379313469243493,-0.9161401988412385 l0.14465078707992277,-0.8916155101033525 0.13707289096396996,-0.8628687261446601 l0.1528666020838451,-0.751600265428623 0.1556992232960658,-0.5763693451126359 l0.14311584831615906,-0.385789096285691 0.14194905759857845,-0.17449955641498985 m2.2821760177607513,5.2666511536069605 l0.3183223008948955,0.01758681603077355 0.5729482770408247,-0.27405932547800294 l0.8757860659118216,-0.24326209729441936 0.8193555475320509,-0.4402257501838812 l0.8918348550561315,-0.4737427830132653 0.7733519077196671,-0.4763945340693311 l0.5831027031327265,-0.4640088081565307 0.3691305815748571,-0.456371873605552 l0.13569450387173163,-0.42798644307387607 -0.09093572200366754,-0.3700942992615966 l-0.3476049006914195,-0.3092785478713469 -0.5916314123545172,-0.20846346016847853 l-0.7859876155565214,-0.046436026508455006 -0.9039193390902746,0.10825961838341898 l-0.929333984905786,0.26192831980454784 -0.8811051844482942,0.39025720953945825 l-0.7220916151709145,0.5043277143680426 -0.499361365951267,0.598920881786281 l-0.229302152988473,0.6806234717465529 0.07674667969531968,0.7147545216780583 l0.3992054760824951,0.6903991698520443 0.7205055952161331,0.63963282105889 l0.9940340518815755,0.518566191329784 1.2053947448206974,0.3479931950152307 l1.2888664006550679,0.15605165069027743 1.273843884363988,-0.01845807394064539 l1.1714601517569219,-0.15220351517773253 1.0266240835023293,-0.25533729787393933 m2.4717004298582226,-4.6114516257172635 l-0.05404462676071085,0.02628134724901338 -0.07874540223942764,0.02232229731910538 l0.029926713460071516,0.13376823076080246 0.028562525339337893,0.4745817482817171 l0.02659812554736594,0.7311938404806511 0.10518530741412586,0.8220130205422849 l0.17215833057113414,0.8490335940926601 0.14857423296124636,0.7609465717280377 l0.18980367472424517,0.6399220227640624 0.15038564806817034,0.40271896118068673 l0.11600793148223555,0.18947201979170075 0.05623953054945719,0.03211573884953929 l0.016289364603584145,-0.09847278893091155 0.011537588992561274,-0.25099891410302627 l-0.013711202812501308,-0.6825531720090994 -0.002614993475737785,-0.8160818816170078 l0.05289957679586881,-0.8090996144807497 0.1245512217954414,-0.7772379515376888 l0.20005118856977913,-0.7166821957542185 0.2979873120864551,-0.6373530029475786 l0.4125878216695038,-0.5229083896424032 0.5283573268777774,-0.38707360642406496 l0.6369881036189647,-0.2193318008445273 0.7163006068834256,-0.027736062186193327 l0.7508233187195305,0.18114477406641208 0.7237917780024907,0.3548752067119964 l0.6607147455461473,0.5052061677631359 0.5755716560383908,0.6211159824998366 l0.4984381794880799,0.7047958374504596 0.41049075123146817,0.7710713149713305 l0.3248851302635022,0.7661045789022891 0.2518483996435279,0.7348018884496411 " fill="none" stroke="black" stroke-width="1" /></svg>