<?xml version="1.0" encoding="utf-8" ?>
<svg baseProfile="full" height="89.20216691091304" version="1.1" width="317.57231553316495" xmlns="http://www.w3.org/2000/svg" xmlns:ev="http://www.w3.org/2001/xml-events" xmlns:xlink="http://www.w3.org/1999/xlink"><defs /><rect fill="white" height="89.20216691091304" width="317.57231553316495" x="0" y="0" /><path d="M30.702031815061105,45.76250878381786 m-0.14757846331458044,-0.08420767187981207 l-0.06393159719743494,-0.09914848825058745 -0.02209817577262894,-0.10501023858404275 l-0.21268980157024547,-0.08952177560573105 -0.32360876836319763,-0.3269430258183744 l-0.3070871176342436,-0.14859437173457066 -0.4620143323415246,-0.24552161692614938 l-0.6542980207434143,-0.05852154598059564 -0.7525474959630574,0.09261502139499635 l-0.8114786566993829,0.31700079322717767 -0.7403875931871187,0.6340647838480448 l-0.6604590157560958,0.9267874521777455 -0.38487904218161423,1.1742619032746873 l-0.15897373433656523,1.146605794664341 0.07368347008333123,1.1617241116068702 l0.250455319205377,0.9522686663715241 0.47516704756576567,0.7073420956681653 l0.7853894628711409,0.5028939570061528 1.045870959377217,0.24612294038681887 l1.081201776765832,-0.23224764172601567 1.1850520545905947,-0.5271380517606775 l1.143150547316118,-0.776577831087652 0.9578622010569334,-1.1369041311686026 l0.7293641355012879,-1.3263130166046109 0.4872704760150189,-1.2326715568870923 l-0.06603814547023915,-1.204373959159511 -0.21728709988827777,-0.6936162870501907 l-0.556900142827913,-0.5280497730640453 -0.7257038202372464,-0.3379418007189435 l-0.756763212983743,-0.04559865785498356 -0.6103455893524384,0.08623558320479327 l-0.5212689969448079,-0.05065625313313671 -0.07603608722774063,0.05312316117785215 l0.0617709074018453,0.05715800169204341 0.08732953551424916,-0.07174632936860623 l0.60947863291392,-0.120031819469856 1.1914454938749177,-0.22211786296710206 l1.4893533591983563,-0.49843250335026995 1.5906143999374904,-0.7046588286373398 l1.5914390419093691,-0.6700553378167969 1.335045820835537,-0.6330950305165469 l1.1617783200296685,-0.4769520485085741 0.8776286600072178,-0.13306648784174047 l0.5565195320912613,0.12787459265745804 0.2788204355470233,0.3947310670097868 l0.1391230069025568,0.8193689164143833 -0.03767782999862354,1.396062585596186 l-0.37789586754929233,1.574769385108426 -0.37530962972801957,1.7733700908977972 l-0.33815174052834684,1.41495641073033 -0.22001908267606324,0.9502760254612441 l0.19610561872305357,0.5115913400585653 0.2350735531007756,0.06934124489271754 l0.3780312128425359,-0.2505271814919806 0.5814932508514122,-0.9299119681030167 l0.8539943407669853,-1.3895771233540515 0.9480365749714135,-1.5542254094352024 l0.9386119436300798,-1.4045451860896068 1.087006865867728,-1.0342919090729548 l1.0795995683640325,-0.8389132740345816 1.0017266526853486,-0.5905314602328279 l1.0893351256738422,-0.3217541835654477 1.0285572933555815,-0.14151165976696123 l0.8339223945011776,-0.02585330075158096 0.6349775373130148,0.05802146578833188 l0.49396418891922345,0.21291859913320513 0.3430530816877218,0.13377277282687478 l0.32150799528393037,0.10684563282629131 m16.495561179065366,-1.5510244182373976 l-0.1300711674377737,-0.16523884850681878 -0.4482790240418306,-0.2929513705237736 l-0.6533206790485941,-0.14797009852550333 -0.8210071867912002,0.0327031181208886 l-0.8300809106989635,0.46740850778481524 -1.1355611107452486,0.7516581761898378 l-0.971905227156992,1.1906627347267276 -0.8283876242391375,1.4489487016265197 l-0.6489161057086438,1.56044293921109 -0.16422341654579134,1.6863227824411509 l0.20878451900240927,1.3745868401905779 0.5592775659324424,0.9626766045065163 l1.1865623889496766,0.47447362280993244 1.5957840912197416,-0.03976497744390815 l1.820693407542692,-0.6694947405788203 1.735153528030005,-1.2922089861521737 l1.8671553160528636,-1.6029781057552615 1.601210064169771,-2.017598002657786 l1.526309630565767,-2.2878724290224235 1.3171476818820822,-2.3677633635508712 l1.123566871093224,-2.448040704749095 0.8540282311124888,-2.2922840039377657 l0.7774297847699358,-1.965947675163927 0.5462834058417738,-1.524126481580285 l0.20798582291749018,-0.9392306010423124 0.0397811675130969,-0.16604928460830207 l-0.1089963748818025,0.052328665050572556 -0.09164291024444497,0.18663159240434504 l-0.18505921123806368,1.1857115031413286 -0.270658182156684,1.8829021040795322 l-0.5689173977902937,2.4563228884826076 -0.5468597124227574,2.911600123006202 l-0.7496010407515374,2.741813994252209 -0.39605029437938044,2.760693244438765 l-0.2577558898958745,2.413854952095808 -0.005514680883131826,2.033149447346068 l0.161875674850879,1.1247097037738534 0.4360446440026329,0.3910651715289556 l0.45243332176128126,0.010341871677917405 0.6973346311115687,-0.5143253232388989 l0.8959324319723659,-1.1526229691014385 1.143238359706118,-1.6233623547574023 l1.192302478064946,-1.8780125902939568 1.253389061855931,-1.7186727507194812 l1.1322659720243193,-1.4330217467441069 1.0524483686534354,-0.9297095964023834 l0.6629496560755536,-0.29214057561032786 0.1811934273028259,0.11012393075582888 l0.18319396836885904,0.7477287792268955 -0.028963843975831544,1.204523334163028 l-0.3489144925747573,1.5592219137896353 -0.15449811211605216,1.668725604545503 l-0.034358830639800386,1.343419807903749 0.47818060554628694,0.9207823491306993 l0.7392938848227519,0.3802473160547899 1.1084557371432386,-0.018849541434420553 l1.3810679752565354,-0.579585601529461 1.6886241917482152,-1.0951491384755287 l1.8597426411766744,-1.442913951087589 1.9263713429902078,-1.4924603312148257 l1.8830260594032928,-1.2470503523502159 1.4121950693052454,-1.0441399041182355 l1.0532107872208754,-0.6950717715336927 0.5963291527960417,-0.40645599604643085 l0.19430742031817883,-0.17058289418497774 -0.06683622800189798,-0.02900439034004688 l-0.32822506466763607,0.04380168320536135 -0.7408922007224924,0.13583476576925999 l-1.1332373852093338,0.3150948240703275 -1.3349580957996479,0.7084576895348152 l-1.6265304784659433,1.0655969050473606 -1.5716967180175527,1.370535908193617 l-1.265279063491309,1.7194871654380153 -1.0577660952003736,1.583016918974491 l-0.5156640111033192,1.3349378590533687 0.06758052795458293,0.9318921145782157 l0.4880161831555918,0.5464854998315172 0.7628186956770183,0.10633931919903337 l1.183994900685338,-0.3295811532165004 1.3478266715082572,-0.9059952566608628 l1.488961079779858,-1.3145729474585894 1.302633849020927,-1.5907230609077188 l1.299348655678342,-1.4662143836995942 1.0542443845430907,-1.3666632128003924 l0.5091611859534543,-1.125511832760223 0.19845418053802033,-0.5859127300854764 l0.007440820147787278,0.00012938606126142508 -0.0216180664504863,0.0009375167352292486 l-0.12906213560548666,0.1315189584620143 -0.207504743121334,0.9824092467623733 l-0.4706628576098091,1.5150097500077264 -0.3931240756129234,1.676375101084269 l-0.1731780983522688,1.510453563191842 0.13276440439215076,1.0345743797061946 l0.4655159295328634,0.5983875868291265 0.8498032280360381,0.27576703737825614 l0.853632970858929,-0.26011115732438145 1.0807855390630356,-0.7696735078620158 l1.2490878395638496,-1.136647595865275 1.2664135456592935,-1.5078583820060478 l1.03417998391427,-1.7401244855841704 0.965525009652066,-1.463931813948027 l0.7433519639059377,-1.1339387374894927 0.36689792328058873,-0.7134526585565357 l0.02488215995402613,-0.15256949471221662 -0.08492790285401614,0.08857266841051598 l-0.13512281594957518,0.17775550610557428 -0.23777143141064577,0.9694035825098163 l-0.39583314421501437,1.5356530003820101 -0.48283161306411526,1.7106957128195264 l-0.4670802077523525,1.7207810392703164 -0.27331091829857906,1.5677566903664868 l-0.220316081826632,0.9252778173984467 0.11093438640939798,0.560528381605495 l0.1323075963381632,0.1350195018482347 0.16829340914562302,-0.019952200650760574 l-0.07801934124292317,-0.39997016424344095 0.38347141216828046,-0.9168304025534808 l0.5503225184441233,-1.4674782078569435 0.7967057701938894,-1.5733723263848174 l0.8364383917895785,-1.6920184350040504 1.117725248225672,-1.3134878823322942 l1.0256558681515358,-1.068778498441362 1.0007919166587331,-0.6678754704547847 l0.7899832119114997,-0.2817146411748131 0.6326958168672476,0.17518678046912012 l0.455656757411558,0.5316490127711868 0.1948261908842162,0.9482546436259658 l0.06396254801015727,1.4176209416486982 -0.15042340030982498,1.450558674603544 l-0.12966911954244906,1.3649580130975987 0.05808917525734013,1.0822903763312002 l0.3318967341075054,0.7493503763508821 0.5836099205697656,0.3565786494817042 l0.9430484176149936,0.10971046451979206 1.047312957355022,-0.3226522244852983 l1.232642347544445,-0.6709839983135594 1.4006350677543733,-0.9372033562015388 l1.5174879466747453,-1.1164766106447273 1.5677835224173309,-1.1714476682996149 l1.3117065956890428,-1.0913734206702868 1.0653280770421862,-0.9846391193805399 l0.8680217702395219,-0.6933016593599278 0.3390753045763477,-0.3588462741701914 l-0.11912052279225858,-0.08230485169309647 -0.06969334411954767,-0.01631772958150081 l-0.5279567023098244,0.17481697492520074 -0.7306285482053622,0.6293411390202753 l-0.9497339433421185,0.9805785305498204 -1.0464531139511235,1.1831947645761485 l-1.0007373473546368,1.3371891764729142 -0.7099929149277342,1.2567561865396109 l-0.29442343983491637,0.9161191624039335 0.1200569231516768,0.47272790475142473 l0.34797670674755504,0.06098406021251278 0.7084793699144628,-0.2505550076117725 l0.9386038425286802,-0.6518032361703486 1.1330054939051561,-0.9784168801263333 l1.0522266201090327,-1.2059706306591749 0.9114472935925756,-1.177895548239223 l0.4368212962553269,-0.9468711881856353 0.15206431115061195,-0.5834830283999033 l0.021831785343697604,-0.12463762096400094 -0.12881806921062122,0.021380295375711775 l-0.061263301976301934,0.1527911377142398 -0.30029798753587844,0.6904986952783944 l-0.29343999831976086,1.3141881001464892 -0.2862495945068548,1.5439399470911543 l-0.20117350938623232,1.8690361772364001 -0.07111932738105406,2.1342018710049886 l-0.06760754836525014,2.3034189761605464 -0.10178985847825733,2.474269292531249 l-0.14655317483847807,2.384276039384462 -0.49648720240920796,1.9857622328703033 l-0.7165762447744849,1.6514510636497584 -0.9205932161411011,1.3677423589987248 l-1.0652403502456445,0.9213591517042299 -1.1573244344394342,0.42564132850343817 l-0.9206890491525666,0.033736969231991217 -0.9700029931468046,-0.5328087966116536 l-0.8563061290415341,-1.1790243893763248 -0.3229089594040626,-1.499167964999673 l-0.07551273636300822,-2.1007159870098313 0.5236397074056547,-2.3493202783724185 l1.0891206614651228,-2.2495935454717957 1.501510469853107,-1.844936511106336 l1.7379811575690274,-1.4613596897516563 1.7325538796961824,-1.2536033753884628 l1.7370762690630053,-1.1381879378444328 2.019043870018787,-0.9710049559949495 l1.9344386139721423,-1.0217917502766354 1.8117489851449717,-0.9729599228624722 l1.288442090045114,-0.9851687207647446 1.0854162963387628,-0.9535068308434143 l0.6388127945603863,-0.9363704812067354 0.29007107765631257,-0.8856186861198869 l-0.17574725320526552,-0.8534612275613793 -0.3322483464716033,-0.5435720576059128 l-0.5332681816148126,-0.3391088705629949 -0.870052900075912,-0.06876720420656143 l-0.8972920363219762,0.3906792806611891 -0.9448278558251868,0.8557448992330059 l-0.8998528176397774,1.2232763006201337 -0.6465886463245378,1.4333211561793522 l-0.08026036609643047,1.4078127704061243 0.41556602396642056,1.160159956447765 l0.8590281335664671,0.8497547738759138 1.322359603429277,0.560728392754627 l1.751616783916407,0.16784475751001918 2.1895582217666902,-0.12031274355579749 l2.047612639806103,-0.4213294328336853 2.104304841658709,-0.24482772355721014 m12.54333410236826,-8.159321879743356 l-0.033687661100887986,-0.013320496506995698 -0.039687521699731595,0.24113376627752106 l-0.07659227608850791,0.8043126153325617 -0.24616304077733742,1.0742254700453668 l-0.04240795326601947,1.3550512077635732 -0.08904416806104755,1.4278680247734354 l-0.03685714235989748,1.2253521564753584 0.0853422455132824,0.8568224336197087 l0.26357701573501413,0.5380971573337711 0.3238658036504094,0.20913332858332623 l0.5390809205150654,-0.07848465102043681 0.5912083161364994,-0.535821424029587 l0.5362148571135361,-0.9544424565559129 0.941282223469986,-0.9422443220039959 l0.9095452454898723,-1.0262749086028116 0.5518583904110776,-0.9820244209426563 l0.4512335140532554,-0.6104392469026783 0.18482575625138634,-0.2112983275567074 l-0.04638923895115848,-0.01962448809361101 -0.03428284847461305,0.07912243290606293 l-0.19332685422650248,0.4990824171989527 -0.16955943203808613,1.0320790638891804 l-0.12754607746928126,1.1777705289119862 0.04251990503102595,1.132898815291797 l0.3514536593075514,0.8293747960531245 0.6300703472939412,0.5151378812764599 l0.7299931995657507,0.11699478667715074 0.9112683025601996,-0.15033855407594368 l0.7101994042199767,-0.664941222207992 1.0188740245882366,-0.8802033065546839 l0.7885029819942168,-1.1577046167297194 0.636264550386017,-1.253536314435881 l0.321644809330936,-1.0804555343491744 -0.010499735754241318,-0.7836616162678103 l-0.21458680561659327,-0.5602686576225228 -0.338540751367285,-0.39876971141540624 l-0.1762486245613662,-0.18744766469814655 -0.002320354241833648,-0.0013457369802985673 l0.001060906073159654,-5.50609888935686e-05 0.281868463217232,0.08270798108037967 l0.4786320922693702,0.10581471373456618 0.9376832139624873,-0.002555529690889513 l1.3177540713325546,-0.17347402337683393 1.182318785406432,-0.3806265802972449 l1.3327035602833135,-0.38565034233633316 0.8540196042173327,-0.4126001643705379 l0.5342173795595365,-0.2449557268987686 0.10239987415414459,-0.01862924941423865 l-0.08178831270968395,0.08268972682566555 -0.021273072192641143,0.20216690184572578 l-0.17024987552451962,0.765090619956829 -0.4034929953454185,1.2653531114208045 l-0.6396663084922218,1.3928009848907397 -0.5143511747375994,1.4920485770394099 l-0.3641682787758814,1.3979473566300042 -0.19070113708123937,1.1434945781442347 l0.019558267487525864,0.7699694205288824 0.09594516065144124,0.2330900529801921 l0.03301862018996505,0.0007435058092678184 0.053239417109920535,-0.1845262382244433 l0.053925196603588244,-0.42508248582290364 0.023706266212908837,-1.1362383273895866 l0.11126180140885,-1.3800378667640152 0.3470577709794573,-1.4159041683676516 l0.4274358236703632,-1.328732155067861 0.6257806969196473,-1.1005246675919287 l0.427370478468153,-0.9413455515481923 0.5977057600449482,-0.6210987822792727 l0.7152329648976414,-0.3265467754702166 0.7340018363887502,-0.11066969421042827 l0.7360611036914209,0.029680203033171343 0.7021977219161054,-0.0012074765819810706 m0.23920334263689647,4.747670792594717 l0.15545158730083952,0.11121604875843244 0.4008428156754874,0.01988656592698317 l0.6027502816339012,-0.23104732296868613 0.9435724144360916,-0.4217630004183327 l1.101333150813532,-0.6556670902059125 1.0739760502467872,-0.7225689223473176 l1.119304456539917,-0.5599354093210281 0.9544244778644567,-0.35522807269837475 l0.6358649458861654,-0.12334474299689573 0.4604675701106972,0.2014757060687864 l0.38667064123327793,0.5542248986732246 0.09705650912243059,0.9380178141716325 l-0.12439899907763734,1.140344769265089 -0.17914323988008152,1.2930026921688789 l-0.20296032293768018,1.3580004772071428 -0.14737661649937273,1.259635356011125 l-0.21958662775128845,1.1054794815119964 -0.15983103934306842,0.8607047878047359 l-0.02229343669485516,0.4857985906027221 0.12902569455900084,0.24118088966785645 m3.6852657457348994,-16.649616856055893 l0.29430398903908905,-0.7166047031198997 0.26649532880177956,-0.13277513124308904 l0.12099574361461624,-0.13631222600078427 -0.06990219592528298,-0.0011132659945829594 l0.004880429491969131,0.12508935621708608 -0.05945264392915557,0.5056498908023684 l-0.16939391542177223,0.8000706874747353 -0.011643172375571012,1.0725540403482767 l-0.01925821537074901,1.3280260853509758 -0.017471714816558917,1.421580352749543 l-0.006573116598678472,1.4823132335316962 -0.06142592674694708,1.5318551898546693 l-0.10528773777610842,1.6011131299796793 -0.10845144772886176,1.60152901790011 l-0.12139055048388452,1.396175088906386 -0.03712443865381235,1.2950675843594164 l-0.06281167013977831,1.0532110805109836 0.03364371395074511,0.8316849806494746 l-0.03125896890377415,0.5934209123637982 0.028741499588203434,0.43822651499126425 l0.2234380105266642,0.17593956990085316 0.180686277545699,0.061497972279303446 l0.2481478777272697,0.00883105704389446 0.1897413824507165,-0.3250927477865276 m-1.9672242068938637,-9.17023208132763 l-0.1289771070637426,-0.5317575625660317 0.43323394561083944,-0.3347338734088495 l0.5952743304111033,-0.24921525945055648 0.7740725280181936,-0.29610153466112604 l1.0102299909036858,-0.14057581670365799 1.1039150577735424,-0.1919870047988097 l1.1786077215563988,-0.14376187387114847 0.8613399514919959,-0.22327776862958504 l0.886974892348285,-0.11963502549719135 0.6225279210285836,0.008818382614098397 l0.4232556747683357,0.09878807005823115 0.30260607192519684,0.0877759086972906 l0.3144426018181291,0.21693212873972142 0.2934192716501396,0.3608940502648511 l0.041222848630163025,0.4763337436898828 -0.1275678785307196,0.810931896951971 l0.01416840806173933,1.166155527469627 -0.18288278342771358,1.3066686056315355 l-0.009727910184781682,1.32118427463577 -0.0992677219912232,1.1801769547408334 l0.13692937566712649,1.0675490768850238 0.3545383592334809,0.826594032193101 l0.4214398475516432,0.5883754848042917 0.46121889637243124,0.29067322302352017 l0.5324934943036919,0.017524624132944422 0.44914851954865687,-0.3500549363940283 l0.6349837050934425,-0.7177070602615899 0.6919931511287563,-0.9812017534944546 m0.04376518124829354,-13.033390073342044 l-0.03744718127394675,-0.604336900919097 0.08840387859556668,-0.3239752810204551 l0.02315865545937959,-0.20480421432177057 0.12780988981633362,-0.009107849264366925 m0.956768734106434,16.12755860660295 l0.11722864960913215,-0.10412031958983747 0.05488947368605173,-0.3848899816328824 l0.3882803012165541,-0.8579527805563617 0.4645430559627014,-1.0963763059549814 l0.5414731130018654,-1.237195576187476 0.7176830052837448,-1.3068255300231328 l0.6454069629763334,-1.443946036717137 0.8606100605169859,-1.3840674268741548 l0.7627365608522259,-1.3722228924246658 0.7935982326481424,-1.2073559153705253 l0.7296329428331202,-1.0639910077852748 0.6321693568897157,-0.8474214443192151 l0.558892725856433,-0.5305333801385311 0.5010660284278886,-0.18107536305790817 l0.3065402611403671,0.0570480041488399 0.2910673697708162,0.3488538719460274 l0.08747046326409177,0.7610895152199415 -0.007631857400630028,1.2288041205809115 l-0.07101854926983917,1.6278877291536589 -0.15279552541377747,2.0013571625105637 l-0.47897742720569664,1.7856561445050774 -0.30387083069640214,1.7741032759895123 l-0.3721816023788142,1.2554941270226894 -0.21069994972650768,0.8768653349926083 l0.08701902049101264,0.4462554747585868 0.14222709105953235,0.0864445958354599 l0.12590378072860786,-0.09163180304716792 0.1859524283989928,-0.24510944861386372 l0.45672316099394294,-0.8806129867179424 0.6848076564530476,-1.3456597954809344 l0.8626653587587678,-1.617745108105056 0.8936136273389971,-1.6936251848608042 l1.1628705602731504,-1.4450496377507656 1.158566795580215,-1.2646981120937815 l1.155967698846161,-0.9986300931813871 1.054448462754026,-0.636004346032082 l0.7847380258998206,-0.1641983124468478 0.44215965980731087,0.17581659196329463 l0.3142042677364334,0.6067197235907882 0.058963867059035405,1.132180692810178 l-0.09488001664655385,1.5162868773949472 -0.26218089602327,1.7849192193638872 l-0.39123128247441763,1.8244823050101677 -0.22817470616604055,1.798981982250627 l-0.029294342424623827,1.2999931055657115 0.3779550364938449,0.9279744700604312 l0.45352242829246653,0.4167262610068112 0.7691221153242856,0.1142207073858827 l0.7950831246099408,-0.17977692237948198 1.0397715164877026,-0.5504617356656185 l1.2493136726950758,-0.9041510071888171 1.4338039888156213,-1.169912633993941 l1.3356907890065655,-1.3190131534546943 1.3997019715894372,-1.3029538831747445 l1.2423462391798024,-1.1557057994028552 1.2343940508168647,-0.983611096309005 l0.9559036335291068,-0.8625722866320695 0.6075417345586747,-0.6421874030581801 l0.23253462038771114,-0.2734444926839485 -0.1805259648544575,-0.10878482024330544 l-0.24267517810213052,-0.014496444308838686 -0.5082598511606997,0.09438758066875864 l-0.6902569276017904,0.38192255145353876 -0.8327559708536906,0.581325479623344 l-0.8724073209171186,0.802272006822202 -0.9036029763747604,1.0095994182423207 l-0.7414742339543734,1.1549425222372685 -0.6588403010920374,1.186158167193677 l-0.3176894748113005,1.127532849161289 -0.07422785521015784,0.8934503630431381 l0.2064331189119536,0.6022438574512282 0.45621491944643244,0.29324033446025405 l0.6919852324712319,-0.007794779562558956 0.7105239649732167,-0.39701266577856054 l0.9272576305438678,-0.7138049142999499 0.81568074029703,-1.0670219779755554 l0.8297841094443249,-1.1178813014223012 0.632612264224983,-1.1338086286312299 l0.3332594541640736,-1.0187617823098578 0.124465825042318,-0.7473706153032807 l0.09137847814898274,-0.4227623834498873 -0.05933200112467027,-0.20526372391468728 l-0.01300597433020881,0.00012272047180059313 -0.007699290085561666,0.10949147795120034 l-0.139565030842815,0.286247098351098 -0.07499580197498852,0.9272151331280944 l-0.08074154878039301,1.2562415545374832 -0.02010144881700625,1.4871039675597966 l0.021857639922939084,1.6776622931905147 0.11148140758196418,1.893182210703164 l0.10425328867446507,2.0952715722280635 -0.05091339441274958,2.2776859333678474 l-0.16420557548350442,2.314393335828652 -0.34431120037887886,2.4031551213413147 l-0.5595479943309913,2.2896858971269154 -0.8069239105584234,1.9310649118135517 l-0.9301335221787563,1.7215514060145454 -1.151979841919102,1.1970066814859102 l-0.9895535300739463,0.9745696224706564 -1.2560010851609331,0.42032036318739585 l-0.8935727229511979,0.044272296340332515 -0.6977490838647635,-0.39258321845096605 l-0.46198827658267033,-0.946803252973382 0.02879343056619156,-1.4065714941143117 l0.5897680490882522,-1.7709649474333173 1.1445921820843867,-1.9667954950378956 l1.6986266848593559,-2.0826523933410583 2.2652399661103955,-1.9850957532981537 m18.14796221433233,-12.651847391979091 l0.060312733895851456,0.12709607744756862 0.3930951616263327,0.22621801049344603 l0.7149885854188789,-0.06908555785726118 0.9376562998465623,-0.5078180187586542 l1.1261220059096155,-0.8859813775534406 1.167321422462004,-1.1603979095010184 l0.9922346659225167,-1.2785956216399428 0.9652732275806216,-1.1626089099895782 l0.8972600121369351,-1.0250923315564806 0.639772445578338,-0.8174939096186523 l0.5044037858735156,-0.5366561355641649 0.320866877380859,-0.33067095338427377 l0.19167032710781626,0.012629994673738536 0.21016653695242493,0.38548685613293465 l0.2689176021868086,0.926714674194547 0.03883770147052146,1.4121708545366145 l0.1217871977920214,1.7970153676054372 0.02063718583405691,1.856896401270742 l-0.11129869802690702,1.81187932808974 -0.2513668274580272,1.739426522869545 l-0.3664877511500479,1.4912904056244776 -0.48830424823787955,1.2323201572982894 l-0.6453436469127404,0.9196042210416716 -0.6630111025415626,0.5706155358224381 l-0.5583724141916645,0.20219190056402736 -0.49386853387140794,-0.050292326260807915 l-0.3256530856014218,-0.18954830460775693 -0.2190149708495464,-0.13061326282285113 l-0.0623674549579982,-0.04747731425441753 -0.09676608929701218,-0.04067634073062918 l0.0951234131889845,0.07749417379061281 0.42942362354457525,0.15148484081611913 l0.5880743090651015,0.16381285721983377 0.8018746046166947,0.06931704105444653 l0.9805542304433492,0.04004417779434641 0.9131222969377195,-0.20360227350346105 l1.113498877676634,-0.4028506712311044 1.2038919022729837,-0.6175194934544866 l1.0202564947812363,-1.0430020901774995 1.2688553840751313,-1.2315750968342334 l1.2160575350207254,-1.5947462061238906 1.3516432387056194,-1.8041306233755356 l1.174278299119686,-2.0817071212269 1.2123895766658528,-2.266267792088384 l1.1264055887613087,-2.321714672743393 1.0220585327715157,-2.232625406141993 l0.9551058306205442,-2.091172104737396 0.7646621516981258,-1.8781484696569792 l0.6796649826868746,-1.5517796006599893 0.5763481781800621,-1.0721760841705417 l0.4158632917607815,-0.5243685399571693 0.017150295498920564,-0.06216784244254889 l0.006411791314128987,0.236464042789233 -0.03511461252451763,0.7669468493968765 l-0.2431582138405015,1.5161788816314106 -0.4253804777093099,1.9097378848486408 l-0.30677693725706023,2.206069343433473 -0.24958287565595696,2.4646776309251535 l-0.3003653041914633,2.3160538553525023 -0.06020633608021406,2.2579280452367647 l-0.23968251402275498,1.824891888528074 0.04098968697210935,1.612597474867926 l0.06619899946555396,1.1825999586096299 0.013720919282636496,0.7030739501305998 l0.0063530047246125945,0.21509343718931942 0.14100640590431798,0.013611704158562528 l0.10258728128223826,-0.07537363572434948 -0.051007474945389764,-0.4938383356228557 m-3.04600338165712,-3.4011277534743396 l-0.5347694573753877,0.11429488805148894 -0.5313122923681117,0.07082934799300124 l-0.06367128792961763,0.14634506315930082 0.09194300379251111,0.1971040905743121 l0.2947944338625177,0.3062282843729266 0.4408202491444787,0.2645821469977204 l0.6073932293204864,0.23571324047125697 0.9562244801780074,-0.00037563186830520494 l1.010035833229491,-0.2634913718143551 1.2106548873967213,-0.5601572616209378 l1.2465386685695328,-0.6752470870841568 1.0962845135923842,-0.8790940827652365 l1.10295591196203,-0.7744909904962841 0.6750999677754032,-0.7066887712366948 l0.43804081401118,-0.4397328262480454 0.09047866289783575,-0.2771562586641547 l0.0697889246972844,0.012580996081016978 -0.10551410493437671,0.05904849699984853 l-0.03975500209289538,-0.0011349433402940293 -0.07273837188169911,0.23769699758718205 l-0.20385709625591017,0.22444606653544028 -0.009975495470540413,0.4487771040080375 l-0.05846341037071986,0.4851958070047677 0.019860691443286164,0.49078670451726236 l0.08866615080276716,0.5669131767615955 0.17391054217525279,0.535294509093585 l0.10958243345494467,0.523518414353785 0.2486453590868086,0.5827697853841195 l0.22404829023057438,0.4094154626904093 0.23961316938490587,0.34415536302023353 l0.369818940548715,0.31927529361630524 0.3744349711645385,0.178209439941147 l0.21779510960633708,0.005509990312464477 0.24881390432429937,0.0033323168731496725 l0.4636388702719824,-0.06669949285377073 0.3554098866101594,-0.34133044934086754 l0.5619986133715451,-0.42153862984439805 0.7295946066631745,-0.5368711567669479 l0.5814252862144698,-0.7216334476714782 0.7768092139724989,-0.7270238725889815 l0.7372279777791961,-0.7384700950531955 0.632489877103374,-0.7625529936041782 l0.6077981057499039,-0.6095339062936151 0.41151017928870054,-0.45330517665155196 l0.13892022445779859,-0.29947483524066537 -0.0025306538947895644,-0.12857332766315763 l-0.059909793081168825,0.014567007396068633 -0.01973366526978572,0.0832190502527626 l-0.13374516750600124,0.08401681797900151 -0.15034000396139505,0.2894045482233428 l-0.2098405306561042,0.7288990261456761 -0.16741937584991648,0.9028558362368523 l-0.23688823378699872,1.0160963408580184 -0.07281509197386006,1.2323751917016594 l-0.07849055366384507,1.3534910551496617 0.05594581221023953,1.5219375377571838 l0.024390651689432476,1.6751165423708365 0.027130914431378203,1.814244455254999 l0.046954070044098864,1.9732070946253473 0.03587531953786022,2.0344504391216 l-0.07645871903218268,2.0456049418345468 -0.22792837967266438,2.026484455844971 l-0.22480354577952866,1.948261312947963 -0.33622238626139506,1.5761807186266974 l-0.3630473032602013,1.1883773685162906 -0.40916364729198484,1.0121615893136562 l-0.6409403098206817,0.771506167922607 m-2.2154495068726066,-0.3453284612343288 l-0.1491160974705475,-0.847352736342793 0.1786086741232398,-1.1376230726540806 l0.40044347616535436,-1.603394093062197 0.6540887037156216,-1.6959686791623496 l0.930205227442985,-1.975056068702015 1.0459150352351396,-2.094576975648451 l1.2101512451072856,-2.1103497982383987 1.4073443949047417,-2.1073111875783286 l1.5507046951047272,-2.074483992611043 1.5190361814999849,-2.045301564257506 l1.5762884872564207,-2.0482258748618785 1.6025655523449962,-2.1209525035388177 l1.500020331560215,-2.148238392162441 1.3765245875830139,-2.0832111371082833 l1.3366514847624151,-1.9125555655130568 1.2257260788352269,-1.7563694088469541 l0.9158456917391107,-1.6886223307559038 0.7793143338659472,-1.392785344764421 l0.4090635668392456,-1.089887582751604 0.0880488441470836,-0.7665927202103224 l-0.08546952308054512,-0.3337376231341032 -0.3566984392949728,-0.22485733802303626 l-0.44116663730788463,0.046014729715242716 -0.5658382709698888,0.5170633066746888 l-0.8259290786162187,1.0795053623430275 -0.9573722026146361,1.4467203605358916 l-0.958041554187684,1.8116475994330798 -1.0087069340933292,2.203860670637144 l-0.9157520575833455,2.2850719667483292 -0.7138477138838697,2.244245429060756 l-0.3395231643752041,2.096958363065103 -0.10715384781087457,1.8066660969431005 l0.4413579403873366,1.397548562581585 0.9439865733417372,0.8572512653821592 l1.2067938277923709,0.32677991686030916 1.5089934050587344,-0.08440248400502944 l1.6073181791448719,-0.5153749810194812 1.4995550880389694,-0.8522436413319757 l1.5608554152635812,-0.9727525960360763 1.220971284292434,-1.1793791476256612 l1.0757659638098092,-1.1697348161573917 0.7005700563125634,-1.133874651194879 l0.4330923447330794,-1.1008523644006711 -0.054830333462063445,-0.8960053794070151 l-0.28077828212429956,-0.5867449696755801 -0.5739010465394843,-0.33661356339726894 l-0.9027756721804092,-0.14908876569931973 -0.9288219214606759,0.37254843913205604 l-1.0026985857019741,0.7510803338010303 -1.0191023400420718,1.0735638060161077 l-0.8232818235773925,1.3436526633086137 -0.5535984340693921,1.3744206058832524 l-0.06889990249178504,1.3313031453218347 0.28045840031863456,1.2128170687812274 l0.6600630221812271,0.9192420944427906 1.0382279424064906,0.7396922796103468 l1.5413591857280118,0.5561297208283671 1.7627027564193471,0.22723415471515493 l1.9589127437849352,0.038068578618700895 " fill="none" stroke="black" stroke-width="1" /></svg>