<?xml version="1.0" encoding="utf-8" ?>
<svg baseProfile="full" height="105.80000114813447" version="1.1" width="324.4999986253679" xmlns="http://www.w3.org/2000/svg" xmlns:ev="http://www.w3.org/2001/xml-events" xmlns:xlink="http://www.w3.org/1999/xlink"><defs /><rect fill="white" height="105.80000114813447" width="324.4999986253679" x="0" y="0" /><path d="M25,25 m5.150000095367432,24.950000762939453 l-0.10000000149011612,-0.05000000074505806 -0.05000000074505806,-0.05000000074505806 l0.20000000298023224,0.05000000074505806 -0.15000000596046448,-0.20000000298023224 l0.15000000596046448,0.20000000298023224 -0.05000000074505806,-0.4000000059604645 l0.4000000059604645,0.25 0.30000001192092896,-0.15000000596046448 l0.5,-0.75 0.550000011920929,-0.699999988079071 l0.5,-1.2000000476837158 0.75,-1.5 l0.800000011920929,-1.899999976158142 0.75,-1.75 l0.699999988079071,-1.350000023841858 0.4000000059604645,-0.75 l0.05000000074505806,-0.20000000298023224 0.0,0.20000000298023224 l0.0,0.0 -0.15000000596046448,1.2000000476837158 l-0.4000000059604645,2.4000000953674316 -0.4000000059604645,2.75 l-0.44999998807907104,3.799999952316284 -0.30000001192092896,4.349999904632568 l-0.25,4.199999809265137 -0.15000000596046448,4.0 l0.0,3.6500000953674316 -0.3499999940395355,2.200000047683716 l0.0,1.399999976158142 0.05000000074505806,0.0 l-0.10000000149011612,-0.20000000298023224 -0.20000000298023224,-0.44999998807907104 l-0.30000001192092896,-2.0 -0.30000001192092896,-2.299999952316284 l-0.20000000298023224,-2.799999952316284 -0.05000000074505806,-3.25 l0.0,-3.25 0.25,-3.1500000953674316 l0.44999998807907104,-2.799999952316284 0.6000000238418579,-2.299999952316284 l0.800000011920929,-2.3499999046325684 1.100000023841858,-1.7000000476837158 l1.149999976158142,-1.100000023841858 1.0499999523162842,-0.30000001192092896 l0.8500000238418579,0.10000000149011612 0.6000000238418579,0.8500000238418579 l0.30000001192092896,1.25 -0.15000000596046448,2.200000047683716 l-0.550000011920929,1.9500000476837158 -1.149999976158142,2.0999999046325684 l-1.4500000476837158,1.850000023841858 -1.5,1.649999976158142 l-1.149999976158142,0.8999999761581421 -0.75,0.30000001192092896 l-0.15000000596046448,0.0 0.30000001192092896,-0.6000000238418579 m14.699999809265137,0.800000011920929 l0.10000000149011612,-0.15000000596046448 0.05000000074505806,0.0 l0.0,-0.20000000298023224 -0.05000000074505806,-0.800000011920929 l-0.20000000298023224,-1.25 -0.30000001192092896,-0.6000000238418579 l-0.5,-0.6499999761581421 -0.6499999761581421,-0.4000000059604645 l-0.949999988079071,0.15000000596046448 -1.149999976158142,0.699999988079071 l-1.2000000476837158,1.350000023841858 -1.2000000476837158,1.899999976158142 l-0.800000011920929,2.3499999046325684 -0.25,2.0 l0.3499999940395355,1.600000023841858 1.0,1.100000023841858 l1.4500000476837158,0.8999999761581421 1.5,0.10000000149011612 l1.5,-0.5 1.5,-0.949999988079071 l1.149999976158142,-1.350000023841858 0.75,-1.9500000476837158 l0.44999998807907104,-1.7999999523162842 0.0,-2.0 l-0.15000000596046448,-1.0 -0.30000001192092896,-0.44999998807907104 l-0.25,-0.4000000059604645 -0.05000000074505806,0.0 l0.10000000149011612,0.0 0.30000001192092896,0.25 l0.800000011920929,0.20000000298023224 0.949999988079071,-0.20000000298023224 l1.25,-0.3499999940395355 1.4500000476837158,-1.0 l1.399999976158142,-1.2999999523162842 1.2000000476837158,-2.200000047683716 l1.25,-2.049999952316284 0.800000011920929,-2.0 l0.550000011920929,-2.0 0.25,-1.2000000476837158 l-0.10000000149011612,-0.20000000298023224 -0.20000000298023224,0.0 l-0.30000001192092896,0.20000000298023224 -0.5,1.0499999523162842 l-0.6499999761581421,2.200000047683716 -0.800000011920929,2.950000047683716 l-0.8500000238418579,3.450000047683716 -0.699999988079071,3.75 l-0.44999998807907104,3.4000000953674316 0.10000000149011612,3.0 l0.550000011920929,2.4000000953674316 1.0,1.0 l1.149999976158142,0.20000000298023224 1.25,-0.3499999940395355 l1.4500000476837158,-1.0499999523162842 1.399999976158142,-1.7999999523162842 l1.149999976158142,-1.850000023841858 0.8999999761581421,-2.049999952316284 l0.6000000238418579,-2.0 0.15000000596046448,-1.399999976158142 l-0.05000000074505806,-0.6000000238418579 -0.25,-0.20000000298023224 l-0.05000000074505806,0.25 -0.05000000074505806,0.15000000596046448 l-0.20000000298023224,0.800000011920929 -0.20000000298023224,1.850000023841858 l-0.10000000149011612,2.1500000953674316 0.15000000596046448,1.850000023841858 l0.550000011920929,1.399999976158142 0.8500000238418579,0.550000011920929 l1.100000023841858,-0.10000000149011612 1.2999999523162842,-0.6000000238418579 l1.399999976158142,-1.2999999523162842 1.25,-1.4500000476837158 l0.949999988079071,-1.850000023841858 0.6000000238418579,-0.800000011920929 l0.0,-0.44999998807907104 -0.15000000596046448,0.20000000298023224 l-0.20000000298023224,0.25 -0.550000011920929,1.4500000476837158 l-0.30000001192092896,2.549999952316284 -0.5,2.8499999046325684 l-0.44999998807907104,3.6500000953674316 -0.3499999940395355,3.5999999046325684 l-0.44999998807907104,3.25 -0.6499999761581421,2.799999952316284 l-0.75,2.450000047683716 -1.0499999523162842,1.4500000476837158 l-0.949999988079071,0.8500000238418579 -0.8999999761581421,0.0 l-0.949999988079071,-0.550000011920929 -0.949999988079071,-1.399999976158142 l-0.75,-2.200000047683716 -0.25,-2.1500000953674316 l0.25,-2.200000047683716 0.6000000238418579,-2.6500000953674316 m18.399999618530273,-25.0 l0.05000000074505806,-0.4000000059604645 0.0,-0.75 l0.05000000074505806,-0.25 0.0,0.20000000298023224 l-0.10000000149011612,0.0 -0.05000000074505806,0.6000000238418579 l-0.25,1.4500000476837158 -0.25,2.25 l-0.5,2.299999952316284 -0.3499999940395355,3.0 l-0.44999998807907104,3.299999952316284 -0.44999998807907104,3.25 l-0.6000000238418579,2.450000047683716 -0.4000000059604645,2.25 l-0.20000000298023224,1.25 -0.05000000074505806,0.20000000298023224 l0.15000000596046448,0.0 0.05000000074505806,-0.6000000238418579 l0.15000000596046448,-1.4500000476837158 0.20000000298023224,-1.7999999523162842 l0.20000000298023224,-1.649999976158142 0.20000000298023224,-1.25 l0.20000000298023224,-1.0 0.20000000298023224,-0.25 l0.10000000149011612,-0.20000000298023224 0.5,-0.05000000074505806 l1.100000023841858,0.15000000596046448 1.4500000476837158,-0.25 l2.0,-0.20000000298023224 2.25,-0.699999988079071 l2.1500000953674316,-0.8999999761581421 2.0,-0.8999999761581421 l1.7000000476837158,-0.8500000238418579 0.8500000238418579,-1.149999976158142 l0.20000000298023224,-0.699999988079071 -0.20000000298023224,-0.15000000596046448 l-0.800000011920929,-0.25 -1.100000023841858,0.15000000596046448 l-1.25,0.8500000238418579 -1.2999999523162842,1.399999976158142 l-1.2000000476837158,1.9500000476837158 -0.75,1.9500000476837158 l-0.05000000074505806,2.049999952316284 0.5,1.100000023841858 l1.100000023841858,0.699999988079071 1.600000023841858,0.3499999940395355 l2.0999999046325684,-0.3499999940395355 2.0,-0.699999988079071 m8.699999809265137,-6.75 l0.15000000596046448,-0.4000000059604645 0.20000000298023224,-0.699999988079071 l0.05000000074505806,-0.8500000238418579 -0.05000000074505806,-0.75 l-0.25,-0.6000000238418579 -0.5,-0.44999998807907104 l-0.5,-0.15000000596046448 -0.8999999761581421,0.0 l-1.25,0.44999998807907104 -1.2999999523162842,1.5 l-1.350000023841858,1.850000023841858 -1.0499999523162842,2.25 l-0.5,2.3499999046325684 0.15000000596046448,1.75 l0.949999988079071,1.2999999523162842 1.5499999523162842,0.699999988079071 l1.7999999523162842,-0.30000001192092896 2.200000047683716,-0.8500000238418579 l2.1500000953674316,-1.7000000476837158 1.9500000476837158,-2.049999952316284 l1.649999976158142,-2.4000000953674316 1.25,-2.5999999046325684 l0.800000011920929,-2.5 0.4000000059604645,-2.1500000953674316 l0.10000000149011612,-1.850000023841858 0.0,-1.4500000476837158 l0.0,-1.25 0.0,-0.4000000059604645 l0.0,0.0 -0.10000000149011612,0.0 l-0.10000000149011612,0.25 -0.05000000074505806,1.850000023841858 l-0.30000001192092896,2.5999999046325684 -0.44999998807907104,2.549999952316284 l-0.3499999940395355,3.5999999046325684 -0.6000000238418579,3.25 l-0.6000000238418579,2.799999952316284 -0.44999998807907104,2.1500000953674316 l-0.15000000596046448,1.2000000476837158 0.15000000596046448,0.44999998807907104 l0.10000000149011612,-0.05000000074505806 0.15000000596046448,-0.44999998807907104 l0.5,-0.75 0.44999998807907104,-1.7000000476837158 l0.75,-1.7999999523162842 0.8999999761581421,-1.899999976158142 l1.0499999523162842,-1.7000000476837158 1.2999999523162842,-1.5499999523162842 l1.399999976158142,-1.0 1.100000023841858,-0.699999988079071 l1.0499999523162842,0.10000000149011612 0.4000000059604645,0.3499999940395355 l0.25,1.149999976158142 -0.05000000074505806,1.850000023841858 l-0.20000000298023224,1.9500000476837158 -0.4000000059604645,1.7999999523162842 l-0.05000000074505806,1.7999999523162842 0.25,1.2000000476837158 l0.949999988079071,0.800000011920929 1.2999999523162842,-0.20000000298023224 l1.7999999523162842,-0.699999988079071 2.0,-1.600000023841858 l1.75,-2.1500000953674316 1.399999976158142,-2.3499999046325684 l1.149999976158142,-2.25 0.699999988079071,-1.2999999523162842 l0.15000000596046448,-0.699999988079071 0.05000000074505806,0.20000000298023224 l-0.20000000298023224,-0.15000000596046448 0.0,0.25 l-0.20000000298023224,0.8999999761581421 -0.5,2.450000047683716 l-0.5,2.299999952316284 -0.44999998807907104,2.200000047683716 l-0.25,1.5 0.10000000149011612,1.25 l0.20000000298023224,0.4000000059604645 0.15000000596046448,-0.25 l0.5,-0.6499999761581421 0.949999988079071,-1.5 l1.149999976158142,-2.049999952316284 1.350000023841858,-2.1500000953674316 l1.399999976158142,-1.75 1.399999976158142,-1.2999999523162842 l1.0,-0.8500000238418579 0.550000011920929,-0.3499999940395355 l0.05000000074505806,-0.05000000074505806 -0.05000000074505806,0.44999998807907104 l-0.25,1.399999976158142 -0.44999998807907104,2.049999952316284 l-0.5,1.4500000476837158 0.20000000298023224,2.049999952316284 l0.30000001192092896,0.949999988079071 0.800000011920929,1.0 l1.0499999523162842,0.05000000074505806 1.4500000476837158,-0.10000000149011612 l1.350000023841858,-0.949999988079071 1.399999976158142,-1.149999976158142 l1.2000000476837158,-1.5 1.0,-1.4500000476837158 l0.6000000238418579,-1.5499999523162842 0.3499999940395355,-1.2000000476837158 l0.30000001192092896,-1.0 0.10000000149011612,-0.699999988079071 l0.15000000596046448,-0.25 0.05000000074505806,-0.05000000074505806 l0.0,0.0 0.05000000074505806,0.20000000298023224 l-0.10000000149011612,0.05000000074505806 0.0,0.20000000298023224 l-0.10000000149011612,0.05000000074505806 0.0,0.20000000298023224 l-0.05000000074505806,0.44999998807907104 0.10000000149011612,0.6000000238418579 l-0.05000000074505806,0.699999988079071 -0.10000000149011612,0.8500000238418579 l-0.25,1.0 -0.25,1.600000023841858 l-0.44999998807907104,1.2999999523162842 0.0,1.5 l0.0,1.0 0.5,1.149999976158142 l0.699999988079071,0.550000011920929 0.949999988079071,0.30000001192092896 l1.2999999523162842,0.30000001192092896 1.100000023841858,-0.4000000059604645 l1.2999999523162842,-0.5 m1.0499999523162842,-22.75 l-0.05000000074505806,-0.20000000298023224 0.05000000074505806,-0.25 l0.20000000298023224,-0.10000000149011612 0.15000000596046448,-0.30000001192092896 l0.0,0.0 0.0,0.0 l-0.05000000074505806,0.05000000074505806 0.05000000074505806,0.20000000298023224 l-0.25,-0.10000000149011612 -0.05000000074505806,0.0 l-0.05000000074505806,0.05000000074505806 0.15000000596046448,0.15000000596046448 l0.05000000074505806,0.15000000596046448 -0.10000000149011612,0.10000000149011612 l-0.05000000074505806,0.0 0.0,0.0 l-0.05000000074505806,0.0 -0.05000000074505806,-0.20000000298023224 l0.15000000596046448,0.20000000298023224 0.15000000596046448,0.15000000596046448 m8.399999618530273,11.949999809265137 l0.10000000149011612,0.0 0.05000000074505806,-0.10000000149011612 l0.10000000149011612,0.0 -0.15000000596046448,-0.15000000596046448 l-0.20000000298023224,-0.15000000596046448 0.10000000149011612,0.15000000596046448 l-0.3499999940395355,-0.25 -0.15000000596046448,0.30000001192092896 l-0.6000000238418579,-0.20000000298023224 -0.699999988079071,0.4000000059604645 l-0.75,0.75 -1.0,0.699999988079071 l-0.75,1.0 -0.8999999761581421,1.0499999523162842 l-0.699999988079071,1.399999976158142 -0.75,1.4500000476837158 l-0.4000000059604645,1.5 -0.15000000596046448,1.2999999523162842 l0.44999998807907104,1.149999976158142 0.800000011920929,0.75 l1.350000023841858,0.25 1.600000023841858,-0.20000000298023224 l1.649999976158142,-0.550000011920929 1.7999999523162842,-0.6000000238418579 l1.850000023841858,-0.6499999761581421 1.399999976158142,-0.6499999761581421 l1.0499999523162842,-0.44999998807907104 0.949999988079071,-0.25 m8.449999809265137,2.200000047683716 l0.0,0.20000000298023224 0.20000000298023224,0.15000000596046448 l-0.05000000074505806,-0.20000000298023224 0.15000000596046448,0.15000000596046448 l-0.10000000149011612,-0.20000000298023224 -0.05000000074505806,0.05000000074505806 l-0.20000000298023224,-0.05000000074505806 -0.15000000596046448,-0.25 l-0.05000000074505806,0.05000000074505806 0.20000000298023224,0.15000000596046448 l-0.05000000074505806,-0.20000000298023224 0.25,-0.10000000149011612 m6.150000095367432,-5.900000095367432 l0.550000011920929,-0.05000000074505806 1.2000000476837158,-0.25 l1.399999976158142,-0.6000000238418579 1.5,-1.2999999523162842 l1.9500000476837158,-1.600000023841858 1.649999976158142,-2.25 l1.899999976158142,-2.299999952316284 1.75,-2.5999999046325684 l1.399999976158142,-2.5999999046325684 1.350000023841858,-2.1500000953674316 l0.8500000238418579,-1.75 0.25,-1.2000000476837158 l0.10000000149011612,-0.3499999940395355 0.0,0.05000000074505806 l-0.10000000149011612,0.10000000149011612 -0.10000000149011612,1.0499999523162842 l-0.25,2.0999999046325684 -0.4000000059604645,2.9000000953674316 l-0.699999988079071,3.3499999046325684 -0.949999988079071,3.75 l-1.0,3.5 -0.699999988079071,3.0 l-0.6000000238418579,2.5 -0.75,1.399999976158142 l-0.699999988079071,0.4000000059604645 -0.44999998807907104,0.05000000074505806 l-0.30000001192092896,-0.30000001192092896 -0.30000001192092896,-1.0 l0.05000000074505806,-1.399999976158142 0.4000000059604645,-1.4500000476837158 l0.75,-1.149999976158142 1.0499999523162842,-1.100000023841858 l1.0499999523162842,-0.8999999761581421 1.350000023841858,-0.4000000059604645 l1.350000023841858,0.10000000149011612 1.25,0.3499999940395355 l1.149999976158142,1.2000000476837158 0.800000011920929,1.399999976158142 l0.4000000059604645,1.149999976158142 0.3499999940395355,1.2000000476837158 l0.15000000596046448,0.8500000238418579 0.25,0.6000000238418579 l0.25,0.30000001192092896 0.20000000298023224,0.05000000074505806 l0.30000001192092896,-0.4000000059604645 0.75,-0.949999988079071 l0.949999988079071,-1.2999999523162842 0.949999988079071,-1.899999976158142 l1.0,-1.7999999523162842 0.8999999761581421,-1.850000023841858 l0.6499999761581421,-1.2000000476837158 0.44999998807907104,-0.5 l0.10000000149011612,0.15000000596046448 -0.05000000074505806,0.0 l0.05000000074505806,0.25 -0.20000000298023224,0.8500000238418579 l-0.15000000596046448,2.0 -0.25,1.7000000476837158 l0.0,1.7000000476837158 0.3499999940395355,1.2000000476837158 l0.3499999940395355,0.5 0.5,0.10000000149011612 l0.3499999940395355,-0.44999998807907104 0.20000000298023224,-1.350000023841858 m-0.10000000149011612,-15.899999618530273 l-0.05000000074505806,-0.75 0.05000000074505806,-1.0 l0.05000000074505806,-0.25 0.0,0.0 l-0.15000000596046448,-0.15000000596046448 0.10000000149011612,0.20000000298023224 l-0.10000000149011612,0.0 0.3499999940395355,0.800000011920929 m0.6499999761581421,19.649999618530273 l0.15000000596046448,0.10000000149011612 0.05000000074505806,-0.05000000074505806 l0.05000000074505806,-0.25 0.3499999940395355,-0.5 l0.30000001192092896,-1.399999976158142 0.6499999761581421,-1.7000000476837158 l0.949999988079071,-1.649999976158142 1.100000023841858,-1.9500000476837158 l1.4500000476837158,-1.5499999523162842 1.2999999523162842,-1.25 l1.4500000476837158,-0.800000011920929 1.149999976158142,-0.4000000059604645 l0.8500000238418579,0.3499999940395355 0.4000000059604645,0.699999988079071 l0.30000001192092896,1.7999999523162842 -0.15000000596046448,1.850000023841858 l-0.30000001192092896,1.7000000476837158 -0.550000011920929,1.7000000476837158 l-0.8500000238418579,1.350000023841858 -0.699999988079071,1.0 l-0.4000000059604645,0.30000001192092896 -0.10000000149011612,0.0 l0.20000000298023224,-0.10000000149011612 0.4000000059604645,-0.75 l0.75,-1.350000023841858 1.4500000476837158,-1.25 l1.5,-1.649999976158142 1.5499999523162842,-1.899999976158142 l1.2999999523162842,-1.5499999523162842 1.100000023841858,-1.350000023841858 l0.6499999761581421,-1.0 0.44999998807907104,-0.699999988079071 l0.20000000298023224,-0.10000000149011612 -0.15000000596046448,-0.15000000596046448 l0.15000000596046448,0.15000000596046448 0.20000000298023224,0.3499999940395355 l0.4000000059604645,0.44999998807907104 0.6499999761581421,0.75 l0.949999988079071,1.0499999523162842 0.6000000238418579,1.0 l0.550000011920929,1.399999976158142 -0.30000001192092896,1.25 l-0.4000000059604645,1.649999976158142 -1.25,1.4500000476837158 l-1.2999999523162842,1.2000000476837158 -1.100000023841858,1.100000023841858 l-0.5,0.6499999761581421 -0.10000000149011612,0.10000000149011612 l0.30000001192092896,0.25 0.550000011920929,0.6000000238418579 l0.6000000238418579,0.5 0.8500000238418579,0.8999999761581421 l0.75,1.399999976158142 0.44999998807907104,1.7000000476837158 l0.15000000596046448,2.0999999046325684 0.0,2.299999952316284 l-0.3499999940395355,2.200000047683716 -0.699999988079071,2.0 l-0.8500000238418579,1.350000023841858 -0.75,0.75 l-0.44999998807907104,0.30000001192092896 -0.4000000059604645,-0.44999998807907104 l-0.15000000596046448,-1.149999976158142 0.3499999940395355,-1.9500000476837158 l0.8999999761581421,-2.549999952316284 1.25,-2.9000000953674316 l1.5499999523162842,-3.200000047683716 1.899999976158142,-3.4000000953674316 l1.850000023841858,-3.5 1.899999976158142,-3.3499999046325684 l1.649999976158142,-3.450000047683716 1.399999976158142,-3.25 l0.8500000238418579,-2.9000000953674316 0.44999998807907104,-2.5 l0.10000000149011612,-1.75 -0.30000001192092896,-1.0499999523162842 l-0.4000000059604645,-0.44999998807907104 -0.25,0.0 l0.10000000149011612,0.4000000059604645 -0.25,1.0 l-0.10000000149011612,2.0 0.05000000074505806,2.4000000953674316 l-0.05000000074505806,2.6500000953674316 0.15000000596046448,2.75 l0.30000001192092896,2.6500000953674316 0.15000000596046448,2.450000047683716 l0.10000000149011612,1.7999999523162842 0.15000000596046448,1.399999976158142 l0.10000000149011612,0.6499999761581421 0.20000000298023224,0.3499999940395355 l0.0,0.0 -0.05000000074505806,-0.15000000596046448 m-3.549999952316284,-4.400000095367432 l-0.5,-0.6000000238418579 -0.6499999761581421,-0.5 l-0.4000000059604645,-0.15000000596046448 -0.3499999940395355,-0.30000001192092896 l-0.05000000074505806,0.05000000074505806 0.0,0.0 l0.05000000074505806,0.0 0.10000000149011612,-0.05000000074505806 l0.0,0.0 0.3499999940395355,-0.05000000074505806 l0.550000011920929,0.05000000074505806 0.8999999761581421,-0.44999998807907104 l1.350000023841858,-0.3499999940395355 1.350000023841858,-0.4000000059604645 l1.4500000476837158,-0.44999998807907104 1.2000000476837158,-0.5 l1.149999976158142,-0.15000000596046448 0.6499999761581421,-0.10000000149011612 l0.10000000149011612,0.0 -0.15000000596046448,-0.15000000596046448 l-0.10000000149011612,0.0 -0.10000000149011612,-0.15000000596046448 l0.0,0.0 0.05000000074505806,0.0 l0.20000000298023224,0.10000000149011612 0.0,-0.25 l0.25,-0.30000001192092896 m25.0,-5.199999809265137 l0.15000000596046448,-0.15000000596046448 0.30000001192092896,0.0 l0.3499999940395355,-0.3499999940395355 0.20000000298023224,-0.8500000238418579 l0.3499999940395355,-0.949999988079071 0.25,-1.100000023841858 l-0.05000000074505806,-1.4500000476837158 -0.25,-1.5499999523162842 l-0.4000000059604645,-1.2999999523162842 -0.8999999761581421,-1.399999976158142 l-0.8500000238418579,-0.8500000238418579 -1.2000000476837158,-0.699999988079071 l-1.4500000476837158,-0.30000001192092896 -1.5499999523162842,0.25 l-1.9500000476837158,0.6499999761581421 -1.649999976158142,1.4500000476837158 l-1.7999999523162842,1.899999976158142 -1.4500000476837158,2.6500000953674316 l-1.5,2.9000000953674316 -1.2999999523162842,3.200000047683716 l-0.699999988079071,3.200000047683716 -0.6000000238418579,2.700000047683716 l0.20000000298023224,1.9500000476837158 0.550000011920929,1.149999976158142 l1.0499999523162842,0.4000000059604645 1.399999976158142,-0.20000000298023224 l1.600000023841858,-1.25 2.049999952316284,-1.600000023841858 l1.850000023841858,-2.1500000953674316 2.049999952316284,-2.549999952316284 l1.600000023841858,-2.5 1.600000023841858,-2.299999952316284 l1.0499999523162842,-1.9500000476837158 0.800000011920929,-1.399999976158142 l0.20000000298023224,-0.5 0.0,0.0 l0.10000000149011612,0.20000000298023224 -0.30000001192092896,0.550000011920929 l-0.30000001192092896,2.0999999046325684 -0.699999988079071,2.200000047683716 l-0.800000011920929,2.799999952316284 -0.6000000238418579,2.950000047683716 l-0.6499999761581421,2.5999999046325684 -0.10000000149011612,2.049999952316284 l0.5,1.4500000476837158 0.800000011920929,0.6000000238418579 l1.5,0.0 1.7000000476837158,-0.8500000238418579 l1.649999976158142,-1.600000023841858 1.9500000476837158,-1.75 l3.25,-3.700000047683716 0.8500000238418579,-1.4500000476837158 l0.3499999940395355,-1.0 -0.10000000149011612,-0.20000000298023224 l-0.10000000149011612,0.10000000149011612 0.05000000074505806,0.25 l-0.3499999940395355,0.699999988079071 -0.25,1.75 l-0.4000000059604645,1.850000023841858 -0.44999998807907104,2.1500000953674316 l-0.30000001192092896,1.5 -0.05000000074505806,1.149999976158142 l0.25,0.6000000238418579 0.25,0.05000000074505806 l0.3499999940395355,-0.30000001192092896 0.75,-0.800000011920929 l1.0,-1.600000023841858 0.949999988079071,-1.899999976158142 l1.149999976158142,-1.5 0.800000011920929,-1.2000000476837158 l0.699999988079071,-0.44999998807907104 0.15000000596046448,-0.15000000596046448 l-0.10000000149011612,0.10000000149011612 0.05000000074505806,0.5 l0.0,1.5 -0.3499999940395355,1.25 l0.10000000149011612,1.350000023841858 0.15000000596046448,0.75 l0.44999998807907104,0.4000000059604645 0.800000011920929,0.0 l1.0,-0.44999998807907104 1.2999999523162842,-1.149999976158142 l1.350000023841858,-1.399999976158142 1.4500000476837158,-1.399999976158142 l1.7000000476837158,-1.25 1.350000023841858,-0.949999988079071 l1.100000023841858,-0.699999988079071 0.8500000238418579,-0.05000000074505806 l0.30000001192092896,0.0 0.10000000149011612,0.15000000596046448 l-0.05000000074505806,0.05000000074505806 -0.10000000149011612,0.20000000298023224 l-0.15000000596046448,-0.15000000596046448 0.0,0.0 l-0.20000000298023224,-0.10000000149011612 -0.20000000298023224,-0.10000000149011612 l-0.3499999940395355,-0.15000000596046448 -0.699999988079071,0.15000000596046448 l-0.8500000238418579,0.10000000149011612 -0.949999988079071,0.75 l-1.2000000476837158,0.75 -1.25,1.100000023841858 l-1.0499999523162842,1.149999976158142 -0.5,1.5 l-0.4000000059604645,0.949999988079071 0.3499999940395355,0.8500000238418579 l0.6499999761581421,0.5 0.699999988079071,0.05000000074505806 l0.8999999761581421,-0.3499999940395355 1.399999976158142,-0.6499999761581421 l1.149999976158142,-1.25 1.149999976158142,-1.600000023841858 l1.399999976158142,-1.5499999523162842 0.8999999761581421,-1.9500000476837158 l0.8999999761581421,-2.0 0.8999999761581421,-1.7000000476837158 l1.0,-1.5499999523162842 0.699999988079071,-1.4500000476837158 l0.6000000238418579,-1.0499999523162842 0.10000000149011612,-0.699999988079071 l0.10000000149011612,-0.20000000298023224 0.0,0.0 l-0.15000000596046448,0.20000000298023224 -0.20000000298023224,0.20000000298023224 l0.0,1.25 -0.4000000059604645,1.5 l-0.3499999940395355,2.0 -0.800000011920929,2.200000047683716 l-0.6000000238418579,2.5 -0.25,2.1500000953674316 l0.10000000149011612,2.049999952316284 0.4000000059604645,1.600000023841858 l0.75,1.25 1.149999976158142,1.100000023841858 l1.149999976158142,0.550000011920929 1.649999976158142,0.6000000238418579 l1.2999999523162842,0.25 1.100000023841858,0.0 l0.75,0.0 " fill="none" stroke="black" stroke-width="1" /></svg>