<?xml version="1.0" encoding="utf-8" ?>
<svg baseProfile="full" height="67.22316970151317" version="1.1" width="287.8311672840187" xmlns="http://www.w3.org/2000/svg" xmlns:ev="http://www.w3.org/2001/xml-events" xmlns:xlink="http://www.w3.org/1999/xlink"><defs /><rect fill="white" height="67.22316970151317" width="287.8311672840187" x="0" y="0" /><path d="M25.14771361917789,28.541363198818335 m-0.14403496788517903,0.28243757059537206 l-0.0036786512927093964,0.05646971314902628 0.0059407044725521135,0.3663953248348316 l0.14341909958909865,0.4679317797166474 0.193645818268702,0.24056363409680775 l0.44244376401837365,-0.26493818204368186 -0.020612299607661116,0.07334183234042736 l-0.16897257615407266,-0.1161883858770047 0.39915535038740374,-0.29730532154062306 l0.30152949542155916,-0.22773116715704741 0.10285705135840666,-0.10224775444278766 l0.5657479450028339,0.49452180125706957 6.244025376848163,3.7140091458710556 l0.28722913096892655,0.7069492833319291 0.13258013725910325,0.652026230340987 m-0.9142025742998889,1.0375591059670144 l-0.4715861258499281,0.6605725821659787 -0.3153630388464874,1.1027108824641751 l0.16347498472294802,1.1893509982596586 0.125946715762687,0.84657147741054 l0.4760811893427427,0.537358493823826 0.7171510959076595,0.35845638751344094 l0.7354498980966393,-0.03784309650206509 0.7635634415194241,-0.2731642256539676 l0.6447392268326981,-0.36846165871372205 0.5859249013841524,-0.39715034752171446 l0.4718315512240188,-0.5328058245231714 0.3806610734994007,-0.5712984381770322 m2.5050201988118577,-5.803906589316655 l-0.08543070999652876,1.33507122213694 0.005640394426845951,1.637203889746124 l-0.17760350836989777,1.5495285799031333 0.10491862480378715,1.2446927517949173 l0.27487455786264325,0.7022024516524165 0.36991041207066344,0.169415019326558 l0.48953428248725195,-0.16347053145769277 0.5783643642085459,-0.46584251801740145 l0.5318061017566705,-0.6888376241242665 0.5455881504707312,-0.7200346393996541 l0.42484892701271326,-0.7395794587707639 0.2559962910917374,-0.21705680362121244 l0.01786746536849712,0.00029183342958959124 -0.025840770645848818,0.0003736657552772953 l-0.012721997556649418,0.17572684061878674 0.14885328422634422,0.6416432849891858 l0.25329943475542555,0.6866655873782395 0.32539104449095946,0.5450261463248672 l0.5063135913893537,0.34932672419304944 0.6799508699101419,0.09507913716850246 l0.8752830363508025,-0.15708296685958928 1.0357802350442555,-0.3608800104640689 l1.018117913841428,-0.6312081525424995 0.9394578871345403,-0.654148602544769 l0.7256601474813571,-0.74793668281836 0.4562693861877899,-0.6428330798700695 l0.031171827286916066,-0.2627987178433083 -0.24560272015184997,-0.20160342511071944 l-0.4627810278237476,0.014137965133331931 -0.7263798031869559,0.24921889018605733 l-0.9210755103634425,0.5674928239507342 -0.8688913301180725,0.7551646864828323 l-0.5378322617003473,0.8565279520266866 0.06175868033171922,0.7737683252632453 l0.37700209191307643,0.5871617117199259 0.7877125256503454,0.3611698221091846 l1.1294146431874086,0.09061476034836788 1.439814271084352,-0.09497913476319833 m5.693288899360473,-3.9175905194230953 l-0.7055596790305381,-0.02089090149735076 -0.8094733643868599,0.24269588224191493 l-0.8841405132020643,0.34230258202581915 -0.7593710325442783,0.4035117132895951 l-0.3014069693042287,0.18086747574893786 0.04198031459822131,0.12923678876360395 l0.39756216545494366,0.15945075740806122 0.7874984005365295,0.18263423421639888 l0.9819464122320126,0.1400269863316579 1.045369611598368,0.1710701090015289 l1.0281212214287987,0.35982354756254503 0.6765961849982591,0.4209913440584777 l0.48771619810265404,0.5765265733584594 0.02303622456412626,0.544822938838747 l-0.21529425702982546,0.5862150285908081 -0.5883850406844493,0.4788434995709242 l-0.7687855436584737,0.4623795532046602 -0.8351743593316475,0.41136118265267607 l-0.8451759139075357,0.20728191810134156 -0.6889867157811022,-0.06096611389794938 l-0.3346485052383017,-0.0856012841310391 -0.12728765266866393,-0.3364959355670055 l0.20226541324398709,-0.3317553125686158 0.5099721621469755,-0.4747874517104481 m2.272372949077406,-0.47624828705302913 l0.12470318869520365,-0.08766027609457089 0.4582952839045811,0.05759972389559852 l0.6058662949102491,-0.2523361259678905 0.9252235098582884,-0.40700338236130756 l1.1509911193667464,-0.5098447914247585 1.1332894584322937,-0.7000678880956659 l1.0203817034966962,-0.6864687601237025 0.8164218838850239,-0.5504594498893135 l0.3610193634293466,-0.46189521746552376 0.04261192387238774,-0.315953980029493 l-0.3561848953796611,-0.2899276274335595 -0.6220924814511452,-0.18131937523095457 l-0.8344987222596579,0.12231137830620903 -0.9976992768181931,0.3107814913926602 l-0.8893997028661647,0.5544988050439955 -0.6161615671958536,0.6330397575056572 l-0.2567447477897058,0.6263347507722483 0.08147713198270415,0.6233752335310362 l0.4864040510124223,0.6318809766437384 0.6924599213504277,0.3552493324490974 l1.237075299462931,0.28776246767686203 1.54786449587108,-0.061949183951091336 l1.7902786665643131,-0.03938377713614344 1.509354007579491,-0.16703558018359665 m14.437368538342414,-3.8231645130562626 l0.3090518099406283,-0.4697078508622607 0.2113557455602017,-0.6339384074339112 l0.0765708742474343,-0.48997969330038726 -0.1799836910715038,-0.36994354309533 l-0.44617162945488165,-0.3717714665687676 -0.6074033488956477,-0.08563159788081738 l-0.7533296552706739,0.23735913767719172 -0.9097278147317069,0.4405748644666959 l-0.7703785817636772,0.7875554308641763 -0.5934680528942144,1.0201698928580811 l-0.39191789287492446,1.0668343596439633 0.011841919861271213,0.9970898622139992 l0.3626918102955596,0.546767824355302 0.7382240724212347,0.20968306761700695 l0.9511449060168452,-0.22470592480555027 1.0291719800912325,-0.6676399201756612 l0.93425288612943,-0.8044206754882834 0.6441434803365051,-0.839402689552484 l0.36848938616161725,-0.7750551851837757 0.10495098605139534,-0.4454917769352716 l-0.052451523501079594,-0.04016683166187547 -0.05663920271360216,0.06636279431632296 l-0.17832540435662522,0.0750708685154056 -0.2332634701420831,0.6339074147373672 l-0.09937616057897275,0.9828116540119335 0.10227809400416091,1.0008203425017315 l0.22336209120940004,0.6783275618940208 0.5420797383857168,0.4665239249614125 l0.7747104470008755,0.17394556057730048 0.911522297856082,-0.2037475336027558 l0.8698924882801397,-0.5870040491137224 0.7743549171861656,-0.7375327879329128 l0.6269181852436213,-0.9304527865161655 0.4629597877733689,-0.9090289336968964 l0.2639481059930617,-0.503330150128338 -0.062446788804995865,-0.20138358155029945 l-0.006103624943619962,0.09772859567486018 -0.10942707906349308,0.12777331332993755 l-0.17367761286526093,0.6248029626655337 -0.11780625520980992,0.8959649939488763 l0.0697089395266094,0.9436037823043574 0.13310287175383717,0.7233532737073712 l0.29198270071911464,0.5171953722042898 0.29019957115856165,0.2619786756214193 l0.007804267396365185,-0.19982019889633934 0.11923237264704714,-0.09588156516492222 l0.07925161401186313,-0.6006906895379688 0.03852533563535645,-0.8266208763105947 l-0.03784388306407245,-0.7839440239138287 -0.16914169694073078,-0.6976226171257471 l-0.05266658583655068,-0.3408054904340433 0.056161812517184856,0.005271723395630312 l0.08473533124132698,0.044312591065979325 0.23849256558991733,0.17385297733443103 l0.5816807936694464,0.34446679738033004 0.7457240746060931,0.2412461759414904 l0.8958237145523132,0.1348735260185848 0.954321594319631,-0.10871921797086435 l1.0366615743595902,-0.1720288574608714 0.8311701428107136,-0.3836987500255942 l0.658558669412176,-0.36870207579248415 0.2515149958473702,-0.3368702506785967 l-0.19323709813698187,-0.2445013393184772 -0.4268993588551598,-0.1210370321704887 l-0.7698877288029236,0.04051034504306599 -0.7691985734682315,0.3441874610034528 l-0.6118859478083845,0.5932717219502031 -0.30104723223129737,0.6794565281411676 l-0.00796189830714658,0.7479394391847234 0.3117723955970674,0.6929620425396424 l0.6347644624314214,0.6063761196009513 0.9149410395737956,0.4238532135299466 l1.2739280472734646,0.27009876707491604 1.4588591445152899,0.07628994319838471 l1.5248896750782777,0.0529122235671223 1.2960966154047364,-0.09817463802489651 m15.203298130675549,-4.054924080369396 l-0.08757288831067064,-0.4847557325847891 -0.010343593745660809,-0.36373323351757125 l-0.3035157034937923,-0.28531321531418946 -0.5215247825475442,-0.15704453763369722 l-0.8636438802371382,0.05935864647210268 -1.0256064551986028,0.2426499498912191 l-0.9398746464867155,0.48123127688931944 -0.7024299258205323,0.4912360473835867 l-0.33213056081607817,0.49972776308913947 0.019523522350569315,0.42724958114803646 l0.36786841343195353,0.40161294299340666 0.794080958986444,0.4248099199538726 l1.2365645715064577,0.4522577842891021 1.3618501474471385,0.4123722099236658 l1.2962314717838854,0.40417137151753124 1.1621329668222933,0.5041236609928701 l0.7078453114876547,0.6464539485705226 0.1462568736907528,0.4904301674832003 l-0.35484596855205425,0.4953390638582423 -0.7656766603382763,0.46573611038462204 l-1.1503554739241575,0.20710581219700472 -1.3100927678484047,0.031149489527163367 l-1.1728568443700087,0.0059938383662272235 -1.118557983049411,-0.1304681554204495 l-0.7925099767854306,-0.2692667998897617 -0.2779393789533096,-0.2706877059530799 l0.11505636628070018,-0.26734071469912524 0.5881014811612975,-0.30644999395561306 m10.5902956621779,-3.664746015624949 l-0.040605559117505186,-0.27223034124206075 -0.2218998380424505,-0.3475048795764415 l-0.4185404289076993,-0.18625812241399603 -0.579177461852951,-0.051120073434434476 l-0.6272497679852491,0.22801746103855997 -0.7503650930575508,0.3261700596075554 l-0.6589110344879763,0.5407780123567979 -0.435417466833,0.7839870497078321 l-0.12483033928599191,0.8090247937472546 0.22445423577691231,0.780355211162537 l0.5737590668237467,0.5731987853555018 0.9824823314844728,0.3172056864312375 l1.163498900346917,0.05074232703515921 1.0340066599676705,-0.31661110770261575 l0.8481733166671048,-0.5778183577342044 0.47093757970758204,-0.6408102104683682 l0.09022509817265834,-0.6017830562393313 -0.3942415811222094,-0.6026054584708712 l-0.5420188520828598,-0.40002295661538606 -0.7034197558893038,-0.2272252604981834 m3.3342688358485133,-1.1394882247398417 l-0.11238113154773241,0.0203500703733796 -0.047065519482538114,0.008153888788138636 l-0.031404615874618784,0.17365256088014241 0.011613125278047316,0.5112230007847204 l0.13312227722105235,0.7604308725254064 0.09520602128994513,0.6991357350729493 l0.2069467740782563,0.6337795406870307 0.35628178807467453,0.4811400893304684 l0.3831649311658971,0.1853851991000823 0.43342547592483116,-0.05546262942975385 l0.6101579902672024,-0.2118513970787578 0.37343917531824383,-0.5871953087624201 l0.39170405688446763,-0.7634130902105447 0.33893602476019774,-0.8806227688528993 l0.1965149062644375,-0.7635008407377465 0.14465977919027284,-0.40455182952078766 l-0.05100905892169872,-0.13853681609794097 -0.012192548971988581,0.0006518439809124049 l0.055719036077279877,0.19297710578541938 0.11962539925302494,0.5799488446520088 l0.21960796399550592,0.7784635861040625 0.28372593101857446,0.7221898613039271 l0.41572107351424675,0.5691984610903782 0.4913948398449845,0.35428706166257223 l0.6916155704033444,0.13820192323213368 0.5776802023726402,-0.16981766055895284 l0.6103530068450427,-0.3454838580662105 0.4620598150217236,-0.6097598592562029 l0.3716620687007326,-0.6940627305882557 0.22137067329911347,-0.6512574913343404 l0.12913063855893184,-0.3187987423092221 -0.11341363206225001,-0.1439001395338601 l-0.11498612512311333,-0.033083641198422574 0.009571592218652409,0.1470421614189693 l-0.06971882971209839,0.4781505763846069 0.13706427246578728,0.6860622056017285 l0.23715011952343584,0.6454795317329318 0.45350824321913474,0.5888633241091928 l0.5873231781011629,0.42721764895644726 0.6927015974085249,0.20460140099541424 l0.8429585398951441,-0.0531203901140453 0.9978707049173176,-0.27824438967432863 l0.8665088583378682,-0.5571019211661274 0.8216331779129634,-0.6468175174293338 l0.4852460241444362,-0.6704406415424936 0.17500699145477602,-0.559178449291641 l-0.05076957247468894,-0.402069192621514 -0.3605520647414502,-0.2629205839587627 l-0.5800779300597623,-0.09869423424607528 -0.6544067459597479,0.20366615156751994 l-0.7141578666246938,0.4147769828569949 -0.48834508142881183,0.7243390953223204 l-0.2882764665517439,0.7593890603024976 0.11976165607901826,0.7815471495622847 l0.5867500251092084,0.7120111796176815 0.8904342384614226,0.510655735945392 m17.808253479692052,-3.3489652068907185 l-0.09495995250230686,-0.14710890853450945 0.02872039243082183,0.0012959912103369916 l-0.1945902317023806,-0.1592559124343722 -0.2591411516246901,-0.15228396070909236 l-0.31609937837519037,-0.06267356304045124 -0.6917299665322394,-0.057500483914355194 l-0.8660679680503699,0.19659997495473705 -1.1842581800660101,0.3659031713299026 l-1.0168659301151348,0.5288887532653659 -0.7228860977617486,0.4846968415276814 l-0.3260509479205534,0.1959949472476806 0.2585447317991076,0.22334200881442443 l0.4927131678757143,0.2252112048751718 1.1475684207050345,0.1438946964001906 l1.513452590183622,0.13161103087555856 1.5825190329629693,0.08745210764106079 l1.736884947074445,0.22172917876430692 1.385160890044048,0.1854514547336658 l0.7967824499058669,0.21862188297122445 0.26452407771827746,0.2926677174277605 l-0.0008918774863253681,0.22081901330709008 -0.41435788308690324,0.320721393277609 l-0.7592218669070394,0.2491612958290962 -1.0345647376158125,0.2006862011428287 l-1.1652401799441217,0.14801157980460092 -1.1785144996040673,0.007774446198242746 l-0.7670765422316963,0.11848305973206046 -0.5524880637063111,0.03935801282367021 l-0.30628076399068405,-0.06068571803293372 0.04415588699661865,-0.06000070939170793 l0.30464701150831336,-0.07577834446744348 0.8038138530225064,-0.07289980447566585 m9.140027886220647,-2.864314969446102 l0.07457981692805628,-0.397490982655511 -0.1273333467867526,-0.23893592510814624 l-0.3688581995999016,-0.18984314663260787 -0.4341582014642313,0.01739104449002636 l-0.6698141576242369,0.054514580689867295 -0.641889391798127,0.328645366158065 l-0.8351446212734689,0.358903865098436 -0.6050589476520838,0.5442563385859327 l-0.4140975616420227,0.7058552507036114 -0.17071922286186167,0.7526239870036797 l0.21660654064694573,0.7007365659608937 0.4991180247237253,0.5125452934607203 l0.7590180396848805,0.19116405329941252 0.9466972524945195,-0.14357376685546328 l0.986900192582717,-0.4343168921750085 0.8758322714248878,-0.6956679652450367 l0.6477630503055657,-0.7294474764943294 0.3028394079238098,-0.6776299553892842 l0.03794529134547853,-0.5494610361440172 -0.21142178618465668,-0.32063737293978245 l-0.07819792269587961,-0.04084833397293673 -0.16765714532081932,0.007398217736215386 l-0.0026298442711502543,0.15641823385732365 -0.12858333418155285,0.4653474669690656 l0.10629562179172902,0.7499378493604277 0.2319849108970189,0.7249854590157235 l0.3867995202123858,0.5631667644495855 0.5611010966275046,0.4087100657356971 l0.6961144103615803,0.1414761767450295 0.845840427312005,-0.09921380644360682 l0.7874579194374056,-0.5077282907361427 0.7273341372667215,-0.6963732755929612 l0.5817197414680122,-0.7639718902190105 0.34183367928165825,-0.7784625037638621 l0.11755297944415896,-0.5782435338355205 -0.018030223660380762,-0.32625779776043035 l-0.05280255329393812,-0.03893060590811506 -0.014342649890203597,0.09829373710512557 l-0.0847724428778446,0.14579724839706687 -0.09991902637724927,0.5340790752379361 l0.079956284352055,0.663468658069808 0.35907999671542795,0.7018038481376551 l0.5197283336491321,0.5574195148277278 0.7899440020589581,0.3775486764549187 l0.7563318188675572,0.04935408641068574 0.8723545327077876,-0.14584499525897987 l0.8010970678383509,-0.4147615251684072 0.6584575075563643,-0.48451856316634945 l0.47943724481823496,-0.6182116265770914 0.21339781603339614,-0.6754448595668586 l0.01797750366531354,-0.5920371614540829 -0.13253330213682998,-0.42763474162696774 l-0.08153968577279805,-0.07367768878094325 -0.0720822125181878,0.008120598391679452 l-0.05917542314126808,0.0002765413483438243 0.15166935396629655,0.4618597288260167 l0.1317068067737021,0.6817724856508455 0.3330608203220061,0.6127013161760226 l0.49806087770637003,0.49451490656112185 0.6272973774675897,0.3131576446475147 l0.7523763321470508,0.11059681106611391 0.7092509550096763,-0.17823423458872406 l0.6870905513644574,-0.27950678940500506 0.509251861233548,-0.4677977532913918 l0.32748140448035284,-0.5779079789460857 0.21155570669034954,-0.5927556847156468 l0.0031694585383576154,-0.5273083403581961 -0.03264226796520055,-0.30776727609669685 l-0.08325722463763323,-0.1107761735893011 -0.017818968683807994,0.000425266140189664 l-0.04295861200670412,-7.387354331853829e-05 0.16974169565154618,0.3481965387324352 l0.03141823047403006,0.5636440821812471 0.26712999331354564,0.6448242192683997 l0.4500904749509878,0.541584792743734 0.5218262151066267,0.31323667816579875 l0.7134532318686806,0.1656842079494851 0.8722727319009385,0.008412157991868362 l0.8355504238599915,-0.16841840966546048 0.7783105102311382,-0.2989194900135227 l0.5579816878926661,-0.32221162465312336 0.3832407320746546,-0.41033087447731087 l0.19715781258675125,-0.45358484484929423 0.09101908152376621,-0.4445495657141146 l-0.13337747945735914,-0.4534053061230465 -0.07257859935881564,-0.2370012181936715 l-0.19755139758116252,-0.175728335935255 -0.0340238447455366,0.03199491583743369 l-0.044514020792248546,0.06516210593832109 0.02600279277341471,0.12397306116706443 l-0.047039366385841705,0.4331484420345963 0.22313548318110568,0.8493800925042851 l0.1180409304639312,0.8447995167076016 0.3188039641867634,1.0312226791510832 l0.2257830807896881,1.0340262724233633 0.3397868085151871,1.115424768895896 l0.24663086915097765,1.0439262882152502 0.19341826910586954,0.8755739888975121 l0.05286307832876999,0.5922574623981287 -0.07489829527028156,0.1893037523458567 l0.09477286077752889,0.06583101245072653 -0.04214977218382936,-0.11479745388139648 l-0.31054722513674293,-0.428743385766849 -0.3078735598642376,-0.814685249501452 l-0.30345638816121184,-0.9773879405212555 -0.10547254320367117,-1.0291784670861728 l0.06602900174215307,-1.0773779646600496 0.20768399744587995,-1.116072354180632 l0.5307678245820441,-0.937784516573604 0.5035957292243256,-0.8600032524194434 l0.6559378359175917,-0.6295995465288348 0.7349189717942295,-0.3476141828224046 l0.7198041867034349,-0.0880358862420125 0.7365678255494988,0.1720582951928322 l0.6582204059821302,0.4237987055023179 0.4884554719507549,0.6081050891617692 l0.3677046995195946,0.8409111353215818 0.1254035935856029,0.8710861099554664 l-0.2263157792491629,0.7163291590307972 -0.3106069244425007,0.5866149280453095 l-0.46119529542777704,0.32406007041135265 -0.3638994852341253,0.10023409800916215 l-0.4121960130556427,-0.11418353348368171 -0.3632875406567408,-0.33105497987780347 l-0.34334392836049,-0.4917871212685629 -0.13776167165203837,-0.5696496119122747 l-0.015319223572194104,-0.6853065702349965 0.3533700731118392,-0.6902231362224003 l0.623341139974801,-0.7331775123309222 0.8954865823693442,-0.723674550475586 l1.003885200042037,-0.7920944427044436 1.0941806371105744,-0.750381943164794 l1.0440567219161787,-0.6697572009496783 0.8311988473672215,-0.6186459278446791 l0.5913031129824136,-0.5865304407405536 0.4243754135494549,-0.4558431169898893 l0.1067792652382,-0.36077000017617955 -0.04876156674632147,-0.21243020754313074 l-0.24351810953156786,-0.1540580196038267 -0.2326960557828176,0.02465415257258892 l-0.5687699775884677,0.1305293545223322 -0.6138536799264315,0.4550245687715241 l-0.4500323394049224,0.8138696458173558 -0.49067349396143706,0.9490582986998485 l-0.38539434317520693,1.0427912562122383 -0.09643038209511183,1.080806675807469 l0.3001915117114192,1.0920987011887326 0.5709753243434822,0.8780423273873958 l0.8785460691607782,0.6304430210763194 1.1240184029993703,0.33638994607903966 l1.3083047036513398,0.10257617167842348 1.3427314618743578,-0.1909105684577939 l1.2016986791428825,-0.4617044985198257 1.0891386501260045,-0.6152470040255745 l0.7043301976628914,-0.7573714086994533 0.4077530726854566,-0.6785179945215339 l-0.07274280257575724,-0.5954029309944394 -0.36666116599196974,-0.3363619330125597 l-0.7459247878417856,-0.25340109466215954 -0.9134040813859335,0.04971054441738289 l-0.8638421712141019,0.33916299092128444 -0.769727178359416,0.5055681079111556 l-0.4874022086673624,0.7236824238490261 -0.10722117743904719,0.8477144243670444 l0.2986903755072016,0.7583837760852523 0.6866696646936774,0.6355427924865827 l1.1608423023248537,0.3575100030051091 1.590080755962842,0.04620357478846452 l1.9345592430100345,-0.1988572923187874 1.9544572084804073,-0.20007281456694864 l1.5295172644342696,-0.2392150850863874 1.1151874532780508,-0.0715171821331745 m17.224092430864772,-7.839973317686851 l0.00824657332138292,0.9815660818398563 0.0008134549388802807,1.1726619998608734 l-0.21530372781997037,1.1624403692925473 0.09956293909583398,1.357799175568082 l0.09406509175373536,1.4098409754246528 0.23590830752929381,1.1996941447319258 l0.16735591123822297,0.8998111467806943 0.2696525734370293,0.6539104611146223 l0.23909480115579404,0.4135885082232051 0.3312505747876183,0.17134643793298546 l0.028243338188458172,-0.19431031136693122 0.17140130321224506,-0.3416564367040222 m-3.980292321731035,-4.3677361831864285 l-0.07081128563982246,-0.09883054317268823 0.029964064707010664,-0.07709391169119036 l0.38599639279813436,-0.14615060030655994 0.6769415773228666,-0.09831076879824308 l0.867805163784543,-0.05915080081197047 1.0473898393238088,-0.13279444987059574 l1.2590162079331704,-0.0015167902083271113 1.0965828630051988,-0.18713602397596613 l0.9926229488944059,-0.2633672359243534 0.900821211500049,-0.3359931656274643 l0.557366563121331,-0.4057901088111557 0.18377070299266715,-0.35205548974485834 l-0.11936560547392958,-0.3114331835376527 -0.3468574053949093,-0.2533197247915736 l-0.5057776113515258,-0.124802157321876 -0.7743074029141823,0.026179252734316028 l-0.8113284540475173,0.22245670257742356 -0.5794470634223248,0.5151835253194914 l-0.6430800637274815,0.6096238781909955 -0.2966705416002925,0.7437088351696496 l-0.07383196888725405,0.8197215020209097 0.261215523116439,0.7881649197022338 l0.6175651694638165,0.7578996644461259 0.8180629182539352,0.5955847787941017 l1.0377310693003752,0.39718263605719695 1.3044215560484722,0.1819420977251254 l1.2565659988124296,-0.10622389623403587 1.2796408644592039,-0.30029024064022203 m1.2968476760501904,-5.15040195303744 l0.022813608234866244,-0.044786432556939954 0.017332615780507578,0.02844832448899054 l0.1240458981856647,0.1647863611966697 0.24659998503494812,0.4275304626465788 l0.3294053589430612,0.6202478148103955 0.3531859423628169,0.5541027250452427 l0.6089875600411305,0.618712041892492 0.724404654544889,0.5865592300223137 l0.6472151151095924,0.46219024283169097 0.5372597270785783,0.30689694804078826 l0.47902332410497883,0.14996786004299084 0.30413364777171076,-0.08263139799346375 m-3.359060493924294,-2.389269906807759 l-0.10029175516383318,0.4566970293749666 0.17357102846577377,0.5062708572698044 l0.21989020131304485,0.40078997532439886 0.09232435878540926,0.2791444712643604 l0.24897635035095111,0.3228724332163132 0.34163209445326626,0.339269954899938 l0.322585713436232,0.22641978211115749 0.6631832519931786,0.3193189992787321 m1.7790574808151702,-7.214191043654931 l-0.09686349836071735,0.28654769489981075 0.1020376470259369,0.7805302786731848 l0.0064075297250486395,0.856666938096751 0.07234664207095438,0.9363958567026217 l0.1552198109505958,0.9463098571696292 0.19214844064556305,0.8439805465363187 l0.29614089071594146,0.7396375387635487 0.27126802910436837,0.546451813781786 m-2.0373672265415417,-2.0039880303588715 l-0.019389086834730986,-0.05602417190697318 0.07124685789524764,-0.019579551215907695 l0.3182495529333619,-0.0007331105332880339 0.7859557550457472,0.07153266194142406 l0.898057906924269,-0.07062012844505834 1.2170077550791247,-0.12039790808568877 l1.2941900500810246,-0.1887179167916591 1.229912793611779,-0.2921700493280828 l1.0218668268923037,-0.40223197295523694 0.7943056172940006,-0.42936583014996266 l0.5265365392278989,-0.4320540880122593 0.04291851789920009,-0.44016056862408054 l0.007169062832819796,-0.3165810881446881 -0.008773552341823018,-0.12238937163395976 l-0.17790563745358073,-0.051863695167515225 -0.15627744879146568,0.06304625602039694 l-0.23471912299060393,0.0800224496459338 -0.2578466930591663,0.2695888808378429 l-0.01008936425294002,0.49936555145225103 0.15891750279670197,0.5527909135084532 l0.4647283595904762,0.6427542221465835 0.753028514328647,0.5474213917176274 l0.9637718849828482,0.5001106140856634 1.1560217981094643,0.442540975638628 l1.19475533281649,0.25640993036079757 1.0902825386010735,0.22216935302648205 l0.8250343183559391,0.16310983818538102 0.36650306734640886,-0.03234994637660983 l0.09449701288371037,-0.03812960683059702 -0.08886497207886962,-0.12816022239868333 l-0.32427767111380806,-0.27536886952143647 -0.7055944047207338,-0.28515889070601497 l-0.9247418020375896,-0.23737239733912577 -1.082746629793856,-0.1499647744084061 l-1.1268408083462556,-0.05780606408806174 -1.1406580474705312,-0.05696741928910423 m20.246596894080668,-6.717246150763359 " fill="none" stroke="black" stroke-width="1" /></svg>