<?xml version="1.0" encoding="utf-8" ?>
<svg baseProfile="full" height="76.60272503402933" version="1.1" width="405.6626516789755" xmlns="http://www.w3.org/2000/svg" xmlns:ev="http://www.w3.org/2001/xml-events" xmlns:xlink="http://www.w3.org/1999/xlink"><defs /><rect fill="white" height="76.60272503402933" width="405.6626516789755" x="0" y="0" /><path d="M25,38.76578322036224 m0.1676590024712359,-0.2920144809775651 l0.3534419177847043,-0.021175226184031386 0.6557226261031627,-0.3536998945358514 l0.8612309652808949,-0.5340907981222562 1.1469713365693943,-0.5748610425066384 l1.3420092406408841,-0.5441731314143654 1.4225873598847085,-0.42700152372633465 l1.2425033265816197,-0.4434464860171149 1.2751810956238014,-0.3674121004088684 l1.134136105461711,-0.299306554033994 1.0048454893573104,-0.14224380326518848 l0.6966270357188931,-0.023746358874115248 0.36417551032575746,0.08879007064137769 l0.1485057644379599,0.12784275975200235 -0.11173226665550497,9.2220524471179e-05 l-0.05726685349199738,0.0020069318042029542 m-4.537174467799165,2.0727831356127076 m-0.2165991352842837,-0.1698210805081142 l0.16461274390553773,-0.18829787101949724 -0.13386232905728387,0.03756529973690835 l-0.054770016608725734,0.5878559406527991 -0.49016902661616246,1.315729731882668 l-0.4475995377130678,1.6625304327830142 -0.44563752178976723,1.618097873317161 l-0.23463103192649112,1.4882921679565266 -0.21267126649957963,1.2749276123276518 l-0.05450439061402284,1.2481149574865904 -0.23856265519925374,0.9063495590478552 l-0.07368514545353813,0.7944051589295879 0.030382272154162178,0.21725859169763315 l0.0806700311883657,0.08451362778468333 0.11977771238014663,0.014410775192016369 l0.4911645871877964,-0.2663692721020268 m14.898822702499448,-15.906460190706749 l0.004624448919808884,-0.05559300244046951 -0.05241043718971338,0.037204594682371174 l-0.1690762806156716,0.5588075853844122 -0.3049697411806761,1.2599613801740317 l-0.683646807524042,1.6365684781162477 -0.2549705278463504,2.3032972758549453 l-0.5911155592650785,2.534773128085042 -0.3939741644590636,2.7553594198491895 l-0.3484405085525251,2.632120242972914 -0.3447408276580774,2.3282057639089704 l-0.2143864595342529,1.7378243115777119 -0.07557294454111382,1.1099114492020719 l0.034763581829868946,0.24567704903057982 0.17780376291452998,0.013932494126249709 l0.08932189754567701,-0.3412635313289489 0.3522213975027782,-1.0954595378668572 l0.5665879659414306,-1.4410510829721621 0.5623867687536266,-1.6647672509678473 l0.8722891586982616,-1.5247241686633206 0.8551850760874978,-1.0498194336636415 l0.8140275144173429,-0.6529639522640918 0.5293438588843672,-0.2869745188160386 l0.30865732053702455,-0.000985205480577499 0.23062466165449214,0.282907685595672 l0.31540358503605653,0.8211428001836096 0.054121268993552865,1.080119062356513 l0.12589346535702206,1.2759302209778074 0.1100060342455465,1.287851194204889 l0.17617928549204886,0.9857825838646384 0.5083671265593026,0.810481119995374 l0.558082632395848,0.42228652372062137 0.7782856575015482,0.20288016460514632 l0.9067923542664106,-0.21676888915567671 1.0445563061518903,-0.6667111164216528 l1.2100573587446113,-0.987322358245857 1.125493327986838,-1.367397264925473 l1.0599461478627998,-1.4764822472537569 1.0062998312564313,-1.4049285372562823 l0.5688044836798299,-1.380281856401246 0.26183214592699217,-1.0967950478467958 l0.01922092984784097,-0.8270542131265941 -0.29389218038583864,-0.4760287702420469 l-0.35427812977057654,-0.13632120849158352 -0.5866065513785162,0.09408859809376396 l-0.7468739419100305,0.5647642527243143 -0.6249010168787307,1.076792642860438 l-0.6320087367280859,1.3947882018956193 -0.5103562053412088,1.4580431504907478 l-0.21056866622623938,1.491455816561369 0.1264487684387557,1.372460172843313 l0.29832744698120556,1.1101668669136986 0.6943054744259425,0.8977677306616654 l0.8393296796242543,0.5098758961857086 0.9425446696592913,0.28135637262498103 l0.9940324680989527,-0.07632260660420065 1.0817289795954619,-0.5063450343640963 l1.1885746738422922,-0.8278278830202699 1.1991917619345243,-1.1105303179723665 l1.358899000912999,-1.2467835408093206 1.3204759994666806,-1.3946217592440397 l1.4003905569714674,-1.263307357014364 1.3587773868605852,-1.0896693098900085 l1.2607868392215364,-0.8476811437366166 1.29608286644187,-0.4380600057494442 l0.9568027039999855,-0.06973450547146054 0.875109052965468,0.3548721373859853 l0.5549262385495343,0.594418426555757 0.3165500685324437,0.9226079591554228 l0.07879418230780069,1.1864760924133768 -0.10381095326084797,1.3791553745847032 l-0.4903266010773155,1.3162348306412681 -0.5536437653110194,1.153822518967975 l-0.708779478389545,0.7068725261291648 -0.5509565880216383,0.4376196058762072 l-0.6618831657273838,0.04769789507939903 -0.4007902081449284,-0.1141252278935654 l-0.49455878156415634,-0.2955452033273749 -0.12175098464049015,-0.20423058581881817 l0.02220983650866747,0.0008338921932463716 -0.03614641095930473,-0.049359474909245325 l0.032477468001787996,-0.022150699026866175 0.12197289119003314,-0.052932412798197215 l0.3513385386094968,0.03871141650928423 0.5965685609390717,0.05547521196141939 l0.629850656753554,-0.06732457782936872 0.9487972968750454,-0.0702420119144983 l1.0896054083745645,-0.24556418575391425 1.143224954856468,-0.4539898628062404 l1.3312810467311746,-0.5726728018817382 1.2359616166199374,-0.8454565660761095 l1.353333356633295,-0.8933108709313358 1.2352770878191974,-1.107109943260954 l1.1148372761925291,-1.1396917660639516 0.7961475450865036,-1.1995024254757922 l0.6172731387184605,-0.9990498545265666 -0.007236689391025286,-0.7744529051057314 l-0.23024461128601847,-0.38930172348759423 -0.4881566500980284,-0.18289031280649803 l-0.6422403696270446,0.09949719442914248 -0.861247256437347,0.40051856510284917 l-0.8512227775722606,0.9851105337849533 -0.9097439113610442,1.385669707217319 l-0.49537603071901704,1.6650760728843879 -0.21252115815678876,1.5344989565320326 l0.36048662960038647,1.4431374822788192 0.7002442503018336,1.057629624477563 l1.139730670136199,0.6543314137538918 1.55726773466326,0.21094255713991408 l1.924582650299837,-0.11296706929266975 2.0417415062551165,-0.24946602891670033 l1.8913334189763984,-0.3453638430937946 1.553788431635593,-0.28248941627828084 m27.03312868802385,-6.011066824137005 l0.022818926302501697,-0.09029620607365857 0.019247629323591114,-0.1473171426001146 l-0.06673484071045216,-0.3328799681551463 -0.0761348481166336,-0.36038505041895263 l-0.2011008414082578,-0.45657693186958553 -0.2868405613131535,-0.44419293296135265 l-0.4770679695159511,-0.47615545155194616 -0.4602025453181159,-0.35250828676418194 l-0.6002466910362343,-0.3068658738602754 -0.6701059497051194,-0.21374318786902005 l-0.7387197573564589,-0.0053805694144471936 -0.9131032629652474,0.20884649554900045 l-0.921748662128677,0.6914070814947817 -1.0341620013253285,1.116310354349356 l-1.0165463394188308,1.4332733756837128 -0.827097720512741,1.7130546004532148 l-0.758039433684299,1.75501401428647 -0.3965855253159351,1.7268888618844673 l-0.1595446559173637,1.260725503856131 0.28530331070228343,0.7982691392497491 l0.619551429795522,0.3078687071158746 0.8998926648901576,-0.12611740229803775 l1.1274678163918639,-0.6572114961325017 1.4187307277631738,-1.0829606842363222 l1.370066951164454,-1.5315356880632272 1.4126563526098275,-1.648774341538164 l1.2787078871593587,-1.549422797463946 1.016627401052151,-1.3647837435336885 l0.7586472032234295,-1.0022367233121405 0.3973226058277517,-0.6331015105661331 l0.023518210704384212,-0.160487843620372 -0.05139851935262292,0.06671411033081862 l-0.1623454489899746,0.1061114995318512 -0.38559600861536825,0.6677373882494513 l-0.5241504110511068,1.2664423433707999 -0.4757887689323147,1.4751729352045975 l-0.3488197902544768,1.6250554031957012 -0.07103005362422786,1.492386127008389 l0.2046220138498836,1.081616874268183 0.6910031477629233,0.7543460462961366 l0.8863571396190342,0.2957396227567609 1.0514356927938107,-0.08004761575090741 l1.1456087560445996,-0.4695401483961298 1.280964924627792,-0.762298076645182 l1.1345270625185144,-1.06755885462136 1.0761953962279636,-1.2454153355149655 l1.0475475702404384,-1.239469919071871 0.7915899236419912,-1.1502433963030783 l0.5363906043841794,-0.8968810834304621 0.24564524630350543,-0.5632238031113641 l-0.03326453926896454,-0.2164987706490586 -0.12156239785298367,0.01708398393409752 l-0.03572455233547821,0.13950082006297357 -0.238834123719315,0.6093144890684451 l-0.4387528244328172,1.288383724365731 -0.371104391529946,1.4623999365920708 l-0.28012129902907845,1.4438149678684888 -0.29923983557381406,1.2621727479993694 l-0.14669018582305665,0.874934615453491 0.02587711589306064,0.5422500391024169 l0.0344087061101664,0.0966898396288282 0.026868143661231414,0.0008712888662554207 l-0.007779312594410531,-0.21241816528061633 0.21693193150241552,-0.6723498417910365 l0.13391822772834872,-1.2006675633280073 0.3519771243394302,-1.2684395825611792 l0.35196239119957434,-1.3533985172613294 0.5190367366701184,-1.2241073039152235 l0.3303820027014721,-1.1683687860411127 0.32930828182323113,-0.7818430768325861 l0.2861002310735502,-0.3804962511299884 0.09921606338255146,-0.056732735020916004 l-0.008075476188288078,0.060400253578531814 0.02992368697435909,0.26535675315597956 l0.30658486074012126,0.7728285446671721 0.18611493160875336,0.7564053198288366 l0.5219971156786223,0.815592807770131 0.6140029735759079,0.6453829198365688 l0.8335700664994778,0.4457404565887367 0.9420955489638433,0.2281899954793996 l1.1963753051843478,-0.018198830139792205 1.1711925314546214,-0.41728346129741134 l1.2399691333977667,-0.630387960315696 1.1718006298581214,-0.8638764464257829 l1.0160659470275504,-1.088232557376969 0.7805280199960987,-1.0980578229946827 l0.45786598669719464,-1.1089899177938547 0.16600544621339047,-0.9323789734657583 l-0.07062728835183069,-0.7174235008407419 -0.38942395613257974,-0.44874833339044085 l-0.5984180339950008,-0.1821088380498988 -0.926994330395096,0.12032219096565983 l-0.9710214890321002,0.7361325377645008 -1.0230679756172154,1.074573374862897 l-1.0024924956126688,1.3769695327868081 -0.8156361932791891,1.4781196816222877 l-0.3123035410750292,1.6013792890452796 0.044936642392647344,1.4181161251139478 l0.6004381945474946,1.2961180246470279 0.8807794748298106,0.9870330463479423 l1.3420660003652785,0.6916751690256706 1.6329036242097446,0.2364253721934486 l1.8446556524850422,-0.009096990470157156 2.0335119409190856,-0.2298655986395169 l1.964733435346366,-0.3047900275133716 2.0035787874377036,-0.2924756210616525 l1.6591183459580787,-0.3606130676458175 1.409209700142566,-0.32133004302411805 m19.198747576271735,-8.043148256542803 l-0.007100108203282458,-0.4220954396467504 0.04161206623066785,-0.5787009853104679 l-0.1856630659696502,-0.1801544257968387 -0.12586685866849887,-0.07264430160244481 l-0.5475594924651298,-0.1480172148075531 -0.6010832202579757,-0.10218756543819069 l-0.6031955361920482,-0.004577991318894319 -0.66511390136002,0.25319937664279074 l-0.8497027903598198,0.43454877514372336 -1.0089008286392724,0.6788105900551983 l-0.8090427010236546,0.9851797341719417 -0.894244947716325,0.97417328696465 l-0.47115056586315546,0.9058587686450588 -0.042841379504752156,0.6917799066551663 l0.42286619100965506,0.5996130281866451 0.9163481202371756,0.6651168762023902 l1.2290644038281142,0.6567306763903409 1.327324856645648,0.6385712594968099 l1.2308743126551982,0.5934887562657504 1.2127839629487807,0.719626819202643 l0.8832714686116834,0.7275260566291323 0.6606408235055027,0.7342670817114948 l0.19829728612410943,0.6506708014880642 -0.11423704373917433,0.6355049870591546 l-0.5060116895469778,0.621681783325663 -0.834690635378052,0.5964436725353441 l-1.1625795306689082,0.461010936602252 -1.3795598086887264,0.3515975956714277 l-1.2918237909828183,0.3370148085729987 -1.18149781912431,0.10570571539200457 l-0.7811908407230612,0.08603804918601428 -0.5346861780163588,-0.11446452263783823 l-0.08664448926720843,-0.11214560651796572 -0.06553628841307088,-0.23034266563536746 l0.020075900749387504,-0.1370609391487083 0.19789192269118577,0.034614545212871474 l0.38314820196091565,0.17173892393968562 0.5869883944179125,0.24721919730061861 l0.7791350308147742,0.21805890471928926 0.8908833193895485,0.103560106849165 l1.1510010995046067,0.0003550179135163936 1.1224810322951622,-0.22702755031738184 l1.257012027018011,-0.29323178212475354 1.3716604944023514,-0.47704571527641715 l1.3803861254551593,-0.64938362409716 1.4169294987653118,-0.7880360425356604 l1.4994821040525264,-0.8466978280996301 1.43685377430807,-0.8935851079614511 l1.3478841295162804,-0.8914193999441072 1.3550180463302401,-0.7956055861934945 l1.244541516473662,-0.695492228307271 1.0701861186925958,-0.6672084124609847 l1.026301781561805,-0.5106506059524453 0.9404649088113363,-0.39177879678195854 l0.9372100757581765,-0.29844917033280444 0.6845451810431917,-0.32116544656231594 l0.7442913273581234,-0.2722269405582294 0.7343028685678169,-0.2828137502883412 l0.7293578818473951,-0.33238641049349554 0.6713102206382403,-0.4407741048644081 l0.5285428475856838,-0.46898167097479115 0.45677821808138447,-0.48781489831144653 l0.26753026266403535,-0.4426171611099834 0.028530062968813844,-0.40038083352634796 l-0.02315997915071575,-0.3104520517259711 -0.15442273722379068,-0.25762481497109657 l-0.3092805998155651,-0.22956876939867446 -0.40029364170965204,-0.18779200767035661 l-0.4483536777146945,-0.13195145147567605 -0.5290136328763793,0.007146496817425782 l-0.519266080758522,0.20008627860409503 -0.7584294304592462,0.4111433972048386 l-0.8612193250716547,0.6753967410845892 -0.9236265967676105,0.9508364006126727 l-0.871287670933403,1.1285330750975635 -0.6936436914197881,1.2672478387262796 l-0.508131315954499,1.2928071506266718 -0.374769722334399,1.1869799937869563 l-0.08845884374260735,1.0777601137955413 0.1400908334345004,0.7941713219608848 l0.46769931829806843,0.5993032359371049 0.5515108425065471,0.2679457676080816 l0.698731810319892,0.07434925574848772 0.755718188748844,-0.15157135574482147 l0.7020981876831183,-0.45407040958957856 0.7683678923327658,-0.6565192196940761 l0.6938879129556206,-0.8877548002634936 0.5611026223346366,-1.0122333460758408 l0.6060939191626723,-1.0347611256659206 0.3630648783388393,-1.0570292423150667 l0.1751298914791776,-1.0613488592348697 0.19431848127814075,-0.9065201180839836 l0.19290815120251964,-0.729308144141344 0.11548850960027295,-0.5758566467735657 l0.024369419726338187,-0.4574291968079904 0.0011080402496620005,-0.32257428943524535 l-0.010785805064835847,-0.05996927672667584 0.0143452093894287,0.04156265773833477 l0.03964299127316556,0.054039533596369496 0.003925610502050571,0.041322190443947214 l-0.014024736401198234,-6.189319443854657e-05 0.23167377396843372,0.12443352096143229 l0.1750152268038375,-0.031032367949916602 0.5180326578581079,0.0929480396453147 l0.6063009823779343,-0.06353433063618767 0.6358015838227771,-0.25954118785653435 l0.872562220700996,-0.361619984248698 0.865681923181516,-0.4896310027976226 l0.9848100827880841,-0.4451844511014187 0.8579581528068401,-0.388174271856117 l0.7362756483451364,-0.2356824227014543 0.5178704990424178,-0.12774372687040914 l0.35858850909915185,0.0504753618748289 0.3687417620628777,0.2673060350184774 l0.16539087349484774,0.5116958896061142 0.004534700467229799,0.6940113719457127 l-0.07146166501893976,0.880282579198146 -0.06503545708940504,0.9832701440839612 l-0.1709657812871935,1.007322055034511 -0.036432500246526216,0.9765000536308115 l0.07612548105708966,0.8278581514929826 0.18887612460698064,0.5841948843807592 l0.27528921503850406,0.37633218312109984 0.2630885502923347,0.11802025920256276 l0.17058352964979823,-0.10068292234808406 0.3847386731742075,-0.20577967047441917 l0.5526902964086083,-0.4165564507330706 0.7318499920032607,-0.8523510764894661 l0.9468202705902974,-1.1255653409527473 1.0346679831261996,-1.2048364359856105 l1.2406916252695486,-1.1146788034538802 1.1128747731983668,-0.9499917418069349 l1.0255319645305503,-0.6356526953059398 0.8663685197567467,-0.29686522969733786 l0.5354179118998026,-0.06734869780195561 0.34146606928178647,0.12063676529508907 l0.3209165830484345,0.44075922289621267 0.19018548500211963,0.6437556236977531 l0.0821291338054477,0.7359041658500441 0.2550641143974671,0.9006243387312924 l0.20685898951292958,0.7477865616422974 0.28125014532640347,0.4485794927696857 l0.32458139493328864,0.1699348916371862 0.565284093229479,0.056431495970728926 l0.5837939048216433,-0.1904679884608439 0.8006618856696192,-0.430728372211439 l0.855086581917249,-0.698115179309565 1.0088418479411407,-0.7744727985515114 l0.8985513388852486,-0.8596117515976573 0.8030996211848453,-0.8294309103815348 l0.8267074531598119,-0.6009159207279575 0.5660780502964332,-0.4901892209592682 l0.36091048719469404,-0.22790580218301862 0.16067499428287702,-0.025196507001500047 l0.08723547014251469,0.02480048004011907 0.017593389803371565,0.09599634365673464 l-0.04206405799281289,0.18528750981732356 -0.06242467574342944,0.5730868042863361 l-0.16791219850526468,0.7906132568272828 -0.16937263984645304,0.9665948875805417 l-0.14927452036869776,0.9615394762287065 -0.10219865098601703,0.9547232685665455 l0.016546510767452866,0.8481525284986344 0.17037219356139707,0.728484543410188 l0.35496089606891545,0.5485024080047238 0.5201488458583184,0.3975533791041859 l0.6353071927680702,0.23824835523301605 0.8048435256385057,0.00875486092891479 l0.9238981467970844,-0.21480252740728867 0.9915938750523812,-0.47474809145250174 l1.0956107036144005,-0.7005532773896136 1.1562301795145808,-0.8465117388208794 l1.22253073321092,-0.8816921655414404 1.0062534263474263,-0.8857448464947698 l0.8526694851927838,-0.8066077520384707 0.6582644420773551,-0.7232825388720006 l0.4397009583146584,-0.646646331979942 0.2426051548400867,-0.49686543185122073 l0.05673221351002605,-0.4238877817991216 -0.14212912335784872,-0.3910648921193154 l-0.24406947095465734,-0.2764481775618693 -0.24661651900560494,-0.1905452201910867 l-0.39725565163215426,-0.08430701494450296 -0.4149457532463027,0.03836302558120687 l-0.5014915558979768,0.17445776379761344 -0.5461274558751409,0.33330326778643254 l-0.48357391880213224,0.5096229600010677 -0.4003072088017645,0.6016445003034816 l-0.25660923540089214,0.7386499266005796 -0.2054256230773533,0.7460806339902157 l0.06514427154842102,0.8845742193712741 0.07535692999468588,0.7946096865929742 l0.43164881631329066,0.798206477425695 0.49073082074908914,0.6115252824836248 l0.7244790921228177,0.666401117298242 0.8979489883798905,0.5742233141123969 l1.0599766082356525,0.464623531055118 1.2107697020609547,0.275743719360444 l1.5523859333368089,0.09508312683197415 1.592664334093683,-0.20834421155604158 l1.6261040680781234,-0.3989826241531688 1.691462194612178,-0.38436408246007003 l1.393350142533533,-0.4143784806054527 1.1927831364257937,-0.3096492652971926 l0.8013904995980039,-0.2555186677484751 0.46226836953783274,-0.21528575624287355 l0.349687655224945,-0.1481962074126883 0.13606444952699345,-0.10626720383785565 m22.96138213804102,-10.439066392652084 l-0.2057487280312256,-0.08473473720588265 -0.046607796158186006,0.012920006875318902 l-0.015234434879033046,0.022573560265053125 -0.19191020701698924,0.0920081950466312 l-0.3762080248032528,0.32652102055550053 -0.5890083390558827,0.6713219203197813 l-0.8989403165864197,0.789296107898509 -0.8873373213632602,0.9298342128249945 l-0.6637675012460089,0.9837915275390354 -0.3603394612092577,0.8748476699729023 l-0.133915417174075,0.7456508227428503 0.23585890346435706,0.7353517729773469 l0.5182280724805223,0.6469302008894011 0.8224584506202587,0.5489877584979939 l0.9651971030833076,0.3963189568934909 1.0530526580368798,0.23058695592032408 l1.1607544330192319,0.2045827259640504 0.9394941154069231,0.16672086889489707 l0.8181285595268096,0.2727789333866898 0.36578243036023966,0.21895952279803288 l0.10122255220193058,0.19256085813327492 -0.06629556824726388,0.14048732515445064 l-0.27080803465718933,0.08781611917831336 -0.42478958043762066,0.18681554812592802 l-0.9506420251058602,0.1733740250310116 -1.0299266301488774,0.14272366513315138 l-1.0250926757040586,0.13651359601914803 -0.9414458971203508,0.07557494828232456 l-0.7960568322372255,0.019813568332754432 -0.4654640343254143,-0.024036406037176095 l-0.3302365797682363,-0.12886684475329557 -0.14977077702895497,-0.18868590371089367 m14.305577279255425,-5.2674526772041625 l-0.14606659394057506,-0.3397135421181186 -0.1448396117984624,-0.18632527870790935 l-0.26546747998234144,-0.2768761424899651 -0.3049969683557398,-0.274869494824361 l-0.3881046698334283,-0.22524694879136709 -0.4343758059196875,-0.18957151098658018 l-0.4843448044734167,-0.12071470832327173 -0.46441578540296585,-0.05946325102337664 l-0.5134084607955625,0.09158942610038201 -0.5739511524053499,0.19679693520096192 l-0.6761487191309777,0.35826796832412694 -0.6078535915021742,0.5850557667302079 l-0.6377169152790261,0.6300498306436619 -0.2706798623979097,0.7974462758257492 l-0.20463884320460551,0.7923810563987818 -0.05676949511755788,0.8398691901074559 l0.16804164731664223,0.7438157463673414 0.33101768407654697,0.5537940908605534 l0.35643300148002316,0.3018050473213978 0.5880149100172918,0.13688151179293215 l0.7868704356364876,0.012517330142806635 0.7708826229879682,-0.3371072356548378 l0.9244233408209637,-0.5436446510155069 0.9129775015187187,-0.6418051061007755 l0.8385681502119733,-0.7287749624582466 0.671770866651809,-0.7090347924104494 l0.4454840005283522,-0.6973071972667777 0.28901746344094276,-0.5278898031390776 l0.1534708997089634,-0.35259909433262787 0.04772851916384083,-0.14794352044527107 l-0.11995753176014677,-0.018957532005243513 0.00765974496560724,0.0959078302060868 l-0.14961371491480768,0.06668761745079704 -0.019137165537944825,0.14176082723217592 l-0.2142609149867921,0.6010473423084894 -0.18121108330026517,0.8499058754955486 l-0.04405246467369079,0.8651467031422462 0.09968082561667674,0.8118004994786167 l0.2344689458476075,0.7277633075081216 0.4160163504554734,0.5923929028696654 l0.5723266657648197,0.3750687577385703 0.6343870012724413,0.16854903958815912 l0.7515001390128679,-0.03282195552561683 0.8810397570827622,-0.24381535378443664 l0.8621048528912436,-0.49847167929236447 0.8873750219724793,-0.6415786325477644 l0.9482735516225197,-0.6913485639348617 0.787244792690434,-0.7418112842785345 l0.5933598492507266,-0.6986612080213082 0.5444074246990888,-0.5078887674510626 l0.3840548617992083,-0.33765103109520667 0.18807220996018614,-0.19489631449652886 l-0.029722293972371656,-0.013918397470813425 -0.04032687892708235,0.027682775411544992 l0.005170162652578622,0.0799528413537952 -0.14646302993158636,0.151703672923578 l-0.059962415703110436,0.5305976339183004 -0.19329379500525043,0.7381630115702073 l-0.12079060915299115,0.802694169239661 -0.09976792754655195,0.7390312792526607 l0.03782956154371574,0.6186075328144619 0.24428734621289064,0.4642597356529107 l0.29398766728102094,0.21179532703480755 0.468518933671678,0.10608276024103687 l0.5900512811116793,-0.073098304770575 0.6547749706314406,-0.281637940122966 l0.7260105238104858,-0.5068679863466906 0.8059313212139035,-0.6884355559701508 l0.8281091720545304,-0.7659700540754729 0.8348046803459046,-0.7503442025125437 l0.7321131859691451,-0.6962188747381146 0.8536191407331152,-0.4691833506749582 l0.4984648945888476,-0.4502732713180806 0.29856724277822005,-0.24572374764102586 l0.14807968457826132,-0.03581551488795032 0.03287011063327405,0.07671493994854482 l-0.04038118936422799,0.24516897497177573 0.009103999511614856,0.4966641677005086 l-0.004776629044101989,0.6187261846078592 -0.01418259292811467,0.6318037422033722 l0.2225959590639288,0.6500288749713456 0.30923365427665034,0.423269891713863 l0.48373389920210735,0.2974887481639314 0.717861556734553,0.1475030037336574 l0.6953864475673385,-0.1254104994614977 0.8532338291805693,-0.2417603505048347 l0.9484756984848287,-0.4379726494065249 0.9632999457124266,-0.5643608926250039 l0.9593139114922361,-0.6651401927941673 0.7464367505825746,-0.696166832633565 l0.7520884955790613,-0.5729653258194286 0.4757058344617147,-0.49204821911160745 l0.26211392558970936,-0.25971784381760005 0.14283708417639684,-0.04532988677008545 l-0.05131417979410588,0.04816908713920645 0.0045508119238046665,0.09286730455350342 l-0.03286168144394553,0.07654292010200044 -0.12967062064895404,0.10667878108484742 l-0.07649558982187432,0.532284397283325 -0.09392033766831875,0.7355611418173347 l-0.12717872593424404,0.7343749856779305 -0.07520254811538668,0.6438935516975793 l0.16287362085901902,0.5856648819031091 0.21896846325131042,0.4198293356545751 l0.2862532676919454,0.2756083131053853 0.4237234406095487,0.10510761328839839 l0.6257713977465074,0.011651499846356252 0.6690844687641183,-0.205212374566816 l0.7833004685311933,-0.42442913478697647 0.7094545716447467,-0.5750502192655959 l0.7765038254127475,-0.5737230895356491 0.6950894397819897,-0.5857259989936465 l0.53608731325166,-0.5962242236835782 0.48171601635912475,-0.4244685284075531 l0.32660108551109207,-0.3315019425772432 0.20413195147529212,-0.20834894120226446 l-0.11386254989527242,-0.15287059282143217 m-0.05302720855262144,2.204089024246019 l0.06269251571119545,0.7395193233353066 0.028769839106983823,0.7908432390744238 l-0.009883310440528134,0.8032182093162353 0.08329598838621657,0.8723065728236944 l-0.022629829760017723,0.8851664349292028 -0.034351480729318165,0.9818383607267516 l-0.04736360257708938,0.9663081876172385 0.005554482181293535,0.9456622844990086 l-0.12043792224115774,0.7201969691902451 -0.09776239902117398,0.5582448416396738 l-0.044916105275557776,0.32916163750588856 -0.04476419328776759,-0.02927387211690119 l0.04937466813726729,-0.02684811805800648 -0.060745009489715555,-0.29705445099833183 l0.07530965144250482,-0.6240279908752688 0.0800752803677714,-0.9011147791090798 l0.18706025810218044,-1.0533091267168897 0.26165199773670444,-1.1466903573619556 l0.26009345321014427,-1.1762201961279837 0.3481726537069238,-1.1552516415937941 l0.40324156077218143,-1.0414785384180845 0.49648464417508564,-0.8938050385640506 l0.5638437107957064,-0.7422758938234482 0.6371986535711271,-0.6196435556729091 l0.6994978620984703,-0.466367863213921 0.6226488600318797,-0.25556684398645846 l0.6316153456083013,-0.04765906223371738 0.5113350181182349,0.09956537325386486 l0.6331227195864437,0.3273977916068388 0.5337618273795429,0.4448394104408731 l0.44785363967686664,0.4901365943057002 0.30410230290666945,0.4713613048346533 l0.2803963203786938,0.41993973482419 -0.09824793793921723,0.29684521776505085 l-0.060805585519965476,0.36156590449798365 -0.18706047249851696,0.24878317209081485 l-0.3221190501924131,0.12604300823496073 -0.2933109018348972,0.07932671047881588 l-0.32357306789529405,0.02079582777414322 -0.3797219966112463,-0.09858900036599388 l-0.22399355404866267,-0.04973323263396843 -0.11053981325949279,-0.04933087672606658 l-0.04109569272025605,-0.04762854834566059 0.027116539110090123,-0.033835890882371746 l0.05123924420465002,-0.01721534743718084 0.14768419965179297,-0.039400225131766727 l0.1081454383004445,-0.06453535683302583 0.20726110092994918,-0.027985747243496648 l0.20435140559981035,-0.0011743541131809944 -0.012743982352459448,-0.1536754114245828 l0.21869777732315507,0.024385393900224886 0.14575104853789217,-0.07016258973474614 l0.1788119588093135,-0.11654085839857004 0.28504529259944683,-0.1471056893048637 l0.36028310779613393,-0.22915539001518268 0.3753747582270214,-0.29331376569712775 l0.3634644478259615,-0.3056310942968105 0.44390495820301107,-0.34419223165166135 l0.4063667837296469,-0.3575386136527938 m2.6297227306764794,-4.215926290095125 l-0.051083414859683735,-0.08088195087305905 -0.10303944642782606,-0.025119691577062522 l-0.05519872531263674,0.037486915246517614 0.008986051022227506,0.12309775565225994 l-0.1228270839809056,0.4152420089583584 -0.1065429808596734,0.656426828233964 l-0.20446574626719444,0.807179936638335 -0.20903037644463424,0.9336163311631931 l-0.17155288251041123,0.9213126364986646 -0.04593052460399721,1.0077426127770321 l-0.16259797882496124,0.9613573327105585 0.06906193102820883,0.9065543133376217 l0.198239809027775,0.8227655456203399 0.2910344485112063,0.631638606717753 l0.36680385679627986,0.480023504934065 0.4506643601552828,0.30250177995595184 l0.42744524126561556,0.155340499241785 0.5307830907260818,0.052512890333390315 l0.594798652009066,-0.16411408574616537 0.7976782427015442,-0.2633736554838579 l0.822805373335482,-0.4678534355086267 0.7542147862699942,-0.5837409305825565 l0.7787899961679701,-0.6184197656630094 0.570939726901636,-0.6864663768580891 l0.6099453145389213,-0.633318716533425 0.30892562137545604,-0.600501409008605 l0.07170965720949138,-0.4664076451680864 -0.0650938506737785,-0.3067459048883633 l-0.3147968997127819,-0.2600858172999966 -0.3061561042555874,-0.1837858941275408 l-0.4299672063070139,-0.05760709005887408 -0.46178710489441177,0.049913290424557645 l-0.5839911905669256,0.09750103863698303 -0.6032563496856542,0.1995713383403433 l-0.5343313240756842,0.3569151262649485 -0.545882022016738,0.3594966293213186 l-0.4366348636563434,0.44990286049076467 -0.3068698311945187,0.43296041165937027 l-0.17088715524984693,0.4791658801852145 0.02667752224601135,0.4894429543858389 l0.2238768183820179,0.5056430933067766 0.4202813055203919,0.4880371377244297 l0.5916131981391318,0.4925677539625323 0.7038957747826184,0.40250451620993216 l0.8603521361406408,0.40880518204416055 1.050452340206594,0.15262908683627158 l1.2739150328353797,0.06685676974229927 1.3845608165962864,-0.045499703909772114 l1.3995014819753944,-0.14791339963914552 1.3360841817039026,-0.11169721863076543 l1.2523811329147692,-0.0012224706092513807 0.8248697089284299,-0.11687883933985063 m16.378569732868627,-12.012169520110682 l-0.04828717319999597,-0.04829310180124133 0.042424807264723384,0.13666660847963186 l-0.05972774990487382,-0.00046777116102717994 -0.029048167113497766,0.3592162019742571 l-0.05739577855739869,0.780791547761929 -0.27016035576260483,0.9489114341656768 l-0.26341096935012626,1.1782728878068025 -0.2570751383926187,1.3006690738852587 l-0.4062588583455282,1.258340944919941 -0.14295073757575033,1.247757516561755 l0.07033364307344979,1.0958592714293172 0.26784675683350945,0.8449536009106186 l0.5188871159004862,0.5707321129290818 0.6095337741299192,0.2876607921283325 l0.7389862688469145,0.012416574437175358 0.9547454878430917,-0.25076404036955785 l1.0588956713264657,-0.44478009602611746 1.1146924541677516,-0.4932354350831114 l0.9286490054334045,-0.5806967342320032 0.7353860986006867,-0.611283230364421 m-8.549111531140369,-1.9437742261069213 l-0.12622679147943192,-0.19492633955308464 0.250913943879396,-0.06128137383243864 l0.49969318090568016,-0.26978889538801337 0.7350578542319475,-0.3276211609831865 l0.7792231845045787,-0.3259830999158531 0.8062925210199304,-0.3548733434508781 l0.7857566606191523,-0.36190068182173085 0.7655873486111692,-0.3170757768923689 l0.755937451305406,-0.2426163669427414 0.6284720853026659,-0.27131655605178956 l0.6582300016159202,-0.1957093002842159 0.504858783393839,-0.1866644969224647 m1.2711873054157714,4.00303635755018 l0.33924707063556525,-0.017103666870535883 0.38863642396790604,-0.09850794514686738 l0.7152641640667693,-0.16784607215230632 0.7807767666116967,-0.36878589633713166 l0.6997087267275465,-0.4217965633281926 0.5115966490994752,-0.4198332657081266 l0.39966636230862895,-0.38516867044701525 0.16665164651354758,-0.336231059934538 l-0.009482727748139803,-0.27013880311586613 -0.21647421563436253,-0.21677640469451415 l-0.2590863788658794,-0.1647027018173328 -0.3820560833828339,-0.18941611745549422 l-0.3843896641950825,-0.0847088166788908 -0.5442807297621641,-0.006319845404582396 l-0.5625953526649936,0.13321785983858989 -0.5719480369794969,0.25126652821933004 l-0.37846349494267373,0.3506455072233061 -0.3518950535357,0.3952424436149411 l-0.30864609691465794,0.48457419393887763 -0.11769661442165688,0.5884194133947348 l-0.05922508061742017,0.6249796083695884 0.05182856711158014,0.6571999126424326 l0.2911819444182709,0.6358415915264747 0.3057816743019591,0.6047026489531667 l0.502648496594083,0.5263633086215428 0.6205701325007628,0.38836494610991285 l0.7352922652059891,0.21812042784677357 0.8658179261110608,0.032073359333791636 l1.0223629723026093,-0.16034523418459468 0.9659885590041528,-0.45638958904394444 l1.096398302560229,-0.5793491867743105 0.967364745721948,-0.7703797916053168 l0.8093507084773698,-0.7878623304627956 0.6944083992358684,-0.7905618631717017 l0.5934498497938177,-0.7493894083000452 0.3380869496671527,-0.6852490600337501 l0.3449206753878829,-0.5687409651677043 0.22013493199701184,-0.5091203837836034 l0.09878453170379761,-0.31289494710166144 0.024764215971869688,-0.0003597817198021378 m-5.611907684223677,0.4608117817058199 l-0.25361250528414137,0.13389339027119124 -0.12167476077669673,0.05831393603598114 l0.051201353968233415,0.23003116608394902 0.024522222431601362,0.3344892269970476 l0.02256405058146861,0.4474406219762955 0.14332157348693525,0.5658448735025303 l0.1423901101892269,0.6193079181417211 0.2711230778886599,0.6615657538195221 l0.36976991842948337,0.6483910836841134 0.5823937843384503,0.5460255645034723 l0.7894421006604546,0.41365769555850174 1.0557150295492579,0.19344433283478807 l1.2562045584101758,-0.025467688565515845 1.3127770623215387,-0.28387137176692756 l1.25375674789534,-0.43383864078329554 1.1961383953497835,-0.5754489585714913 l1.015480039796806,-0.6464295947639624 0.8463297764356189,-0.7137613600526524 l0.5273363242267579,-0.7731285952674363 0.39033879923339354,-0.7029230949991828 l0.061052591628444126,-0.6788770185461581 -0.111159414504239,-0.5537316559487855 l-0.2633688151100612,-0.4477217628099096 -0.34045822952783317,-0.27582318487472235 l-0.4878925546292556,-0.23195813863863826 -0.5415379454179817,0.01473606793473655 l-0.5156679942587705,0.1826126699435396 -0.5746860479249019,0.48009542041298503 l-0.6476659045981926,0.6704833476629202 -0.6061001709787163,0.8545201083704037 l-0.5513338338077781,0.9289423075379664 -0.376885917904669,0.957394984233982 l-0.22231562415036477,0.8572085914148999 0.11086621831869115,0.8389160046859889 l0.19230058878694006,0.7057240445558641 0.3782460599224753,0.5217430058916228 l0.6533910496643619,0.4932363786789347 0.6305670034765933,0.28855903517203846 l0.7164327712518076,0.11113963663074818 0.82113573847216,-0.15254850589812602 l0.9162765886058034,-0.43877522755054077 0.9218326205926844,-0.7204712162334853 l0.9305457698146293,-0.9639231667056175 1.1544097033067673,-1.08456440190063 l0.9941911313432645,-1.3335288020233376 0.9542366545042889,-1.4500084635572732 l0.8625902122944699,-1.4717733768478942 0.684847051309457,-1.4536436913786406 l0.7579481214747207,-1.2787578004736844 0.47820974231560004,-1.2122791379529252 l0.38881652727630883,-1.0394610659993695 0.3327844339731368,-0.7580916555078442 l0.10421591550477272,-0.4144192040567422 -0.11723875848592911,-0.15086765477025896 l0.026516166017519778,0.07413778174795502 -0.07292948694173101,0.06919768715046345 l0.014727621014380247,0.0810746219480064 0.005796771215956122,0.43098383168451837 l0.015426369930752859,0.8126260590751885 -0.01120963594488146,1.121438257464486 l-0.03724503161618587,1.2789299626843817 -0.07843009017661057,1.3889441310917456 l-0.076961674927601,1.422711906818987 -0.0698436795254764,1.400518751508318 l0.08371401291857425,1.2761832592850226 0.13085007486173386,1.0579654479004033 l0.19401440530921554,0.8469728849470383 0.3314373847075288,0.6638370145283439 l0.4579712935198087,0.48274803791155974 0.43623965616187427,0.20457672264027468 l0.5947275811721298,0.07106604378324659 0.5507521296982424,-0.20683445735930883 l0.660438456708053,-0.4180375063804605 0.7025312417246213,-0.5908436161273518 l0.6657590267682058,-0.6657028928383504 0.4746549417512024,-0.7114434802235425 l0.33789501352818274,-0.693423896870353 0.13911021743767457,-0.6647793482499126 l0.04644306995292814,-0.5952562814787963 0.09685895134399854,-0.32895240689499927 l-0.08117584502434233,-0.14167502263079168 -0.10581683780499648,0.027307223634678246 l-0.0880367920053563,0.09574315238964268 -0.05159258388356523,0.11223854829501151 l-0.08719134219119992,0.3769489305895417 -0.11576535450374055,0.7112162254296653 l-0.02432314274385181,0.8201631354115978 0.010769336091074111,0.7773053457890134 l0.23950119594374436,0.7966853838795265 0.3449788325842118,0.6821852115677306 l0.6063389843268685,0.6162485085011322 0.678058700197304,0.30547859412818296 l0.9115093182038211,0.17452689817696176 0.9987018745584473,-0.14826858466406523 l1.1431167945567555,-0.3862156906798444 1.247506788190455,-0.6271574580633265 l1.1682186821618616,-0.7974035755560323 1.0606933342450524,-0.8748615783908148 l0.9227724279549366,-0.8558096542498452 0.6156949493879027,-0.8164185212991611 l0.4983979327844523,-0.6046276964941021 0.25697845390426044,-0.5428331745526019 l0.11812995267718021,-0.4087760384795073 -0.013520227118153575,-0.12767886990870367 l-0.08766326412976569,-0.0045449966951066 0.013937894615011617,0.08371185650400813 l-0.046392880089051375,0.09321417629762521 -0.10582398491102488,0.07922658127324503 l-0.0300763665273254,0.07321405691339525 0.038035012448570396,0.13963583756088127 l0.013575603978002004,0.10259875516870345 0.03813669864619422,0.06732523329275895 l0.09377108000726034,0.057628113929913204 0.006198184387172484,-6.423136632875985e-05 l-0.16521819433274887,-0.1466175308273311 0.14976720434017515,0.12981371551755355 l0.0011229975802169309,0.00022560686828992802 0.0061119564089561155,0.00042185447911908614 l-0.00994021611736837,6.259921208977352e-05 0.004284089871008571,0.00040984816457917774 l-0.0023852136075812377,0.00039427890142928844 -0.004756882201851012,0.0005826991040133957 l-0.007025884488876977,0.0001269822226361992 -0.00029115007772805793,0.0005526830606382597 l0.009123818749030843,0.01936321694460702 -0.007294587230021132,0.00031297526643785155 l-0.005128866102359407,0.00013067158940910476 0.05546656510789232,0.0423420633987292 l-0.008327425147884938,-0.02090414045867389 -0.006215808295137171,0.0006183867077338542 l0.013621723400231307,0.017857824428089315 -0.01296906674571875,0.0006368457578921355 l-0.01684853141365457,0.000372138757874799 -0.0006907890631999893,0.0003410629086672965 l0.009686208434949752,0.02825524247970572 -0.012108276152993595,0.0006068174761017614 l-0.0020690557991160643,0.00016383436860547965 -0.1193321694962681,-0.16093888728588754 l0.11811021173829626,0.11706481021596137 -0.01296581724266226,0.00031185379905890266 l0.0019855375202279075,0.0008302618985028779 -0.011140209981550176,0.0005715628008787156 l-0.011329303008442287,4.028670617175746e-05 -0.004035757304138587,0.0003167896828006863 l0.021301191497493228,-0.00238155461487596 -0.01608024503473294,0.0002559792442564446 l-0.00848702300183716,0.000399433715162134 -0.01144436387212056,0.0003815880450519929 l-0.0008582924535934549,0.0002844948935219052 -0.12262481522332713,-0.16243383561317934 l0.007084745891369698,0.0004428344015807172 0.05260775216167893,0.04605472076268761 l-0.0015659216938315786,0.0008237030547323949 -0.0024755967616446875,0.0007623801084644384 l-0.012691970998407406,0.0004709226254566109 -0.015302070003974806,0.0005862115007460676 l-0.011900918018823517,0.0003585503833276341 0.0023199572952702138,0.0004954248959729522 l0.04399389637900008,0.0240868510019376 -0.007862350762711334,0.00048136815481901056 l-0.010141785508214278,0.0005262723320087291 -0.13041470324085197,-0.15912206692828837 " fill="none" stroke="black" stroke-width="1" /></svg>