<?xml version="1.0" encoding="utf-8" ?>
<svg baseProfile="full" height="80.92295549493221" version="1.1" width="530.3062216989831" xmlns="http://www.w3.org/2000/svg" xmlns:ev="http://www.w3.org/2001/xml-events" xmlns:xlink="http://www.w3.org/1999/xlink"><defs /><rect fill="white" height="80.92295549493221" width="530.3062216989831" x="0" y="0" /><path d="M25,29.24387981396972 m0.08970905090489444,-0.008475244166465836 l0.41352108112186425,0.033467076632942606 0.4800329804620581,-0.22371371091990852 l0.7617155314317103,-0.3414948579854037 1.051734685981541,-0.38741749539647763 l1.2848006485827916,-0.3943176269491409 1.554435134057682,-0.34084919097736316 l1.6240410803836782,-0.40917730344062225 1.706971883813832,-0.5089686512549668 l1.8097881078187252,-0.4573025107179018 1.694257616792265,-0.4623725712522219 l1.4399131536946754,-0.40647375578205325 1.166140079571452,-0.22428141530722212 l0.6646770237387394,0.0006103515755983629 0.20050321518545064,0.05813595654111967 l-0.056053463439130466,0.0022342194706939035 m-4.492803096846329,2.5110194684412175 l-0.03482483321749061,0.07657694810788133 -0.04334926625192095,-0.12004780745285173 l-0.09747210148854671,0.3202149271844061 -0.41478952765518706,1.0287911892458028 l-0.4650409519389854,1.4267126321578363 -0.560522377671961,1.687937974975689 l-0.5463887454306916,1.8360171317732394 -0.471054762537244,2.0194473266771897 l-0.40482664100769533,2.1751794814018037 -0.46939054132960983,2.0501956938449752 l-0.4258929488079572,1.8819024562667035 -0.13671675326721283,1.3631809949710412 l0.24573606239885334,0.5731835364002317 0.5580640434020537,-0.21697962287142208 l0.8454918265979089,-1.1485642194572454 1.0449800491020946,-1.8593740462152049 m6.308260917466911,-11.510816574106869 l0.7913635374122225,-0.9312883020456127 0.4651250244354555,-0.19617682695584585 l-0.07819481946868641,-0.006808090469056792 -0.14221389594799655,0.4292095603305754 l-0.27075317515063047,1.2821704149188418 -0.32949694997104995,1.8879687785340158 l-0.5322487355950486,2.3260464668743768 -0.4780240354738202,2.4367139340179254 l-0.4331587553112476,2.2444319724683557 -0.3736110031135652,1.849765658328515 l-0.2285384386995813,1.4246938228494883 0.010906338623307352,0.8449930548532103 l0.16806557776474546,0.2311635164895474 0.18788236366975403,-0.015574820489977282 l0.34376385828693146,-0.4372541010955141 0.6865666509477301,-1.1819455623759154 l0.8967877627770605,-1.5133032798796733 1.031682252984626,-1.53216314313633 l1.103284597290678,-1.4025144577172848 1.0854483843023774,-1.1196544169458447 l0.9698780774973007,-0.7236026526268765 0.7241580488021532,-0.2659633457986321 l0.41894125921698455,0.1231562197389772 0.20939607930453116,0.43510904908536097 l0.15877118712883795,1.1171386243375592 -0.04461394615608985,1.4205402136450098 l0.012361656964226572,1.4632860422227372 0.16500003630933296,1.2470865249097747 l0.32118821137123715,0.8877862692699763 0.5588327645928662,0.5018419026485552 l0.8036532402938182,0.09846095746500014 1.0256235600524428,-0.42932692193883776 l1.2926276921583058,-0.9754435419527884 1.4564290046740147,-1.3761285544499622 l1.4803442955113877,-1.5915589330988142 1.3988465070379967,-1.5242023467274923 l1.2698594331692796,-1.2519315481160485 0.970546364921905,-0.845691323329756 l0.5565355419484345,-0.29856172198093467 0.17182721200771445,0.11642999949435807 l-0.04163730896883799,0.20733371389879285 -0.21334876135439831,0.9509230854422982 l-0.5432816146362227,1.483714699871735 -0.6238017678149724,1.6735041141565528 l-0.5029675959677076,1.6813517809929561 -0.18963339912930688,1.4623694420461937 l0.18038335435413594,1.1268731356434092 0.5406209826461311,0.7727786303902097 l0.8215935230961885,0.3726754189379154 1.1040570737480044,-0.12079367036066654 l1.3390507696924754,-0.7229552864716589 1.587240696039952,-1.191000103948408 l1.7250530718800567,-1.4842504262196787 1.822973489748231,-1.5840660333112988 l1.7792439462938054,-1.5654845238774233 1.609675645843571,-1.3792698383203534 l1.3964685202616292,-0.9702498912469535 1.0989134313446114,-0.5196917653823983 l0.7316067814518822,-0.033021655029282324 0.43781480184173327,0.3872165680322185 l0.21321633462227366,0.7839390039270889 -0.08689428884458597,1.1672300101645874 l-0.3256441056464671,1.461831569684564 -0.5875068306615732,1.5881588459283582 l-0.8539437651072702,1.4313281774432824 -0.9037610888995343,1.1409255266664806 l-0.8744271992455475,0.7711297867926926 -0.8630484343108867,0.39570564027786287 l-0.8533051014866078,0.11658830933612134 -0.7983661891084267,-0.07928644859629586 l-0.6502884029142846,-0.20321227608894693 m21.633966445876442,-8.678032875055663 l-0.012280709882018367,-0.1894531101120892 0.060978613957662096,-0.010166555751539018 l-0.023338127804093747,-0.001096653064824208 0.005867555826246102,0.001001387924933639 l-0.02288703595129928,0.06385473903269259 -0.12401822962997223,0.6230450868501023 l-0.33860361586946236,1.1302840710546787 -0.4011552035746677,1.2670534850192026 l-0.2953179182207707,1.3372262716465821 -0.09805989256308603,1.2627418042919516 l0.10342976449186483,0.9781042337259278 0.36520132420465207,0.7055644989190615 l0.6270530225876082,0.42386770248446465 0.9017938377505714,0.1470987349114598 l1.1313077211558882,-0.3050611914225919 1.3728092909281837,-0.7449116706789812 l1.5015835761201366,-1.0872188805595633 1.5798081159612987,-1.3150794506716612 l1.594097494900669,-1.3981082439261536 1.5322935582281243,-1.2459317446375446 l1.3362339734798265,-0.8806678653267862 1.104086041461097,-0.41946098208555965 l0.7903464436286806,-0.05353566994073703 0.5838598012971149,0.30125862342222937 l0.3956817388474997,0.5798954369020095 0.20962895456659256,0.7269071339626035 l0.0607819706206206,0.8843733668346865 -0.07038877894059062,1.008297801030043 l-0.2638874352537638,1.01795542241346 -0.4818325338937184,0.9407429696620054 l-0.6158196330614631,0.7728163600927589 -0.7062008977162003,0.5636028647131303 l-0.8328387141764807,0.3166907729085229 -0.9223034977512653,0.13509412116397623 l-1.0078847406740574,-0.002326703345034645 -1.0203480718751252,-0.12132224450061586 m-6.802129745453224,-13.776396751250575 l-0.39907854807049736,-0.19309566917274176 0.18946400302044816,0.19081339245373796 l0.01112103088124087,-0.003170483079499069 0.12025377901181142,0.1947222649760205 m26.105501174783136,7.712481975347315 l-0.3556534350143853,-0.5881177785081926 -0.3943356871585693,-0.6047329306955233 l-0.47968533625312476,-0.4292356968733003 -0.5152825713289191,-0.15905137350523088 l-0.6856234074548083,0.049913861025815374 -0.980291128140097,0.45926275859490684 l-1.0927519799339453,0.9772485493753 -1.1514418123829468,1.4705785511769802 l-1.0693829061074036,1.6563326120619601 -0.6832302808558355,1.7977973223130763 l-0.13921058178306897,1.4148979187484196 0.34647503494229265,0.9660767913913129 l0.6871191858970395,0.4827857913136023 1.0726196767912584,0.07852545392978712 l1.3025710581466303,-0.5105529428111529 1.4649389982619572,-0.9176880121966734 l1.4385210275146632,-1.2149809597927868 1.34278428549346,-1.3301497696773092 l1.1010843516782935,-1.2648359535784475 0.7282434702807222,-1.0823489428026127 l0.3426157535529803,-0.6883397102840507 0.026165688384552757,-0.17546927931592624 l-0.069322258222235,0.07520759107273668 -0.17686368516803122,0.14087611418962945 l-0.4252831338959427,0.9620625973362193 -0.4463786185828661,1.4682353735597875 l-0.23322685059729328,1.5379080773186806 0.06003305319471317,1.4354252815306856 l0.5093669298109917,1.1846158504284814 0.9619821309447988,0.8920149802809861 l1.3683009145857885,0.5373996497201972 1.769750237428002,0.08666114501910084 m14.061617851207195,-14.372599601690201 l-0.014481464437656263,0.009706497109490567 0.07604502130107604,0.10777655988040084 l-0.05265625184331656,-0.00019516833931241374 0.04714284102331627,0.23240749543848468 l-0.0010230170834639482,0.7546547651848827 -0.16455155623102113,1.1979421377312205 l-0.2895631790637011,1.5190769434482079 -0.294187903477279,1.9042481185994065 l-0.241897359360185,2.094999313179613 -0.15373334274928072,2.164177894743053 l-0.1575756073066137,2.042684554954224 -0.20761042822092587,1.804821133563223 l-0.1470379978118669,1.3664096594672335 0.05356057000854206,0.7552521228111836 l0.2814344764409007,0.21543276293652497 0.24452780181437153,-0.14971393359414914 l0.5661089420751173,-0.6898405552249428 0.8591404557722873,-1.3092315197785662 l1.0289704799349186,-1.563290238346576 1.212209463049065,-1.5573403834949122 l1.2888957262715224,-1.377710819288683 1.2485181093243045,-1.051923870950218 l1.11619031428275,-0.5720112918256901 0.872976362833523,-0.0510249099887982 l0.5326188207953847,0.43612605324209136 0.2861179410788381,0.9082171320181143 l0.06313391775387699,1.3381575346075993 -0.07701902078396244,1.490764260216856 l-0.08364270635266303,1.3902797699056475 0.11244888622096373,1.1255526542199863 l0.45004126425718877,0.7479375004117531 0.7211291787651163,0.3677346109652609 m9.95936870572509,-6.249058723447248 l0.011671610286841116,-0.34133997556776374 -0.12197539202682146,-0.36782011383173335 l-0.2779870927142618,-0.3322629630100411 -0.3945239485422072,-0.25849789391232714 l-0.6071737410083713,-0.09668011976054046 -0.8353485466893378,0.1565642654978087 l-0.9623998999507472,0.612712264083873 -1.1137363910197364,1.0141869782795456 l-0.8700870872769856,1.3351340293758374 -0.5872544646307677,1.3513288498542113 l-0.28191402562471135,1.1658972500307379 0.07287336125798946,0.8572242854666968 l0.37143075462421893,0.5356668234395439 0.6902691721611256,0.20277479296734127 l0.8957772254348919,-0.21678164604496816 1.0919094086426364,-0.6443110107415306 l1.1918209789742142,-1.0044499637335274 1.1342380045589027,-1.2347171307179419 l0.9848451614699388,-1.2831050158729196 0.7398854492759167,-1.1964219809121204 l0.4547349214373442,-0.9438439608250855 0.16181974118608092,-0.548606097788191 l-0.023552514710680258,-0.12054418025829958 -0.0647272020418959,0.09202515348147794 l-0.1264169961376068,0.1841736734194444 -0.25953605745332153,0.8563514352033058 l-0.29009413733161726,1.330370068616079 -0.16099731619107335,1.339898586304772 l0.10082730653908195,1.2224682568928473 0.3826958237497148,0.9658439757228348 l0.656818449365611,0.5940793752000084 0.9845456481062718,0.27937126154513653 l1.1720165014045711,-0.06582808492927454 1.2155729531522037,-0.5203914046490707 l1.2631584406555345,-0.8133847116830782 1.2038028240327519,-1.0571539402287493 l1.028059005792609,-1.2056435347499719 0.8422052263858438,-1.183390736506288 l0.6267609596627388,-0.9917691350577771 0.3296967743362693,-0.6676687599283775 l0.04284444820809009,-0.15616087623136768 -0.04243928942665266,0.06533475228428234 l-0.11008712650847727,0.15105983610167437 -0.24200002857831757,0.8511134981279833 l-0.28102368124244925,1.2543673515992337 -0.22334648646114566,1.3524411914856997 l-0.1256315409361348,1.3067756891526252 0.004122357804113073,1.0545915366334235 l0.1749926804635843,0.7500478028661339 0.306895226268385,0.41628563399142154 l0.32918161152206216,0.10996836425627525 0.41019952297116197,-0.13167727002331378 l0.5590588449548949,-0.5771379470420942 0.7734192609586993,-1.019553899892017 l0.9290436504401649,-1.1827423573190199 0.9665582180457233,-1.2215760946394982 l0.9257709980069673,-1.08319199076966 0.8827357889919301,-0.857445597375014 l0.7960861324001003,-0.5874356031719489 0.6007853747463717,-0.24965918068333648 l0.35323858263738234,0.05855929113269031 0.248185604851851,0.4378665686458179 l0.0866902024218075,0.8310732841169648 -0.05244670442013742,1.1148926019823788 l-0.07896675173546895,1.1976217033016605 0.035691808830862586,1.1301968098371338 l0.23342649643277077,0.9146225451557453 0.46225652078697155,0.6493459342932301 l0.6820208430229248,0.3741567134926505 0.882881641321637,0.12882634992284656 l1.024877786678948,-0.29493939886929926 1.2068879603972769,-0.599669873637197 m7.28204202644606,-4.104485512109442 l0.013249732679203262,-0.16090112927434172 -0.21411359296449653,-0.31811422103319115 l-0.2550575136957358,-0.3366719782536577 -0.4639059900897826,-0.3507243990366942 l-0.5830627084421156,-0.2372118382861815 -0.7580531240912595,-0.09188646080024146 l-0.8854191303237677,0.1141272187405859 -0.9684680701035036,0.37347137931729435 l-0.8641831280422446,0.6069355608343289 -0.7042773961716395,0.8123213052335209 l-0.546484232078013,0.9320244193315199 -0.3150643409670377,0.9222171902233718 l-0.013546358760751165,0.8343815802937233 0.29546815146851063,0.6525111199764454 l0.5967636108522361,0.3769484162395233 0.8094428180979112,0.044843919583206916 l1.0083922146881674,-0.3334369361473227 1.1648225783912531,-0.7713392971935668 l1.2565379143901587,-1.1387186050156868 1.238449692734804,-1.4349027872336624 l1.1362204552467932,-1.6232161521423738 0.976904928767206,-1.740010380693236 l0.7992195486551725,-1.7464967965943374 0.5989664195438065,-1.684973835943117 l0.41910782479834985,-1.47766375542557 0.24041789787556858,-1.1669131517608289 l0.02096221972140502,-0.74024212362731 -0.047348424847319395,-0.15412679329929602 l-0.06031026694792562,0.10974034673019162 -0.11396609243681642,0.23898006973596356 l-0.2948073446782295,1.0626358986806677 -0.39899972081063145,1.5514531134057186 l-0.3576078714663003,1.8170967102508202 -0.2773662507794348,1.9672222138374278 l-0.1666993498091468,2.045220613410547 0.012732280319241516,2.007792949809386 l0.24741034199195105,1.8430166244205062 0.4594236611769042,1.5611979960174935 l0.6163160203601205,1.1436500548602917 0.8192273973799666,0.7176161406792511 m4.290570258987576,-9.2843904494654 l0.0002579448136033499,-0.20539627962431983 -0.05903844548879629,-0.22577437763207087 l-0.08870747686084557,-0.1275227663848191 0.1617390215475036,0.13650828613232374 l-0.05810478348998275,0.4561339318891397 -0.21208457648754933,1.0258564949759734 l-0.23194812221289896,1.306737542161032 -0.15696248415796113,1.3892593381186706 l0.008183382389742372,1.3380769490967384 0.20584042351327805,0.997582376006442 l0.44760948415256674,0.6515548825472315 0.694804310797579,0.29857224209958877 l0.9001500607190802,-0.037668038395263136 1.0005514621247542,-0.40114974984403706 l0.992001891152798,-0.6572423577922211 0.879762709133589,-0.7839517595085186 l0.6374015807236125,-0.7848381995923764 0.41232925656469077,-0.598874747798943 l0.12575107818143985,-0.20846807948600915 0.03170088305547653,0.008157283163443168 l-0.036573335592889195,0.05761479209004519 -0.008610419858128339,0.29180830720273127 l-0.08582635209014443,0.8130838870513843 0.04519992313565929,0.8216618299343281 l0.334987074260392,0.7461407778670328 0.6194901464879324,0.5946126580857936 l0.842934727634444,0.33044910434198593 0.9534926415564636,0.039163321121311816 l1.0134552716651855,-0.21749097097538952 0.9730483890311125,-0.4655839801946135 l0.8598688244874009,-0.7105289099006384 0.6912872195065987,-0.9255877135991196 l0.4352516532492617,-1.0684350728435148 0.0914783181006939,-1.0895912645094188 l-0.2155071050625446,-1.0062654016818369 -0.4909786282812383,-0.9017064570924884 l-0.6370931267594171,-0.666393876135595 -0.6281453969597928,-0.3557309806708561 l-0.5406835675122789,-0.1117998362559578 -0.43481904272013094,0.10372570153120864 m6.3311538698249334,1.024585485447478 l0.18628936994902093,-0.1995999066737035 0.21450936787670147,-0.0226349085729519 l0.2763647733892812,0.11863973745313476 0.057160794774088,0.221096784028798 l0.09934859730758512,0.6186944248221995 -0.07536713781794188,0.8905133603593868 l-0.14109386493495868,1.0969802140957945 -0.12018951761648883,1.17236495026055 l-0.03175401318516913,1.1222701072345906 0.0926254391866416,0.9668887854547202 l0.2153787762086625,0.7096243500728547 0.2597223819621084,0.308901697395255 l0.2579815983331855,0.0634457394475157 0.1294889003664841,-0.1849665641637872 l0.21308872110858387,-0.6655616760891715 0.33217802657794276,-1.1489779949063867 l0.33446121220907915,-1.3214390277859187 0.3385569154880908,-1.3822206258924872 l0.35005486017653653,-1.2650709150627975 0.3301013707988085,-1.0728287699120065 l0.33671322454508873,-0.7922331690167066 0.4003733693664721,-0.48693343993636373 l0.44800421594704454,-0.22131663532970688 0.5342389346429602,0.0015094467393856677 l0.6835722326909305,0.2572171090987908 0.7643142939717739,0.40912812960035366 l0.8480723500885158,0.47260931135620377 0.8780803084669204,0.42664659013909384 l0.8991176485985776,0.3625192641188299 0.8705126045351471,0.3014288843070508 l0.7880849839144042,0.23387852324589833 0.6697240472926321,0.23479625580964975 l0.4989185033578012,0.27230125678477196 0.36081799861741215,0.39877477295934877 l0.18524789800618682,0.555671393829539 0.03261898849817357,0.7260231972901092 l-0.04984108722766163,0.8628610970744511 -0.054608326321571594,0.9054442048465238 l0.027299210476482903,0.8891394734159774 0.1377869695915518,0.8850730657785443 l0.19215640396783354,0.7806276679146087 0.21338328706893736,0.6045957208270638 l0.22337275743550858,0.34197956333726665 0.3360897005572806,0.15705306824700946 m0.37409192309469225,-16.05209922779514 l-0.19902183122349384,-0.4468307494695961 0.02139696484279131,-0.15398958337447677 l0.06367339938281717,-0.10522386421500732 0.048717089016926333,0.07020913063950941 m7.407588958798742,-1.463569998711159 l0.02422246897378797,0.045965194530790704 0.058075502644034965,0.22367984049796535 l-0.032648205690817764,0.7033725380819953 -0.06840704360314878,1.1108615398148667 l-0.11395983395198363,1.444958329107911 -0.2750196158353712,1.6651256085631534 l-0.24864201237525332,1.878161907087368 -0.15023630860994389,1.9156655072581739 l-0.010644722813153774,1.8691062926347115 0.11576114583577132,1.7282567023622217 l0.23376812050738635,1.4229905604444832 0.3304018080683996,1.079239368549962 m-2.018243312945609,-6.212111949726114 l0.08751022806286779,-0.06012329465055966 0.3751365542377601,0.024201663148234246 l0.8450316785721875,0.024157131141011413 1.2499189377667435,0.10566658530480567 l1.3519914150918853,-0.0008456900101050698 1.4699932335386332,-0.07036619619801002 l1.4436864853293938,-0.18652886152667417 1.2920868397118628,-0.27821180211594765 l0.9711120724875568,-0.26988798372173356 0.6421553492314763,-0.17217077323220178 l0.40417370204485475,0.004244270792396167 0.21650055057398143,0.2145975826850059 l0.17431250217185745,0.47917538886335415 0.07243855293898048,0.7830132246409303 l0.0828637035421624,1.046683430632118 0.13640585533561897,1.2025721071623803 l0.21814070625798604,1.1927542688296953 0.29473805437887735,0.9988036751094783 l0.36818456633728563,0.7246858477171721 0.41991153363974104,0.44207453720433104 l0.41351169340515354,0.2006677836816581 0.3443951606858836,-0.24923256043379655 l0.3578072189158497,-0.7631413938430143 0.24402233973211132,-1.2086290120635543 m-2.2154581545299217,-11.270135879411331 l-0.21088080103884765,-0.5673710703282676 -0.014133442041484926,-0.18731775888215113 l0.12776365872490977,-0.03326018896764582 0.162147298339836,0.0328927785267555 m4.476972580025544,10.601781845155315 l0.3736943899759817,0.08079096698455276 0.12293741867742022,-0.11483292292804209 l0.22840406012497907,0.037181772327790484 0.051976043627848356,-0.15076589598243298 m-0.262923925951588,-0.16552969818148194 l0.10322922451970738,-0.22060899435930864 0.1468302310728742,-0.42389458435639266 l0.5517412424501354,-0.5851951839140237 0.7374409436186633,-0.7043521999929832 l0.7757712602606633,-0.6840519308354338 0.7978865504213952,-0.5894165635472605 l0.7366508841528345,-0.42993503790106014 0.6095002891428472,-0.20155754674826118 l0.503834962874098,0.09923385846204595 0.47987020004866626,0.4372325240078953 l0.34862416998439505,0.7246325610493782 0.17683312291548964,0.9688461422743547 l0.04177081938630799,1.0841753482702006 -0.03350802892624922,1.0802150964999055 l-0.03868338088613049,0.9583244324970372 0.006101392124131232,0.6389479637816858 l0.09480322898937255,0.20002342756983607 0.18542651843610236,-0.057571828517950854 l0.21541060489479796,-0.23692387346630564 0.649169564199005,-0.7086326479338457 l0.9178881048825124,-1.0530393123164068 1.0784058570140531,-1.0673477648653007 l1.1680102348026649,-0.9949088692071483 1.1201283931420305,-0.8394863009093749 l1.010156154608515,-0.6008646487478855 0.9088880419503763,-0.30852919835688086 l0.7540105580170369,0.07546634212590311 0.48418077828818123,0.3865030111842492 l0.2408987434923636,0.6932817697796451 0.09321761135009189,0.950970649655057 l0.0671999007790445,0.9849503039301117 0.15226605531223214,0.8754822017385373 l0.33490270363585684,0.7265529035751509 0.5684655308578886,0.4702525735402438 l0.7824273109334804,0.18879377853405216 m7.666896820087844,-3.1803095340318257 l0.21611464014206455,-0.5202733280244013 -0.0772514940035817,-0.6328051686129246 l-0.17513747503700888,-0.5337155460678357 -0.33453494294997327,-0.5144708155286128 l-0.5328631399940439,-0.39910942286365786 -0.6718872188983194,-0.2605028450484205 l-0.6909391879477714,-0.08530073630800857 -0.7341506481879946,0.09710449010342984 l-0.6503033636277783,0.2837136987375072 -0.5184870362792104,0.4734285771634214 l-0.32468122231059526,0.6665378212760882 -0.2636857330671589,0.7478707433397942 l-0.06976108257840262,0.7988902927702731 0.10255157946892708,0.7640160322472225 l0.2862771153760119,0.6090832950196979 0.4906949997268371,0.3639107047609584 l0.6379762887558076,0.1346880942563984 0.7629804014915227,-0.15271414821352566 l0.8457670808649018,-0.4473952353807568 0.8812425730263593,-0.6744519472833117 l0.8339643479263777,-0.7640058397798201 0.7058179378710292,-0.752662658801439 l0.4991548656026434,-0.6606367230332958 0.2459053845329655,-0.4914295970883506 l0.04127472647096116,-0.2820262313906798 -0.0018153190975884418,-0.02982592588091321 l-0.025270313030888586,0.08615269512432773 -0.10321950172581414,0.18132682133955072 l-0.13826809813252405,0.7071565985786511 -0.164577305415348,1.069900393602367 l-0.07903730861658764,1.173985123606785 0.05577367554948805,1.3685203790197393 l0.16784739488383443,1.4921045302893705 0.2168565839754741,1.6087681054240082 l0.17704862344867425,1.7166261672756273 0.05570857602717131,1.6958580017775908 l-0.10147346541434138,1.5369180440681787 -0.29940137253649657,1.3116852044543101 l-0.5008518696178821,1.0224120616864183 -0.713747084107651,0.6524040102405403 l-0.9091257452977842,0.26168271899701484 -1.005986929042936,-0.013712517028376364 l-1.0207034349195463,-0.3762415350264797 -0.8364464045245619,-0.6603184939603621 l-0.4329972567091802,-0.8645949958800636 -0.06029490008347807,-1.0683504344034496 l0.36224520222569745,-1.2424391507018273 0.8470984099743849,-1.2376002072455046 l1.1780970095458907,-1.202703356557824 1.4420049190458186,-0.9936578869718081 l1.5409593582705738,-0.7618133425616791 1.5925709009869509,-0.4654251336094273 l1.5309376715447587,-0.16071537138913855 1.3635113238541776,0.0007364040412646738 l1.119261264887806,0.05347524581939613 0.983489096014909,0.1255627722274308 m18.476423263730315,-0.6182056067626771 l0.029522128626841518,-0.4206820131333759 -0.03372674056040875,-0.5265100595103926 l-0.08077643812649844,-0.590098321400108 -0.20666752751962844,-0.6466447711139834 l-0.21498779942578586,-0.7064420581627062 -0.2413892299281154,-0.7479382157697873 l-0.27812597155646634,-0.7317011951793052 -0.39701113095550533,-0.694785416231281 l-0.47122183443149485,-0.604233443646847 -0.60445231192864,-0.4611738623455221 l-0.7272256017418834,-0.29857319613973404 -0.8566684125890722,-0.09508953259483893 l-0.8632833955656072,0.21385064726010286 -0.832067370399889,0.5412424804674585 l-0.7081103921001994,0.8896526097975656 -0.6049039961372323,1.1288468836391818 l-0.3702404200525064,1.1986036300790657 -0.03931263459216907,1.1867840292184708 l0.31740048521579967,0.9884160758622631 0.7427254914931035,0.6979649065789849 l1.100234508511922,0.2832629380518716 1.4122682808959657,-0.2003940045853402 l1.6089421509124942,-0.5869323609923023 1.6420450208424886,-0.8997517226085469 l1.6066620350144,-1.1282007695342455 1.5222158431553994,-1.2525429723627042 l1.3292849065336776,-1.2841721774588237 0.9973098636344641,-1.1861752275015858 l0.6060520409255674,-0.9144541025282094 0.28200954221523794,-0.5357892514231059 l0.005443837526909014,-0.16785439836578425 -0.029035694816509937,0.10681060689946259 l-0.11216680721568943,0.21186743683023057 -0.2559798955908492,1.022241354120838 l-0.3724755049052685,1.3760788442624203 -0.31568238126937936,1.7242485283452038 l-0.37915644054354236,2.069404125033029 -0.318755865047854,2.2798538207596306 l-0.22170291862577093,2.424229145198767 -0.20121508834254015,2.344833612476385 l-0.25241881605945937,2.1845290660994023 -0.4091930089858808,1.8760856392713172 l-0.521878778894114,1.412168860425234 -0.5234680771188246,0.9017115235266341 l-0.4917757213333462,0.2911565900284714 -0.4066812397825077,0.03016867495446328 l-0.6996797323374611,-0.49633273481408474 -0.6095379591296555,-0.7736257314195388 l-0.37772610771607223,-1.0078423022523448 -0.1939888000095713,-1.2317101954987146 l-0.005716443125559911,-1.416032433527132 0.26868420831539624,-1.445270419255317 l0.5095723867198119,-1.4054291247027855 0.6873950958919987,-1.2752580641777245 l0.779779791843828,-1.0549902916296487 0.8545262814573475,-0.8082908391833096 l0.9262789485173032,-0.5441706180475276 0.9630044698943285,-0.37416836619207033 l1.0083385706486745,-0.25555405024395544 1.0792391299159232,-0.18607361622117513 l1.144520521236749,-0.1596332194453789 1.1819456815488185,-0.21290385714456536 l1.2213056087111205,-0.3138621449837343 1.2267603872188797,-0.4396929443937093 l1.1670701503956096,-0.5827718378210786 1.0378600357941823,-0.7043871879449777 l0.7930636406908509,-0.8144876361427031 0.47084423916681317,-0.8733083605407571 l0.1793437600896813,-0.8108527660876967 -0.07182998941922887,-0.7046149372849911 l-0.28570139426114244,-0.5518608690048662 -0.4491722883290609,-0.38598778839277914 l-0.561426937527694,-0.20259407172729665 -0.6173895002250174,0.0333966874743378 l-0.6271231772760826,0.33313128352765653 -0.6028803585857108,0.6426594256806388 l-0.48025050761650356,0.8416478038662887 -0.2601047158359418,0.9192168117843209 l0.03249132646856668,0.9313521981289786 0.3177125156781713,0.8865182996040457 l0.6510269046957138,0.7604179978247038 0.9474354981806123,0.5826683045105855 l1.187235832141391,0.3719669281706904 1.3540693521201983,0.0887549072515676 l1.4128788709071747,-0.16698157782481535 1.35057306270439,-0.4084632396268262 l1.2516280413592817,-0.5797818302912802 1.0540635584913787,-0.7609145048696716 l0.7918884755103593,-0.9126453399250134 0.5698467492969869,-0.9810560345146287 l0.37983527771150977,-0.9533903600729948 0.1838126927010935,-0.8370925784871023 l0.045978855334771224,-0.6323788165927048 -0.038337629210397475,-0.40302470321871536 l-0.04849463700229343,-0.08875235931533791 -0.04520539938291199,0.07008871428696037 l-0.05435018979823992,0.11187110854043154 -0.01517471112717473,0.5538501739032272 l-0.012985052508358625,0.9975542426245196 0.08871196196425352,1.1579841375507463 l0.1133481412021889,1.1803469658637513 0.17786192888612645,1.0979734659420726 l0.2646588684183395,0.9260877968370029 0.34943026317540304,0.7001110910369877 l0.3920919001299913,0.3998451529896298 0.27429258843278886,0.09538200497085209 l0.20304562150537805,-0.08032579738182406 0.29254627228528773,-0.4180625082251047 l0.460452079914991,-0.8252117037179887 0.5979080797719344,-0.9283244610127747 l0.6374138594406229,-0.9842817186037204 0.6078013183473367,-0.9583501815545319 l0.6206448077022175,-0.8141026495512109 0.6012558937207887,-0.6505191327136135 l0.523517310606966,-0.4460628927116645 0.3454236387510944,-0.15552589312498483 l0.18981423966846725,0.09144362074300577 0.2508387266987622,0.41256660226998354 l0.2193278074007878,0.7545764445678937 0.1899387984242798,0.9650263786622223 l0.2448529302733897,1.0139683487597178 0.3737024366463788,0.9520969987033047 l0.5459737777925134,0.8036605716850916 0.7440541983041418,0.5928891895200186 l0.9263326526383561,0.3423346281636282 1.0722253322400646,0.05867971856894183 l1.1761596201043456,-0.2683724165291614 1.2094898223030244,-0.5680336356871096 l1.1403656004395188,-0.8010663389522171 1.0011209250057018,-0.9434661269882815 l0.7692602873659155,-1.0105752944719861 0.4500485062695764,-1.003317236941401 l0.12333942936933133,-0.865361511754125 -0.1441971213683544,-0.6780291199028201 l-0.4068371951701111,-0.4758132397768036 -0.6081408261298272,-0.2720648944465851 l-0.7281664014815799,-0.027450905975586148 -0.7525591254530537,0.25828087346694617 l-0.7154263256241556,0.5339714289038787 -0.6145654320506265,0.7878767251187727 l-0.4257983566841996,0.9438562392374158 -0.16291072980343219,1.011957287899155 l0.1416037679556983,1.0169363023096962 0.4611876012700874,0.9425320623979394 l0.7875281572304014,0.7859134675332281 1.0533988474625535,0.5810016394077067 l1.2533642051695677,0.33381089574171713 1.33537733563978,0.07814636831505946 l1.2989540099556232,-0.1632957607126979 1.185173869245232,-0.39545086030313503 l1.054234981271995,-0.5616952775834214 0.884573221280085,-0.7097619771828417 l0.6807104945467662,-0.8229296805399949 0.4574830829515615,-0.8449669480460623 l0.22953103477396358,-0.7733198403224819 0.022054601399897625,-0.634821236248275 l-0.09904693092372524,-0.4337126614978795 -0.1419903488292364,-0.23101735118973155 l-0.08921888477653148,-0.01248809692628452 -0.0686794965387335,0.1047656238182553 l-0.04247707134536609,0.4259704947111276 -0.09200315925688055,0.9238576294416496 l0.00023406366550924947,1.0221575498695268 0.0926218331133892,1.0438821317218494 l0.21394437543707595,1.0252742766322869 0.29363882542579295,0.8776143192194155 l0.33875694876937884,0.6604664327087189 0.2851758896482661,0.2902652024535799 l0.1468759178485127,0.020060643310689054 0.030339330345344702,-0.13733471929753066 l0.08269245922250511,-0.49290144440989475 0.12504667043688375,-0.9836295248600494 l0.10953451708517878,-1.1398750542603824 0.11948768778393319,-1.1937158108052053 l0.1336380392772628,-1.1603105067468276 0.1639247685210742,-1.1096436978577648 l0.22483269860413388,-0.974736213602272 0.3246819676145461,-0.7477997540879927 l0.4232796133800592,-0.49239209297597947 0.5290657876467005,-0.24137014151328404 m9.020397186284107,2.547753095687887 l0.09441775076595035,-0.37086817635620045 0.056881610268358335,-0.4258247612566663 l-0.253725469233919,-0.4440121055049142 -0.4541643858085271,-0.3930525183409014 l-0.563880979878559,-0.24175864451734635 -0.7326278091690513,-0.16383303702021887 l-0.8061658739731916,0.03177536650766419 -0.8312318920431965,0.2445015906522471 l-0.7503333688943277,0.46501189477051535 -0.6511062977563925,0.6516292096068084 l-0.5183289051392396,0.7989969849690401 -0.3430601358497009,0.9141206145734266 l-0.11455096290533143,0.9407451747577967 0.12507787349485885,0.8802718520793827 l0.3540000021259906,0.7140816449980402 0.544581711277979,0.4816128910182489 l0.6802023649698583,0.2680671811245727 0.7756762505907192,-0.015089125339462156 l0.8470671773288174,-0.35620194669262684 0.8824288249024571,-0.6529763936045583 l0.8000847100748163,-0.8616741298382874 0.6846584083540541,-0.9146861434269475 l0.524631202210513,-0.8614664673955168 0.3183864057319799,-0.7504422068837455 l0.1626726538133186,-0.5489879250456251 0.030340470473000473,-0.329824119687467 l0.00345730047151689,-0.058478534330051804 -0.012596860515504968,0.07394187903766104 l-0.007948532774512941,0.11413641277814461 0.0005977524824196249,0.47864246376037467 l0.016914118213412082,0.8793888688318959 0.12476651382693357,0.9675045013525005 l0.2768036127228049,0.9863762856465355 0.44142135975203556,0.906233370287212 l0.6054835320397015,0.72331047048688 0.7796984910318107,0.5066989066077517 l0.9006679652653815,0.24355436850736623 0.9897245168979858,-0.07908645268240315 l1.048165082876292,-0.46824869513965994 1.078893303937278,-0.8861132860232943 l1.0477902889617414,-1.2519346476744113 1.0129022600587165,-1.513525605289254 l0.9278032183781152,-1.708967804903912 0.831646979036954,-1.7995384931096003 l0.7411062717982898,-1.8169699907915038 0.6873232720768427,-1.7634830474428218 l0.6147788762327618,-1.6608595848164407 0.5104324222972586,-1.48019278056827 l0.40102231510475617,-1.1887003183541534 0.23791332522678246,-0.8052540421227576 l0.02593291923460261,-0.34808874130726325 0.0027810484588856243,0.05509313187714176 l-0.018873505352771033,0.1344515383086058 -0.10211469219185945,0.547442555458857 l-0.1278650614002453,1.2120796443663744 -0.18910275391383988,1.4953117370090772 l-0.10930286335208729,1.7146890163843809 -0.036249410464407994,1.8970154526375398 l0.030145209284633944,1.965713620211911 0.21520796420010824,1.9468214512641058 l0.410619825168482,1.804195642504926 0.560750424974527,1.493314623848187 l0.694820702054856,1.1107605694707752 0.8694447277941831,0.8112278579682884 l0.9158974288005912,0.4545755088978127 0.9186987281288809,0.1133983434348919 l0.8831443189544796,-0.1830847560236398 0.7784530521928344,-0.4500271081531976 l0.6332053542377862,-0.7040913699235464 0.4526912272221723,-0.881404876538356 l0.2269070001476207,-0.921052694433622 -0.033275078934279036,-0.8603774308651182 m-8.953474998369705,-2.652997732215459 l0.08723473543927203,-0.02408358450566596 0.3881112338005799,0.05474640051590306 l1.056194782155583,-0.16928979739503258 1.1150839328759374,-0.35981434578873817 l1.3199161291889345,-0.30609655381134426 1.3517570495402087,-0.3179457486056905 l1.3616164923189382,-0.1995922325880188 1.3575055599305135,-0.07289259866364477 l1.2800962925210184,0.05603388698265252 1.1242804526514256,0.16024298969822148 l0.878798902165673,0.23764321209044992 0.6459204554192663,0.3411655426029068 l0.40632781382743444,0.4284431040201967 0.2871108949143459,0.5536154508576077 l0.18955196441723599,0.6285040972739234 0.12924723344394198,0.664725363301643 l0.09548953172472063,0.6556605698531465 0.09343584616144894,0.6329832673872721 l0.09326665077695004,0.5551006198282935 0.04056531924412773,0.30709478244984334 l0.08150868106389839,0.12392511224907281 0.09219373016353674,-0.012463688921177869 l0.06918516747764625,-0.1231405435873302 0.07168363040671488,-0.44765332356582466 m-1.3752281666762667,-9.091502189805114 l-0.20007538796315824,-0.2720085385104208 -0.0031600555970855058,-0.07805153725058604 l0.006668636477184911,-0.02142325055562495 0.0516485086322181,0.03853267797347758 m10.694744109902441,7.532369613651116 l0.12749445441818866,0.07190009948096368 0.037113998034674946,0.0354764424232986 l-0.0033703931125789845,-0.0011472303563392953 0.2097970844794622,-0.2323867232818342 l0.4400254191923782,-0.6230649949222299 0.7046966552857822,-0.8511012791985428 l0.7040673494900209,-0.7489068506897265 0.5049965977160934,-0.7087888717801929 l0.39490085824025095,-0.6516093611911562 0.2355670035904229,-0.5164276957773692 l0.013822240868127458,-0.40357941392898494 -0.18641343708010533,-0.35091280941913305 l-0.38521683220878766,-0.24989452953361607 -0.5368273257155945,-0.04755112519781518 l-0.642514407632431,0.172482937711249 -0.921897828429444,0.4325887857547974 l-0.9172958136681237,0.6548014878490163 -0.8859586119182946,0.7945609688094356 l-0.7584736345991655,0.862585246696709 -0.5469713211005316,0.8764852882007453 l-0.2522394957195225,0.8417100908388255 0.09585506463978231,0.8064966796335232 l0.4013661146881419,0.7712812423642817 0.6954087617044964,0.6694691777739608 l0.928438424957002,0.4961819054734319 1.0405223370803036,0.2671712637006235 l1.088595628805735,0.009403887301581145 1.084352016523212,-0.24142359189701026 l1.0049929617146518,-0.4357570110928661 0.8641653656752741,-0.5885280369620803 l0.6644753215935977,-0.6945850847907975 0.4188137947280421,-0.7535675764645413 l0.1652261168194646,-0.767250358924507 -0.05426151680776624,-0.7314014434835395 l-0.205561682699976,-0.6464365124379408 -0.2898748814567212,-0.5318374634188512 l-0.28031891578724033,-0.39038658140336274 -0.09646840401156234,-0.14726555342800796 l-0.058361381508251264,-0.03147046242237639 -0.005644567227507131,0.05807370691475666 l0.06018062674102517,0.12900954479928808 0.35190370673962357,0.356760591119371 l0.523019492595841,0.4841646551575441 0.7128731608086433,0.5428697466944572 l0.8475134968472499,0.5120590924712197 0.9314619899397295,0.414887994639189 l0.9787372948475208,0.2877887786271121 0.9866737724632544,0.1519675850098999 l0.9365800620195021,0.018679712075794115 0.8493020534501712,-0.0939792990096635 l0.7330425382578222,-0.1708910018665216 0.5739653110667913,-0.22826333352238976 l0.4226879775410564,-0.2710678578109567 0.31863650674791705,-0.2940342129799374 l0.24159428506177463,-0.2907632889171822 0.17283627386098624,-0.2556819915833296 l0.1366077510564651,-0.19983676079416227 -0.023339834037343955,-0.10534672460832578 l0.033862847913841684,0.007595777557364785 -0.027742762268971582,-0.0001149888298138993 l0.021731454936971813,0.04644399500804288 -0.11982508751885702,0.023712731872566315 l-0.08169632405167669,0.14727970954270092 -0.01287183742961066,0.33422389616593584 l-0.06748814119399124,0.4540982544595799 -0.03786905472027079,0.5161416532178138 l-0.057494331285137375,0.5287177563778565 -0.02576225981561472,0.5294085146767141 l0.03435064110187278,0.5058552025748457 0.10349433119653759,0.4528754352503215 l0.18144862357994493,0.3611257970721063 0.24787501975213602,0.2667006254018642 l0.29701891550696713,0.1798114328362891 0.33415484425745573,0.08776189376675321 l0.38353195790249667,-0.025842823186877178 0.45592492824652786,-0.18272733684921388 l0.5361018777539083,-0.3491728604541841 0.5821770429939525,-0.46260336034483335 l0.5912848711304355,-0.5333562494694505 0.585730850692134,-0.5631343720755859 l0.554237961908597,-0.5581969023953177 0.5130950808980732,-0.5300739408030632 l0.4337470533139489,-0.4887968898708188 0.3319052457068936,-0.42381972070577206 l0.22233122584523987,-0.33092013004166715 0.049799539280429565,-0.1621228158812949 l0.034111179397201284,-0.024390146137817814 0.01414205131027898,0.048124428769793955 l-0.0136051028540442,0.04406130658912187 -0.023917093843594365,0.04458412528493797 l-0.06813614811679797,0.17114496242862284 -0.006829476002026465,0.4795173109826788 l-0.013604735975211345,0.6330499053823144 -0.005866330134362958,0.6420900224691909 l0.04530166831780351,0.6988517044804392 0.11129246649673095,0.7021102307884184 l0.20478534710819143,0.6684167382666296 0.3193026779476483,0.5936048627505718 l0.4672324955318092,0.4885569512449435 0.6462286115368737,0.3688356875356655 l0.8132995365356297,0.21704855555917382 0.9585419893004906,0.05034525699310524 l1.037816882036838,-0.12701348949987107 1.0664292573493088,-0.2722798882934501 l1.0371822118861316,-0.36812016380390905 0.9623769522006196,-0.43437880274270596 l0.8613302112570962,-0.46561941503745974 0.7277556657373995,-0.4513661562496761 l0.5645051002010927,-0.4030585288790354 0.3854964674685919,-0.33818030354573053 l0.20708529665536013,-0.2574953733481984 0.06797358388272835,-0.16974902153189855 m18.806339263759178,-3.3435065746013852 l-0.13072203104191743,0.12227845199840638 0.008989169939128426,0.6193825006055986 l0.11199842389802114,1.1713491677671994 0.06393173342075999,1.0873856545300176 l0.1781741828352163,1.150252222955964 0.14387445173046545,1.0169024467570267 l0.12271656099102056,0.8066807388448356 0.15402919058064093,0.5465925932217538 l0.16955135758773268,0.21422708019467737 0.09799106410486139,0.01671326150203071 l0.03933237121472893,-0.15776893508114512 0.01734725952567185,-0.27227079862144765 l0.20528158534002597,-0.7980886101261264 0.3427439631261292,-1.1600223781930532 l0.4814168512238321,-1.2672744988215399 0.6341220738691153,-1.2163406610707792 l0.6768706440206833,-1.0763787031181014 0.6823769211852374,-0.8669973015803998 l0.6538779734778424,-0.6168401836394006 0.609538674592397,-0.27790197726911303 l0.49195772407703,-0.04238007986052478 0.39462029923440683,0.09971831749185923 l0.33505043400459583,0.4107006191803304 0.22281514090474577,0.7038191556983854 l0.150796130230464,0.852037846995975 0.1651926041590923,0.9208792447476655 l0.08125230672789786,0.8597900270717016 0.12149921059369609,0.6795040367613513 l0.18106655768619193,0.45307055101187477 0.18221276989666388,0.1500043868617246 l0.169194504420621,-0.046297304542511956 0.15119948994185467,-0.20251581071314242 l0.48212385186962664,-0.4843184352147859 0.5273082852943548,-0.9682128428257037 l0.7401479483127243,-0.9896285533707211 0.7891511916724316,-0.9924127460264811 l0.8382680416855643,-0.8895885347087771 0.8756278157341788,-0.6929987072911651 l0.8570804597679381,-0.48842903969052276 0.7241687178457378,-0.2882571818422741 l0.604938924227041,-0.05681231621954153 0.44965189699039876,0.08611816162719345 l0.43843558440722,0.3937852681889401 0.2743446826153684,0.5643746259231341 l0.15801358231125,0.7140646575113909 0.07145327338051827,0.7994242907629637 l0.031710605894114945,0.8152610065882708 0.04319317270795778,0.7448995709271141 l0.10946540524795016,0.6064394117624624 0.21184794603921692,0.4331284165716589 l0.33239394435127434,0.28112122422962327 0.4509345590380515,0.1540879010956814 l0.597526431162933,-0.005094322255549112 0.7778090239339572,-0.2176954745326602 l0.958427905965602,-0.42790976156477384 1.1193028689239075,-0.5658022760773429 l1.2313063144163234,-0.6609659790744299 1.3072520493721747,-0.7157950400085445 l1.352081179438826,-0.7245332600141983 1.3504792451880254,-0.7123218178729891 l1.2822680472116785,-0.6762525439206057 1.2048631905915723,-0.6310014726235722 l1.0484141109592346,-0.5633113385249027 0.8259228467030963,-0.4575439394057379 l0.48509740817694447,-0.2739728391449673 0.16229340426217037,-0.07237054407694574 l0.01535873305539441,-0.026762433347068598 -0.061151281152259734,-0.0031950919935673735 l-0.14648930729834111,0.011821847315811458 -0.3842932880190092,0.035265836754291804 l-0.4985894263781994,0.21637383102277102 -0.6401758789721648,0.3928355573997472 l-0.7412027120257733,0.5741466284226417 -0.7771975994394476,0.7135279774940694 l-0.7360285522148138,0.8195807934466122 -0.6253405213512965,0.8719449639557838 l-0.42700913544639396,0.8636083008780033 -0.1793868689779025,0.7955866454811644 l0.09632559121843291,0.6695534586919917 0.3526793419870071,0.5172418356221573 l0.6195048093188452,0.341387510290037 0.8634623290041578,0.11970826962383435 l1.0438575745947676,-0.14294891062474807 1.1115237474513748,-0.37878060347158254 l1.0659481287960586,-0.5778436066328305 0.9220976828601961,-0.7104042769689825 l0.6971966029011931,-0.780429065415678 0.43269878617967056,-0.7856301070931797 l0.15627518275899832,-0.7431980967135015 -0.07874876279298501,-0.6734017730250306 l-0.26106965542998917,-0.5678321719270246 -0.3958372176025588,-0.457609713051377 l-0.46610501400254106,-0.3367628157868816 -0.44781652097416963,-0.19615544374415628 l-0.16107116628133905,0.004557683950237581 -0.011271011203886173,0.07530166199911394 l0.09425778698242294,0.14441865665706535 0.25928944357025835,0.23531021167672797 l0.6694835425424213,0.38116577276011154 0.8728690743086837,0.3030289112909194 l1.0882629156219008,0.1919654459219542 1.227202415523093,0.0868525206656643 l1.300400018699605,-0.01099835238598667 1.2902884483705626,-0.09469768416413601 l1.200894832787168,-0.16715107848215177 1.047969579641274,-0.21392236645591736 l0.8624588849291266,-0.23211203517804518 0.5884546637982014,-0.17843613023853494 l0.283245474232966,-0.05195466443615288 0.07870294893056615,0.03701218582236355 l-0.015610910853286402,0.040194623124933285 -0.0918537229760406,0.04787262165271311 l-0.16906374701979654,0.06118432416833823 -0.39876681557398375,0.19137209670152097 l-0.4735147654897049,0.25585386138880833 -0.5540647505798856,0.351430595106134 l-0.589027285641519,0.4388625920358005 -0.5729992388099715,0.497328638960588 l-0.5125195382264723,0.547790706183959 -0.4129636884978636,0.586048185761619 l-0.258680850331994,0.5855035185164172 -0.08445958796072982,0.5304189325321945 l0.09385797365455047,0.49825125954623745 0.2527386250401765,0.4318349360706255 l0.46438163514390884,0.3071794808812367 0.6208682060252966,0.17346541573123664 l0.7651851773593189,-0.012388446557923326 0.8628305793756613,-0.211631908973264 l0.9089866876530023,-0.41454818845528546 0.89457750310079,-0.5837807061529264 l0.8105149268756348,-0.7221574189043364 0.6854871512065656,-0.8399268388215173 l0.5581327081469442,-0.9391005037726424 0.45905125150153975,-1.043774247321294 l0.3680270015215428,-1.1513066291059566 0.2985692917724027,-1.21726882451305 l0.24967329184883036,-1.1989096402359543 0.20562663695656733,-1.134216189506051 l0.1482572107667236,-1.0402454138518749 0.0932124255617438,-0.9173038005968084 l0.05068986500617538,-0.7613666057180419 -0.002205952927020751,-0.5716041921543712 l-0.06273421650003257,-0.355941563845529 0.007007498342018701,-0.02791868140344537 l-0.0009571722529507227,0.051542647008778836 -0.008203864324412237,0.09223256259866291 l0.005079783611085855,0.21218790114530503 0.07427114996086083,0.8372465371592754 l0.06696796384765871,1.1151524782583306 0.025526633301055427,1.1957901716869732 l0.12708629667607496,1.3242055177512673 0.18368145815385878,1.3422957659428614 l0.23123526570955574,1.3467196226118083 0.2737829088614473,1.3428385258605182 l0.3242992759338851,1.2770808935381257 0.38439509267344635,1.1793743371760812 l0.45291545982439557,1.0050044059778902 0.5338814257807973,0.7922222614774084 l0.6214464306398845,0.5521720648387075 0.7081279159150535,0.3054107129056996 l0.771316170543584,0.03514627752186998 0.8594840168308309,-0.23552073545789706 l0.9290093181810649,-0.5108640792111638 0.9483796953832228,-0.7024183273748253 l0.878384888089287,-0.7935802342246708 0.740491211501786,-0.8431901335671264 l0.5668765305428869,-0.8512861729122044 0.3550103006439803,-0.8121705055408667 l0.14085042476695414,-0.6902012229297954 -0.0403809509707481,-0.5544110535719649 l-0.21398115150805985,-0.43586882941964256 -0.35790470243956346,-0.3330247700458807 l-0.45512741789142697,-0.2383076248922022 -0.5170193911526497,-0.12556353233304274 l-0.5491469501645414,-0.003554285385895819 -0.5600054859169811,0.12306302036379506 l-0.5472854971031722,0.24909408377835232 -0.5117346048563237,0.36367228615930736 l-0.4397867618890388,0.4875279365246147 -0.3285084365464387,0.5920581221740969 l-0.1817893235292323,0.6505306958172422 -0.027229111572726224,0.6935848595058852 l0.11420528596293548,0.7146092055623585 0.25232353813082226,0.6868869662383923 l0.3852666018813178,0.6230192779816786 0.5076568724649747,0.5488111972861823 l0.6306126713211353,0.47352975611324444 0.7504247427124777,0.38699823615162904 l0.8556544780923024,0.26636716713051295 0.9436908364607179,0.10189495992774059 l1.0164828298903306,-0.09063302739380794 1.0885851383091585,-0.29166737197186127 l1.147429943008441,-0.5087805986152915 1.1810444592899423,-0.7297600505642083 l1.1906701327623816,-0.9211372733114711 1.1567523481504045,-1.0869778394369116 l1.0899884698610074,-1.2049326896535328 1.0156916379154617,-1.2753701209523334 l0.9288144112210975,-1.3145889044117909 0.8083944320164043,-1.3225365880865252 l0.664070844835208,-1.2817832230681965 0.5026683211499118,-1.1604576112488314 l0.30538251992971166,-0.9731398224397168 0.06263200930796015,-0.741802871325166 l-0.15192629393659943,-0.517785012594688 -0.29196605092180666,-0.3404243291637113 l-0.40715625878702966,-0.20503695303112537 -0.5129646659614405,-0.062165528731623156 l-0.6007898451114524,0.1032010988031669 -0.6503660678890371,0.2661131917298528 l-0.6588658095825027,0.5299124121697729 -0.7027702926300977,0.7900054453363473 l-0.7103652356899598,0.9610175492280987 -0.7022278307241107,1.125600576422048 l-0.682823419609791,1.3040531874407264 -0.5961447357866784,1.4517455101575951 l-0.4348937273723331,1.5492109059474746 -0.23469264793683464,1.567958474144868 l0.027814222658941404,1.495669722582836 0.34510716811945874,1.3766725063704834 l0.6996085048020635,1.2145516873193662 1.065367460249098,1.0144782066555578 " fill="none" stroke="black" stroke-width="1" /></svg>