<?xml version="1.0" encoding="utf-8" ?>
<svg baseProfile="full" height="73.74640566662384" version="1.1" width="393.30555474169654" xmlns="http://www.w3.org/2000/svg" xmlns:ev="http://www.w3.org/2001/xml-events" xmlns:xlink="http://www.w3.org/1999/xlink"><defs /><rect fill="white" height="73.74640566662384" width="393.30555474169654" x="0" y="0" /><path d="M28.786300063309536,38.675333121998605 m0.17281416065565997,-0.017303401773845616 l0.1334213017803683,0.12406314156616592 0.3711408972114872,0.2928674219709451 l0.2177643479107345,0.6161504388726834 0.332940816789336,1.0017546415073189 l0.1730146259784752,1.2570148706641648 0.05432341995890912,1.491562485684683 l0.002699557636442246,1.4982980489880469 0.16808351859456536,1.297049403288632 l0.08590805527892857,0.9426304696103824 0.09877115483021513,0.6469622253844624 l0.04322456934099436,0.3533536494599282 m-5.370691776196112,-9.912644386240201 l-0.2697147130795393,0.06959480049740499 0.23606209449551757,0.045237481590002716 l0.5557011367175991,0.11402553324477346 1.1045360564423348,-0.13543263082342855 l1.7543389798110982,-0.5249359009487825 1.9116824866334992,-0.7067553997224529 l1.921559333656785,-0.7958470581815126 1.6170811652974788,-0.8025206923730137 l1.275725126242505,-0.6309023499429794 0.7747792007048596,-0.33359932891301647 l0.4361780286795028,0.060907267102723144 0.22582881142476116,0.48449710004440927 l0.06114380803970124,1.1183489560515363 0.020607041342251612,1.8048936128773623 l0.11710830036287724,2.164423942512083 0.0965874342699999,2.219444036419809 l0.14974527048611863,1.898390293216299 0.2951931058301651,1.3768817188011881 l0.65362447515208,0.9736285209679634 0.8308693169267632,0.4657031298801087 l0.9293650387985554,0.1139882504660807 0.9255730509271997,-0.2945578396846978 l1.0329520704623483,-0.715005457411416 1.0135525466762412,-1.0016677378939634 l0.8192194104678486,-1.0293140410118362 0.5397197009140549,-0.64738225934706 l0.22406727083925632,-0.24016678324102966 0.06691537776100503,-0.02013944840818421 l0.02297352075829516,0.03493341800084687 0.05376223846001895,0.17147281760825342 l0.2871300877115809,0.6965397596608145 0.21129827216113592,0.7814872861779388 l0.36222788693735036,0.6597477793217312 0.5515145063216138,0.45356300480049866 l0.5927464959932307,0.2199120519606902 0.6301939489655376,0.02695459686597036 l0.6728736756782473,-0.147931918532878 0.7083468436969175,-0.3040150701299814 l0.6718916297133047,-0.49597242482600085 0.5727921724193686,-0.6684837937480055 l0.40804764630374823,-0.7357639671091757 0.2719268798704926,-0.6660754085398385 l0.1310890467190275,-0.4815763235396293 0.03312040115067267,-0.24898353208454913 l-0.006256621345515615,0.000127299893767153 -0.024951573530230538,0.0002466942128015707 l-0.015404818499667293,0.1483584046506507 0.1478829831322815,0.5440161226965858 l0.11775715626856371,0.7695604563095632 0.18505470454425432,0.7781464457250787 l0.26474341761889136,0.7201378940320445 0.34358370293732926,0.6074996589236451 l0.4295322895617475,0.45669427517460853 0.4630382953813622,0.2685183285880243 l0.4529744686116663,0.0800320431010923 0.44180497526393414,-0.10148680961329885 m-1.9811758995980315,-8.88151836401508 l-0.06955196706121715,-0.20065106456535878 -0.08901861310823932,-0.03036605563773461 l0.12076330924885242,0.07788902510010903 0.2748733161884525,0.2296780796097939 m8.204420089586124,3.00018882738884 l-0.03859367228460377,-0.14410328860694635 -0.12476059792422393,-0.19939517964147033 l-0.49610355503529646,-0.2422645689473392 -0.7010497450770257,-0.1643669904044388 l-0.7581477762886333,-0.07333565504548147 -0.6614864468806879,0.11499583710641245 l-0.5677617786620871,0.2827069162587028 -0.39432957772197796,0.4127484858633336 l-0.22313396641145827,0.504148781473942 0.033210962831394394,0.5045335888559231 l0.3354635240004163,0.5043316483569277 0.6129481791396426,0.4950726926128061 l0.8064858914532814,0.4511842727026232 0.8637428880007132,0.3953785299452327 l0.8587988020276681,0.3900884687936363 0.7350229024772637,0.41692721847893804 l0.5220049022859108,0.4356677234680948 0.28180792935618865,0.4226858616015156 l0.032307669491542845,0.3842321931715135 -0.22431327404877807,0.3396421076381848 l-0.4829418361727114,0.28584682944307116 -0.6897412537350748,0.22437646988343904 l-0.841224789546873,0.15491299314195667 -0.9116641879126564,0.07876417791435408 l-0.8167395592569253,-0.00326397472037817 -0.6351383923075077,-0.059874013079812535 l-0.44339793924228543,-0.08039690557490244 -0.29509967577627183,-0.09787353119671029 l-0.0009174942403951963,-0.007966093685319506 0.08563901506661517,-0.047090962641791065 l0.14786410330678362,-0.01993493715225848 0.19343589240755496,-0.007489465252105986 m22.389051437362312,-5.631165981197024 l0.044386558149837683,0.04986146104026544 0.06434986730814458,0.07621096081172896 l0.12034732099212149,0.4426782726536459 0.21372994780291216,0.7968679666628077 l0.07825146631453343,0.9370520114131062 0.07401691375447612,0.9734957814775812 l0.08458725351434813,0.7900383473156808 0.016440538639650427,0.5532396435090859 m-0.9880371690153913,-9.5148563383993 l-0.16099782296096432,-0.5776027441865133 -0.013564989027122993,-0.26472130408778316 l0.1119846030871173,-0.07266119114058443 0.056141287015919604,0.0285405738888307 m7.051023960142078,4.574140548661096 l-0.28668040044373544,0.11884660995738403 -0.5422378182764446,0.22681412112595953 l-0.6061604022324023,0.2571139035998621 -0.6681011913795714,0.2807610034487834 l-0.3918831052409888,0.29559475183855616 -0.011641077786565085,0.1559549570357781 l0.43738001588838055,0.2970106005012693 0.7154166103482064,0.32292035217549975 l1.0308412313419508,0.31536361563030435 1.1311553717069,0.2890358568335987 l1.126845478954373,0.31536486745173997 0.9112277627650985,0.3415119946124418 l0.6052851080664391,0.3839536307225225 0.23496060099833074,0.3140777051160838 l0.024752195857140735,0.21877565989118342 -0.4506879447140129,0.2499651610584781 l-0.7336319684523835,0.2664930821918346 -1.0396213531310234,0.24975392214966366 l-1.1841199398489624,0.16758583493465198 -1.0993388890045082,0.16133494670290532 l-0.8534563183066229,0.10840341442011601 -0.5424765942945394,0.04921365529625531 l-0.25983700151247435,0.030919944788184512 -0.08931413287185676,-0.024834720445933683 m24.10062026985887,-4.672331809947432 l-0.2297379074227426,-0.22820204507544067 -0.3722634614197193,-0.30046251403062846 l-0.45823922763809727,-0.19603800768560978 -0.5413821936646706,-0.14292471105427787 l-0.6598677039022959,-0.01650525831363783 -0.7531488538106611,0.19968803219106127 l-0.8510083556328295,0.492004632956407 -0.8456676005846767,0.7811153532673578 l-0.6551933885458374,0.9707900284413061 -0.35505142795327144,0.9735291600299923 l0.04577040300206432,0.8399999737812293 0.4505755900282133,0.6282578707134566 l0.7600956559740846,0.3335046170879812 0.9313573240413905,0.020516790506820093 l0.9651647806452066,-0.36864528061216606 0.958813250347673,-0.6495208740676738 l0.896655321046869,-0.8203331828032854 0.7429150939435747,-0.9443619846454108 l0.5171871186126266,-0.9543173910211097 0.27330011145956223,-0.8194716572121131 l0.07621764390957408,-0.5697773098659036 -0.06671685006630367,-0.3118809758727008 l-0.016610935262368894,-0.04274661092945395 -0.04788190881625015,0.08566758032519503 l-0.12653581783488232,0.3451809586814534 -0.061541773467159104,0.8477333189053707 l0.070614822244141,1.1084475518720154 0.1877589672978095,1.082331776654511 l0.38592541230973293,0.899658679747592 0.6280345319804954,0.7201620936278885 l0.7326079011208723,0.5040616393544908 0.769086539672938,0.30711138247287967 m12.483962058963812,-10.87908649447226 l0.1213241294279426,-0.014221761471673623 0.17941039816074672,0.047065932157342685 l-0.0755971520255649,0.06622016426695419 0.02945804406802828,0.37828934193876323 l0.11135108045583073,0.8097082970678875 0.01732292389302896,1.050342798361778 l0.07298722863290977,1.2158645390079883 0.1289728880401232,1.3094891309903118 l0.16422103348967027,1.2943984269745326 0.1593336015832865,1.135596990652113 l0.1680092810759976,0.874870657921192 0.17847898594784806,0.5251790284774386 l0.13295443352305694,0.18889492751881382 0.11214230200109515,-0.022044025406399884 l0.1054140776403725,-0.15084321789786304 0.22017765040315143,-0.5427998301894247 l0.4475485086236124,-0.8790847062856506 0.5665534736176732,-0.9121410845765143 l0.6767331361682625,-0.8645963073187674 0.705873847035654,-0.6838868854399741 l0.6770906448390183,-0.4411647617066015 0.628108739841438,-0.23898617938632624 l0.5863676069724718,0.013293168410805621 0.5290560125447945,0.29138821343610977 l0.43919977550247413,0.5467879772567977 0.3224893808486328,0.7486481665174266 l0.2133937329951177,0.8446325064331709 0.13915520898551403,0.8415295482211391 l0.13830880827829994,0.7502370477353504 0.21435847882229622,0.5975087285652443 l0.32119283070918403,0.40278035397731193 0.4212646782243847,0.21168747547083075 m6.224925994953072,-3.4792747498832526 l-0.1914630234342182,-0.32224425680169916 -0.45685654881224685,-0.4015990794090675 l-0.3897912205236433,-0.21831250196173232 -0.6227579712039834,-0.15316267334080919 l-0.6582464577016627,0.010265803071296332 -0.7556599379502422,0.2491208463921202 l-0.7650265692581979,0.4908896386827449 -0.717091977643464,0.6690540314958799 l-0.4748304188342312,0.782549560119207 -0.20590519895997572,0.7699711322830144 l0.10279615218575416,0.6812540888566456 0.3739764393881138,0.4936837554390109 l0.6115434764722235,0.24195769429661104 0.7821667193705658,-0.03859532990338268 l0.8739662766402416,-0.3496789336204337 0.8915117381909343,-0.5825468896437686 l0.8174985648162456,-0.7387464046116967 0.6504253148096638,-0.7785177231634655 l0.42822831876538014,-0.7298300862234981 0.2104784102126002,-0.5814143420858533 l0.031900539995786736,-0.36209973701199494 -0.018750928368783216,-0.10835808504265235 l-0.03617927432215297,0.03570080174786619 -0.02526809286535206,0.0889057740928289 l-0.05106222622215454,0.4236062765168373 -0.000103375246588114,0.8451974989136152 l0.08934552965598948,0.870420217563419 0.2845009864500072,0.8311064839383655 l0.424836725060925,0.6781809925471519 0.5822375417295531,0.47341483833084164 l0.6534099578490753,0.2423896940047088 0.6542885301667583,0.01361816552843686 l0.6386482715499919,-0.21821695549444334 0.6112822891242129,-0.45771136878762786 l0.5691731572515017,-0.6730614303533404 0.4606272280024087,-0.8589271306538424 l0.30955526234414127,-0.8985489011443641 0.20540757488651015,-0.7986698746964089 l0.09047123778219955,-0.6261961460940625 0.004384059291023655,-0.38781055805975995 l-0.012676969280473797,-0.09072861080167853 -0.007480449988216657,0.05292304621651895 l-0.024061091056782048,0.1256009934931218 0.0020754541420694795,0.6004610061672795 l0.011160775017178609,0.849819123801089 0.10027325154785743,0.8773126006145039 l0.16569077965136453,0.8254907130852404 0.21352116764932777,0.6891194582496348 l0.2503505646767548,0.4824507831432509 0.12366419291082233,0.16837993270684107 l0.11825564502686495,0.029352128437115977 0.08349525172678751,-0.08552680927897381 l0.11877833303421063,-0.49789053203641503 0.4060386417599114,-0.7924695015020516 l0.4253059327525462,-0.854696035494067 0.4956701101135275,-0.8131722804981747 l0.5447973012992051,-0.7179908751546624 0.5655031202859705,-0.5647165178640862 l0.5842396618962052,-0.3899796307244622 0.5808281302136864,-0.1795384287404494 l0.5730346441744811,0.03008001869818511 0.5256253481849147,0.23028473556291598 l0.4697238802954637,0.42387071255835423 0.3855414986369312,0.5726299283807325 l0.3021969497280958,0.6442347764385578 0.25808438655577964,0.6410632731298083 l0.22840479018861104,0.575887322320421 0.2311756907921147,0.47003492695459287 l0.3055600821324825,0.35068967950094576 0.3889619407585822,0.2498763949152637 l0.4766443969315018,0.13566474635739317 0.5838458539976249,-0.012587732632152049 m4.864276409132438,-1.4849939346793044 l0.049422305252829445,-0.3000814020531326 -0.1290249971677377,-0.40624326473029737 l-0.2470494954530474,-0.40620175004098735 -0.307732254280773,-0.3912627994679382 l-0.4557293952231114,-0.3481763901133298 -0.53919458393642,-0.2564109266125095 l-0.6280760764878432,-0.1590973289016024 -0.6169084907547993,0.026075474866579476 l-0.5713440776610206,0.2526117264933223 -0.4793899654856312,0.5194150807488978 l-0.3379716873350347,0.7365769744327956 -0.12462642775515365,0.867307305093651 l0.1216594651990284,0.9049193261695049 0.34889772538341024,0.8169541359638353 l0.533299386639289,0.5717274548241139 0.718531370132091,0.32264402510297713 l0.8039776083887782,0.05122078964534947 0.8425884843160723,-0.2416297644371286 l0.8026635646643103,-0.5471850632782199 0.7178413271247347,-0.8186380863500042 l0.5739575624490644,-1.008907437334683 0.40847125668720785,-1.1109869480063441 l0.196039512841783,-1.1389826537053163 0.0039577148087301655,-1.1045881511025644 l-0.08591525237962858,-0.9776735904241205 -0.13058482114345663,-0.8071578145192765 l-0.18324127783169777,-0.6190262437273581 -0.20383848239528699,-0.38840579990853796 l-0.03197782474903677,-0.03889477249193994 -0.052689201944793596,0.06112533041443582 l-0.0067463145195627095,0.19049251088058597 0.06802064928260704,0.8026680947045209 l0.0966971143117061,1.1127871277335848 0.08069819943350044,1.21568620211272 l0.24348543582081764,1.2350767851424629 0.311758130881788,1.1401052477008502 l0.4104986488931603,1.010575890537083 0.4720548986323302,0.8566387296991088 l0.43425109997880224,0.6332371234895676 0.42339727273108624,0.4097405969720282 l0.37703925378350117,0.16312298177335594 0.3582174778120072,-0.026514327017443193 l0.3306300640078972,-0.26679208878795085 0.3527083399316015,-0.5107967257046113 m1.4899525644314853,-3.934339761730702 l-0.030163878597071946,-0.030851826049831384 -0.07880186297890564,-0.10419297218204587 l0.003228142913822608,-0.0045335665414469135 0.10907208921378161,0.09897259619628093 l0.006391355880230352,0.26083898553522455 0.05182738609127298,0.7046777008576885 l0.09278459846539257,0.9988215567150005 0.10302656898176188,1.0675821304816087 l0.2443193048136258,0.9616678953102176 0.4208815694923382,0.732616186146029 l0.5073133706076889,0.43255859600420193 0.5180675384704543,0.14248283203150092 l0.48696056010811617,-0.08017314230325222 0.4432114956570914,-0.4088119864405469 l0.4255977868413827,-0.7418413759429678 0.3962905704304158,-0.9916234014751847 l0.2770893275547876,-1.033018350632811 0.14642986671195166,-0.8882550597473063 l0.052332956343523106,-0.6605476737795264 0.009556060681785038,-0.40050259228807733 l-0.004147238793633228,-0.12430067354360946 -0.037111930619756706,0.019942827336353004 l-0.009252536926418415,0.11536798631298979 0.03787034755707981,0.5511587859121969 l0.16517606378381672,0.8496893048234966 0.27445340173565436,0.8900957107853891 l0.461362182987671,0.9120261073175093 0.5709828732945893,0.6711946724797447 l0.696181833763527,0.4281668661715901 0.7147303820955467,0.20182000097399466 l0.6455405949875567,0.0013849210846640565 0.5467376112874821,-0.19525539854019636 l0.44708350300444527,-0.45078116642966015 0.3677538037543214,-0.7452154159853738 l0.2232984901499488,-0.884650111253103 0.0005741304424704063,-0.8833522200312287 l-0.16984175159097278,-0.7970920204064348 -0.24418188639012295,-0.6225875022067371 l-0.2997812926767264,-0.47039866448774287 -0.3333625494413445,-0.2887922525505779 l-0.06614419823397319,-0.053383544025870526 0.0246483702280003,0.04722532991500719 l0.10864401602628503,0.11635331812316772 0.40857610100312863,0.35144567486578493 m4.671367645337241,0.043208494650439765 l-0.11653981342770149,0.0523822644350905 -0.038389198678193646,0.40209326158107195 l-0.054180294359889296,0.6813063025892409 0.0026401336442238954,0.8791726826798092 l0.06937031438893212,0.8491235971929894 0.2012136279315022,0.705308675772892 l0.27807140340468445,0.5719795823017857 0.20519372829686586,0.3028026818694541 l0.18953759978703444,0.1149824260594787 0.09757300467555209,-0.047290131150161 l0.01608323305370769,-0.1648399529955154 -0.11687774959419754,-0.5718102455292428 l-0.19110740723174402,-0.8116817473694201 -0.2176380905072527,-0.8794171214801635 l-0.1929532735925325,-0.8457403777648127 -0.10576878479704514,-0.7109516859512486 l-0.02902616177861278,-0.5599424839189306 0.08667358769539764,-0.3946897983200524 l0.2130205480797363,-0.2667261064162037 0.3691197634657953,-0.16685886675317554 l0.5432623029303193,-0.052652440916092544 0.6841980812900165,0.06772659723710478 l0.7744169235448265,0.1767164469861008 0.8140024542265081,0.2413275838051648 l0.7977939248763259,0.26060333855536727 0.7512828110372465,0.23205420379600752 l0.6830990314562229,0.18684577951078915 0.5849099159346896,0.14272502068862383 l0.4699086844098619,0.10351289063275591 0.3571220340553641,0.052335754088333256 l0.2694485186699131,-0.009288804749036499 0.22567245358308782,-0.05156682429615596 m1.4685363769278441,-1.0090309381076963 l-0.011355603226710819,-0.019372344031032114 -0.026246257053257997,-0.019440703122711893 l-0.006228394751351426,0.040419392203475034 0.10160551955364427,0.2445065081076223 l0.024594959045154664,0.48161387436011394 0.06245100491349729,0.6653458476030539 l0.06218715016699585,0.7179549932308843 0.07992798097151718,0.6727687717953851 l0.12902912492947344,0.5564919711052615 0.17433619501870268,0.4419651926167644 l0.1679751276354749,0.24827148012363937 0.16355903453252033,0.09882944093468522 m-0.47640252105474895,-7.980647087178239 l-0.09588772802458206,-0.19545705626484372 -0.06489923588966132,-0.09783558553822728 l0.0789990276928603,-0.03441112493288648 0.05300793061646658,0.07402466986589505 m3.5984714031455494,-0.3331772091473709 l-0.03634771715878241,0.023384556002063125 0.06461150194779947,0.28760212662416895 l0.11176340281666698,0.5433591007468482 0.03981588401617999,0.738335430587848 l0.08755019308691012,0.9101736545724466 0.07229946572375225,0.8892581462480049 l0.10699582084965217,0.8865888713821065 0.18294137711597466,0.8780755400344241 l0.234198138261437,0.820012450197042 0.23919199413389552,0.725847721244314 l0.20008093127976673,0.5682772994639828 0.10921141500151366,0.3798612654438824 l0.13894231623949052,0.19116479168371664 0.13930845256784077,0.061755486058785634 l-0.1286008657436579,-0.14508096871947945 -0.13120244457378719,-0.4348137082744653 l-0.20298457154554203,-0.6180673241203948 -0.2975970804870936,-0.6922155021382876 l-0.29548275472593666,-0.6780734064484237 -0.2138521372982991,-0.49985688912566056 l-0.16030839087675247,-0.3349162636827569 -0.09906470763376679,-0.22577205300281697 l0.0604171454728735,-0.03541006122251264 0.06682335592990697,-0.03704415262191311 l0.1846351176367971,-0.036306604753776915 0.5207499861603699,0.07489662620789539 l0.7376590372609646,0.1450634895958676 0.885654926190726,0.126889914180398 l0.9150483010947844,0.035306718360804984 0.9156090618098601,-0.03276224814267188 l0.8413091897386031,-0.11740481121703349 0.697927951865235,-0.21724583212675894 l0.5404509902412746,-0.263112813224085 0.36027479173923227,-0.2529960871080941 l0.1266063303537299,-0.09005372220312388 0.02752672134239246,0.05369991808832906 l-0.02602127187945591,0.03472467890731118 -0.022235192338453346,0.07445191590191612 l0.052780337553215415,0.37117299428549666 0.07928571859215777,0.6163236497993684 l0.15564259884725137,0.6876637339460823 0.25152558074324544,0.7101995944271735 l0.32545047996404314,0.6245158314717039 0.389760315649313,0.5070948005605059 l0.3088986276973244,0.29072558874725396 0.24829015137987676,0.12041326629462049 l0.15323147170206677,-0.031913250598040316 0.068055577518673,-0.3479608298187176 m-2.397540807752721,-7.915336608864962 l-0.08418314162248897,-0.15225106487382595 0.036083500871850416,0.014215581121192238 l0.05821981274089911,0.031520303217454915 -0.019904006392007297,0.1047151910439043 m4.959788322358754,3.415445804697667 l0.07633571314396331,0.11802002789591863 0.0873892829375551,0.3302591442665923 l0.19449517115094037,0.48990827794233993 0.11042042058603316,0.6570796370617698 l0.21624045071368744,0.5672885777073723 0.197282224918401,0.49298328143104636 l0.19831474116878692,0.38587656614965404 0.19583536687058836,0.21821579339458513 l0.152397662319386,0.09027468410166946 0.07557743793022514,-0.02999298278712248 l0.06395997113070925,-0.10591216376627982 0.15506844224181376,-0.42099416268265766 l0.2506917119262175,-0.6699326635344073 0.31403025987360605,-0.6775686143068623 l0.3885888755712434,-0.6391918658418382 0.46230095640545465,-0.5420628788626601 l0.5256401299308401,-0.4051635268469934 0.5896121860529927,-0.26490041622911914 l0.6401278376643804,-0.08057695632460188 0.6626669168902746,0.12958803776067018 l0.6274025440953193,0.3213299810844148 0.5634818672422078,0.48094919306100226 l0.4186835884783888,0.572083234946256 0.3679723441647943,0.6429808140126873 l0.3043947219036057,0.6238628624836741 0.24050913758598422,0.5737131833072483 l0.22068254640326931,0.4964894652856732 0.22434714449179338,0.40270715951454955 m4.038651943165238,-0.6349957585909835 l0.35119989502759563,-0.12881769237161939 0.13622529802458544,-0.4841544925372279 l0.10078205150858081,-0.5609723926387014 -0.12171190977926438,-0.5893657208233489 l-0.24168358736353393,-0.6009274125816446 -0.4024951159823477,-0.5465688705980211 l-0.5673628449086078,-0.4593611062322545 -0.6892775893475002,-0.3437910079713828 l-0.6822471022549942,-0.17965197565324206 -0.6362661123019706,0.014470199967399114 l-0.5235468744421649,0.20151039949788696 -0.3254802822769698,0.42839643358980545 l-0.09172885133723743,0.6548628210498346 0.13713209329536113,0.7691346406191272 l0.3655888737309243,0.7458051441886934 0.6212754249930794,0.6212615371863413 l0.7649679781386838,0.38013276469258656 0.8513132929466392,0.12980172049685626 l0.8692277072558714,-0.1079008877029117 0.8058831691945374,-0.37406525027811455 l0.7083843946231186,-0.5567255020378972 0.5881768465439213,-0.6406055093415388 l0.4062648713753083,-0.6402139664046613 0.1871937214723947,-0.5510513783420894 l0.034614559190432256,-0.4253201485365936 -0.07263006287434012,-0.2882038058370252 l-0.01928773158691775,-0.02521938087572977 -0.02649301302197405,0.07782738668862191 l0.003784373499189367,0.11097931103557745 0.04015147702405607,0.249122157503232 l0.21188756819546392,0.7780540584533877 0.2996562122173136,0.9682713746302464 l0.3985718190270031,1.1086287498008462 0.45940971387905727,1.2383892533370708 l0.4384037554021068,1.3262487650417003 0.3469996452582056,1.368626356025277 l0.19440796969265933,1.321973681526667 0.016177456662788206,1.2174500227332739 l-0.1773762851368924,1.0221894979106905 -0.3464797138703042,0.7505207061680084 l-0.4825210869176255,0.3711485267203478 -0.6200474499917237,0.06168986871618398 l-0.7965288163246285,-0.1274738311973095 -0.9619244336236024,-0.31280449023324797 l-0.7924662233100046,-0.45277485255937316 -0.6638904214368545,-0.5366984012066813 l-0.4596642851689171,-0.6714862585908464 -0.22552512567271657,-0.7334854602124646 m24.133594513025667,-9.283566474775725 l0.11114674064354998,-0.0702143534123842 -0.21298143269030786,-0.3340537251998362 l-0.2448410243332965,-0.1462004633340435 -0.479631990286386,-0.10392176362492858 l-0.7655583620989279,-0.007014933993992952 -0.903078615513413,0.11317364137441473 l-0.90984696152321,0.23789879687131954 -0.8005955217669188,0.3361716271023574 l-0.5623731613877582,0.45120012736546883 -0.29215717324760265,0.5315899250495341 l-0.010513074738384594,0.6289631722901985 0.3724313079731459,0.6261159181295834 l0.7429479363548944,0.5138432382595842 0.9253115055988489,0.2949540615209262 l1.1611168385646846,0.04077842460867169 1.2382112740157916,-0.24063201240219614 l1.164942622216535,-0.45073315495615374 0.9538691044634475,-0.5777145028070803 l0.6605785487882514,-0.6351359488274761 0.354503631553084,-0.628720879652969 l0.10833749164406899,-0.5331836939717527 -0.07114368671385467,-0.3905816077641949 l-0.08835159238903285,-0.08850500006428767 -0.11236342801306683,0.03400682662062489 l-0.061157867287933966,0.09410710644416123 -0.026661090407897516,0.23164725306275294 l0.20755560680554488,0.8042467236275228 0.2175288943546867,0.98873096714673 l0.34804275632770293,1.1503690479625261 0.4067542552695212,1.2339924572732175 l0.41890877488141093,1.3332798482252213 0.3078444897948756,1.3166927100247172 l0.14965772645482367,1.1763317584981958 -0.0453477838391541,1.0065916778229813 l-0.2643298209097421,0.7036173344080784 -0.49272057412044884,0.3523979485942106 l-0.7196531891373674,0.03060201925954398 -0.9281115532603859,-0.20688997218756003 l-1.0049937963822022,-0.3524127900961231 -0.906251192192112,-0.45450168834029925 l-0.7341341972993963,-0.5874644516064643 -0.47577044365323934,-0.6733546853831309 l-0.23550419513012455,-0.8124507665723228 0.09262801711963593,-0.8945906162013849 m7.4829368592765,-5.292513370632512 l-0.008323358355629048,-0.06917487094506773 -0.1377711744286062,-0.21723782996884097 l0.13932193805675047,-0.1643127501091857 0.2540785372654278,-0.3514670134385467 l0.3594454824521508,-0.41954562069597234 0.38791427020892516,-0.4692026673851051 l0.3101608455211226,-0.49504658591419926 0.13935619596338936,-0.4276723265257669 l-0.007852014101298958,-0.3539841473587563 -0.1549565641982242,-0.28714546588570794 l-0.33844634900129783,-0.20872509471382544 -0.5152223707368743,-0.07222636042769899 l-0.6620118617925758,0.13049592081266406 -0.7207671999144988,0.34366852046847385 l-0.6272252797445933,0.5134863851864849 -0.4324612916179186,0.6382603050503737 l-0.16250684858411663,0.7083732485704601 0.12237782778442893,0.7096915840176137 l0.38529539112191513,0.6683759094739267 0.6627140642647492,0.5837927462096034 l0.8963051435848634,0.45914679765867106 1.0566960574099111,0.2650428415925886 l1.1263561246837208,0.04378408191160714 1.122165679931528,-0.16261953110613747 m3.0414061545032425,-3.953703641855328 l0.01193898353735613,-0.061204165276696754 -0.04793578393459723,0.008184120153197432 l0.06650366656338594,0.14042586066529003 0.04447446015155505,0.1768203377766268 l0.10720582294809561,0.5457456708313934 0.12295819801341332,0.744109392074802 l0.12863388658313976,0.7422363757171131 0.13315011570413657,0.6721466778743904 l0.15096217389404087,0.5211786628658163 0.13097777962395468,0.26633000391467315 l0.12499243021113553,0.0979650764662547 0.057997450262673174,-0.018883563701797855 l0.023328472012285998,-0.1340202092391132 -0.014862356683079891,-0.49690699585288134 l0.08175547424315238,-0.783294022201552 0.11060923340176891,-0.8025261759821278 l0.1771775931763688,-0.7267873884556744 0.2607796489510267,-0.6384162306116578 l0.34973588591564847,-0.5320600272787657 0.43045037987776286,-0.40958756204747543 l0.5231062174036002,-0.25464889413022007 0.6073496935701362,-0.0753246843954924 l0.6540427805741944,0.1336596308871688 0.6363019943795309,0.32897931344753445 l0.5723353623455534,0.4835800528034881 0.47310659275574624,0.6043576000869547 l0.3822183013647572,0.6892707345092455 0.30250889072072495,0.7312431335024976 l0.2316778599819305,0.7027575373787982 0.17113980659632375,0.6502912044246068 l0.16216747469910867,0.5613957642376017 0.1967475264086149,0.4170798361284749 m1.7317144869057375,-1.9334523678189846 l0.08035062978373782,-0.10417898746601811 0.3846851288359395,-0.17605669797067033 l0.46507653605306004,-0.2759315968934834 0.6390055418508707,-0.21802280835665844 l0.6691762208255446,-0.2675203382585636 0.6619907023469875,-0.34674882883502406 l0.5144613980999052,-0.39638274915201366 0.2973356247339513,-0.4086212516023138 l0.09141784929216827,-0.3694432675171142 -0.11720170069919553,-0.3461461664018888 l-0.32156562819323575,-0.30483058101672306 -0.5176568627601403,-0.21346962445069995 l-0.6722708940839536,-0.06314267204303962 -0.7485483884320366,0.1178588271147786 l-0.7358418702480135,0.300883322878941 -0.6360705493533123,0.46294930572906234 l-0.43551814562648367,0.5997593403627294 -0.19396106910586197,0.6876026986183168 l0.05552650997012,0.7367979286787117 0.31636875856301433,0.7318029999295459 l0.602554440478975,0.6653272510612622 0.8629335165904249,0.5429908036534498 l1.0703694821951815,0.37074041383419665 1.1906567811399895,0.16071757677162826 l1.1989099979829887,-0.04727306590531708 1.1043709514113034,-0.22582976520079795 l0.9351684450971396,-0.35154569149535686 0.7022050617310179,-0.4654496609936685 m0.5708647966221986,-3.489892721260846 l0.021917575903190795,-0.05796428031086655 -0.09533764422160519,-0.0387800335888231 l0.009628398287059319,0.0941853449005778 0.09148169294765336,0.3689357043316837 l0.06630013131269392,0.6892089248795581 0.1330455391579817,0.797425031517119 l0.1774441153039692,0.7996659876848635 0.22334180784498867,0.7273858188244722 l0.24758493902851111,0.5860847830613631 0.21292467414706112,0.3664678335592834 l0.14296185961959768,0.16502280541975636 0.07109355179320279,-0.013764545303831185 l0.029625333862756523,-0.11958913497216497 -0.14417864373155187,-0.45592027900998866 l-0.160627991065879,-0.761414408757363 -0.13234172774947928,-0.8182818888535954 l-0.1036885826786257,-0.8306665420457661 -0.04953014495729734,-0.7840620874887604 l0.018584184507050374,-0.696481049156415 0.10676573213852071,-0.6048799752433859 l0.2324553578782905,-0.48855778572263403 0.3562735915307111,-0.36084926127499106 l0.4982323050846485,-0.2215629815588939 0.6557351948791,-0.059927404093022184 l0.793656051101403,0.11587846291994426 0.8603342176015308,0.25210776925113465 l0.8976912498328297,0.3400873541433167 0.9316407442792225,0.3788077235844719 l0.9463517068430549,0.37871432304652586 0.9037402868426732,0.3114577829101463 l0.8737704752911862,0.2492837160562131 m4.195542335503176,-0.04014677536893975 l-0.14515468494231268,-0.13211014868627466 -0.3699904978427918,-0.3752873540413132 l-0.4103626012026861,-0.28000479943799444 -0.6180118320824673,-0.2651601434170196 l-0.6637758014684708,-0.17353613677382507 -0.7475965024249427,-0.06481241429391113 l-0.7686710357661987,0.06448040894628912 -0.7430481314693956,0.1829570385232354 l-0.6082433463191029,0.3264809551722545 -0.460602492066862,0.4706459343549671 l-0.268508970889581,0.598899841350674 -0.031089249928786245,0.6943955421322658 l0.22171579310916,0.7204965947532728 0.4403005541330724,0.6586977840875557 l0.6150858401478775,0.5329366920831828 0.7247563005622424,0.36130377670433034 l0.7813679574518698,0.14858181759215902 0.7612119316475728,-0.0932203381258809 l0.6666953562237643,-0.35887372507020526 0.5582331419649678,-0.5705664753904558 l0.42159608016916955,-0.7201436160937811 0.280629545473298,-0.7692781090339029 l0.1174719928236669,-0.73784369213811 -0.016761869106165908,-0.6230676769877711 l-0.0945767611548842,-0.4508157373015311 -0.14525058865286883,-0.29433670628320935 l0.010936610414257473,0.0011574626828343053 -0.016572877696106388,0.07573890690344708 l0.016843285404479102,0.12335900960541422 0.16680626565382056,0.49934539207891665 l0.23672914513308488,0.8162856699023334 0.3308803139287007,0.8496919274701082 l0.42424049971118066,0.8288328647324774 0.4961417020141974,0.7587270141157347 l0.5183452368008834,0.5933915377203551 0.5117079019117715,0.40204322332191555 l0.4720254539537428,0.21673518421303875 0.43470323087342094,-0.0042558071232554505 l0.36972713467976237,-0.29517719150028665 0.3517376484510886,-0.6550466418955749 m-0.2694433332018725,-11.376023292610055 l-0.08108947437502956,-0.003612563008041476 -0.015035070400922534,0.05037176602323762 l0.0399225132283241,0.3958093523851972 0.13744995002964186,0.6169165968150252 l0.12513017664906534,0.8258616923893609 0.17768852421411302,0.9513343571826784 l0.23878304667993389,1.0827101469380622 0.30402904758675253,1.1686578989167968 l0.3547267913955717,1.1961187124750021 0.38230341681748947,1.1566022634287696 l0.35684794180328533,1.0268508195202644 0.315204441399321,0.8907539248950243 l0.2586531043924303,0.6915591360191777 0.15023516108794915,0.47388422491603444 l0.08241377028218508,0.1744122057749116 0.044911302423858206,0.023577559847666463 l0.03266849745744753,-0.07866002611102112 -0.1820445509090505,-0.33871585120691083 l-0.2056214958169547,-0.5712612272038323 -0.3273707328999971,-0.7441835403473332 m-2.7091045380267875,-2.3780293464281113 l0.01907471382303107,-0.03907579176683237 0.05162418644838546,-0.09456020596469654 l0.15437337757866554,0.0023099183653656854 0.25619995606386475,-0.02574910970311895 l0.4291451573445298,-0.014397084739180669 0.6100090744104906,0.013891939099950259 l0.6771203876765292,0.0207990520098994 0.6986854075788705,0.034331686809220295 l0.6830700636024227,0.05905158090277512 0.628870248839584,0.04629240937794326 l0.5533544423298707,0.018457628698334803 0.4758681059422575,-0.004628084532636087 l0.3977950215716819,-0.04111117885963231 0.3202190099507245,-0.08552555739011566 l0.2648383379040354,-0.106960959681903 m1.3264892099490295,1.0838949681128718 l0.0006632990742697838,-0.06762507558365782 0.031074021074918738,-0.05446831148755892 l0.03639855231536586,0.04202813652403442 0.07269005480690523,0.10032550230344046 l0.008360816080727723,0.06570941226981994 0.05712554600318711,0.18126040691406445 l0.11599697920934353,0.3914715647509705 0.15359790626609665,0.515753626756059 l0.1571884453641588,0.5119833946650852 0.17816671739265033,0.5086215735430664 l0.19695881004872917,0.47301352020883236 0.22099930043872207,0.4088957308507418 m-1.2963435650356303,-7.242174625415298 l-0.06960929169226357,-0.17416301370404388 -0.09731164570807173,-0.19123429054075827 l0.0485718622897649,0.0004822311661936501 0.10599344229614933,0.06787158552924627 l0.11085215953466981,0.02919789779115128 m8.524289131173232,5.007442474190042 l0.06088270256354696,-0.01719163345843313 -0.0670159607302336,-0.03314986090853237 l-0.14619746793033825,-0.06713454418997974 -0.4204879700917763,-0.14085930604699384 l-0.5313638447509972,-0.11777717612321423 -0.5822885038134856,-0.006862395579608582 l-0.5947355627057243,0.11718848348412354 -0.6242418287840702,0.2267368881277201 l-0.6079660654442708,0.31721770756375817 -0.5653354525762505,0.4099405408540584 l-0.47465857866245503,0.48977583642110656 -0.33538809426677857,0.5237539411481275 l-0.1470542848363367,0.5329424738711083 0.05587833757307412,0.5423857569672657 l0.25593438742327346,0.4966158271077464 0.4715713858738473,0.41030308607626115 l0.6756828427289507,0.2940109075711696 0.8346512913806321,0.1339053510914932 l0.920092046174251,-0.06260098515629671 0.9263296128428746,-0.24305772784017143 l0.8311300276805226,-0.38798335212734547 0.6733464001437023,-0.488533824622356 l0.47224378581677934,-0.571204602808907 0.2536066471977635,-0.5862520336636791 l0.024926196888223163,-0.5689105388770422 -0.17498476802628438,-0.530973970749836 l-0.32967996600690597,-0.47385075708332497 -0.4319962561060867,-0.3656047880055955 l-0.44984033705857035,-0.2201531528803505 -0.4195118248980656,-0.08106778576376764 l-0.3390985726324441,0.03254845369521367 -0.23584370307965707,0.16479924324200126 m5.087063312684488,0.020505130242220417 l0.09206634005199862,0.0009226948324615891 -0.023162625687926763,-0.09884855150536247 l-0.005344431907455442,-0.028525061891538375 -0.018419418406745547,0.06926949319876591 l-0.022853862535481988,0.03724892074582292 0.00030334487745524013,0.20261767495480584 l0.12120673050976655,0.5173500179814668 0.10194543001180044,0.618116021192669 l0.13561712199703546,0.669422447557739 0.16125144077568757,0.6803752182386307 l0.19288878133382473,0.6339251997159894 0.21050468074564566,0.5106840731037989 l0.1380608678432568,0.28543806070967054 0.11284244794103496,0.1253907681608511 l0.054597862046380626,0.027675818662532534 0.023464307294413757,-0.02523677040010867 l0.007588688441806902,-0.09382699434997624 -0.10276512789439651,-0.3843952716579574 l-0.08229105193562457,-0.5961613060025391 -0.052772279915920386,-0.7122731208459514 l-0.012042846466838708,-0.7186679241991418 0.07092912515746229,-0.7122920751890439 l0.17635063823197622,-0.7055394052919356 0.27021577965819216,-0.6660622954709623 l0.3845432996981175,-0.5896694062871166 0.5274232030392876,-0.4713458120505852 l0.6557379365023973,-0.3216371235718212 0.7276278734881949,-0.14625151451374518 l0.7503280641978649,0.052751809369413094 0.7174442409888326,0.22638116772506747 l0.6572733521536317,0.3734113277624912 0.5625813605262211,0.49011433123708875 l0.3709600268336951,0.5257532001101982 0.24207960077468538,0.5880417823239643 l0.2007271796930643,0.6811487673634148 0.07692617165140597,0.6827074885085708 l0.03370866930505971,0.6279267073723718 0.00797689699968759,0.5677710771253671 l0.013370519413356933,0.48416465505521256 0.04093356778801252,0.39735737444856933 m15.06161022190831,-6.289335727748093 l0.06688577659431988,0.05153359852770315 0.006454991171344572,0.1684424728921444 l0.15787972515436186,0.33496350052865576 0.11615584803788603,0.6238290073028472 l0.19055901476150916,0.7219993472903863 0.1735739111604517,0.7427833080282811 l0.23206424726312305,0.8019641638721048 0.2399767934684836,0.7982535958643763 l0.23624829951558532,0.7223092913157443 0.20177079723973754,0.5820656419353948 l0.14767114816443594,0.32986363753200887 0.12409049274335375,0.1552709339582168 l0.07549317170587289,-0.0043340548219513225 0.03743001073541523,-0.10152901700692112 l-0.004675220674914561,-0.1687369645015981 -0.13633692267051437,-0.6087871192944512 l-0.07502955207968535,-0.8098385928575705 -0.06917652496581009,-0.8403216004978906 l-0.016933448658138457,-0.8477977512871164 0.06351833796962705,-0.8334735631122637 l0.15605296191605691,-0.7972729803549408 0.2694014606536387,-0.7001696229438631 l0.35923847547932536,-0.5704560875411022 0.44274297361224124,-0.394450902895249 l0.5074265599620504,-0.21685704595642352 0.5571057796707863,-0.04915514216255304 l0.6055308581521698,0.16143426302576847 0.596729636202252,0.34480223046989744 l0.5260687468775412,0.4934754370508253 0.4378800987104375,0.5582443475973814 l0.3379253149533083,0.5804862380753723 0.23742052924580523,0.5807579757228011 l0.13123914591737834,0.4960007073094909 0.04674752414149787,0.3732644913477366 l0.042116586135099006,0.15617170925922572 0.04445765162103852,0.06632161118795667 l0.029392933633947446,-0.0087278038718238 0.009981542962543053,-0.11245328195291249 l-0.05467743415225302,-0.3716497719486177 0.013348566466117888,-0.598272204364813 l0.06462900335537441,-0.6436706780747488 0.1285699455877892,-0.6383738516826599 l0.2598171234953952,-0.6020880340759772 0.39644861224036276,-0.5703626871179567 l0.5219127536124212,-0.539011538054855 0.6380025745417248,-0.44439592973251096 l0.7164201738323082,-0.2891024349494675 0.7213920951368317,-0.09878524389081685 l0.6674082278406477,0.11365074659804508 0.5562750698195007,0.30495142933837677 l0.44332444676374383,0.4891666171103396 0.39543277022788376,0.6564708350227794 l0.266597300885379,0.7362572550173434 0.16911813653284863,0.8123366831395316 l0.12307153639929068,0.8251109121926258 0.11701039976207585,0.7899834511989 l0.14467489730909422,0.6742551922613805 0.14831721776614443,0.5568890573002772 l0.16253285118380123,0.34927436698836456 0.20010711259887043,0.18018853664196247 m6.900712966796875,-5.449787139668396 l-0.20336708441578155,-0.25545549399835676 -0.11362652484908205,-0.1604088992674525 l-0.3292163314313043,-0.24902632834441107 -0.41929611561634056,-0.20722751331751055 l-0.5070021152660604,-0.16147889196985696 -0.579412817892352,-0.07874427738592382 l-0.6515688895989632,0.014988978472769806 -0.6942851543300006,0.11758678407432374 l-0.6817830204969261,0.1993611305117441 -0.6458664537114961,0.2824139594460344 l-0.5785308479231469,0.3781664967991168 -0.4696345031399269,0.4958937168838358 l-0.3340453506755007,0.5766572357536155 -0.15447042872138547,0.6447684168599194 l0.04600141946228894,0.6746807096756554 0.23480452597452098,0.6494603752484301 l0.40657576914232285,0.5788816213751365 0.5422225594148898,0.471385091516708 l0.6478760241971288,0.34588047885599915 0.7508141398922556,0.20765261345978445 l0.8190002441495311,0.08651851101956994 0.8182952405853211,-0.10145917524318798 l0.7712804673944166,-0.25319081551040906 0.6561883092944912,-0.3934181034746165 l0.5032209158107337,-0.5150760413940788 0.3484501838802707,-0.5952622294029591 l0.16575531650440398,-0.630761504308592 -0.028633158601193805,-0.6356247663475189 l-0.1597988754568972,-0.5893513560459904 -0.2608876525990521,-0.5285953878878781 l-0.35049530877542595,-0.4441200495442882 -0.42478770011466793,-0.30713579044271316 m9.42110252386515,0.8994100691610475 l0.006652517279144667,-0.13777115934372552 -0.09305937564635436,-0.25531849265802864 l-0.25969418895324803,-0.26833653442181676 -0.34554493422002674,-0.2581569551081776 l-0.49757310762887186,-0.24948793653896797 -0.6227098107728284,-0.1791934073014116 l-0.7337183950181061,-0.1112523303479514 -0.789724469161763,-0.026470856669440414 l-0.7630432844019627,0.06749846773521656 -0.7229766248532715,0.16750654580866237 l-0.6851440072188684,0.2495259939678092 -0.5932743549764102,0.3585361840118757 l-0.45798599709863974,0.4532474877260946 -0.2976384160958162,0.5453281998342112 l-0.11463619764838628,0.6180184485547374 0.10155352941551277,0.6500520109554666 l0.30258482707732615,0.6299909949686485 0.47851857536692494,0.5661679507496074 l0.6223577261757204,0.47593465445673616 0.7218814489427272,0.347221791677557 l0.773905217753422,0.1998768150219704 0.8367927074276874,0.054723851508997834 l0.7687706947053349,-0.15178154410160827 0.6967936753866565,-0.3248531518925964 l0.5600526334933075,-0.49650853873167045 0.40273812420830946,-0.6545497774493487 l0.26926326736177975,-0.7967225907952936 0.159104689893161,-0.9092566967430638 l0.06637954706197378,-0.943712294312872 -0.025953654243607367,-0.9421755076484839 l-0.11321251094439441,-0.9264582990707377 -0.17779251944064334,-0.8548281789614458 l-0.20753675696996599,-0.7449530362925727 -0.22826714815877616,-0.6174243093868635 l-0.23099665342776812,-0.4503014088137229 -0.026460081425780622,-0.053745627351344964 l-0.04153386515568649,0.010755799805067866 -0.0034180843895733233,0.09568344803811064 l0.001625485880439494,0.18981826293636955 0.1471965761624936,0.6881371737163152 l0.14083652194608204,0.9250846505923169 0.10180236388870156,0.9709876179073037 l0.1436235456465072,1.0619155168206638 0.15022172040470366,1.0828700068335306 l0.190723255245745,1.0474849939172892 0.1990429909336648,0.9676164984983534 l0.20876511925724503,0.8047897816096166 0.21848604082902023,0.6168381570285583 m4.329658031522645,-3.2665023803866866 l0.026106512066140036,-0.1151854097392465 0.2032900303119732,-0.2002694606177402 l0.12174285188019406,-0.2421693505660947 0.10064236842510887,-0.36607041939622614 l0.08031904705802344,-0.35814866408781465 0.004636868768932777,-0.3402948380360105 l-0.07563841332627703,-0.31732290984320255 -0.14712256197785145,-0.30276358135748344 l-0.2078270465440793,-0.2753001752434919 -0.2810896038774164,-0.23226428021805393 l-0.36837068210671586,-0.1817914545369898 -0.44105404626277933,-0.1233956962267563 l-0.4915973841324221,-0.027406891720444748 -0.5296358466904951,0.07357066143502375 l-0.534301400003078,0.17785058912526344 -0.5021508932555588,0.27472451332840025 l-0.42016416791364997,0.37056988491271364 -0.32330772288074394,0.45439532404086647 l-0.21451823417958926,0.5171567202181961 -0.06744498011243283,0.5659389496025709 l0.10309629140526641,0.6002609134200996 0.25809329734317193,0.5973630547408407 l0.4149394928240576,0.5702787041940586 0.5795342921795517,0.5315153597786664 l0.7390235661355999,0.4727409781322467 0.8803816438313145,0.36602652078791986 l1.0043091772808228,0.2289547920036519 1.10444247701634,0.08261069668852393 l1.1473025084382076,-0.05610796051306561 1.1048732996842843,-0.17016167932724763 l0.9886649847295615,-0.2610057294970511 0.834161400687295,-0.3238269985755423 m0.5272114873119488,-8.309347152716757 l-0.07608652103592463,-0.1363056449196344 -0.029915928823851214,-0.03044751301808959 l0.0032814702341435148,0.03171994536144077 0.015841483914902553,0.08079557847881602 l0.055660247946567445,0.31791177380826274 0.022408053200337178,0.513243079179046 l0.0778285339513784,0.7640410663097962 0.12915122494432155,0.8974125980511302 l0.18996958438359618,1.0101006030146251 0.2458581028790942,1.0819377899166291 l0.2849667073270976,1.097499728192206 0.28099688912815685,1.0450230837280632 l0.2856251895812604,0.9753678438736424 0.2585316299882067,0.8777178527002479 " fill="none" stroke="black" stroke-width="1" /></svg>