<?xml version="1.0" encoding="utf-8" ?>
<svg baseProfile="full" height="73.10344791475923" version="1.1" width="414.54582765275484" xmlns="http://www.w3.org/2000/svg" xmlns:ev="http://www.w3.org/2001/xml-events" xmlns:xlink="http://www.w3.org/1999/xlink"><defs /><rect fill="white" height="73.10344791475923" width="414.54582765275484" x="0" y="0" /><path d="M25,38.75220429123811 m0.1436672657451722,0.2689370513212486 l0.06078755489484115,0.19892854994470963 0.09022395284562965,0.7312439083398694 l0.035969156747870656,1.1700928209465278 0.2282047421109704,1.5299006700098667 l0.1777167470702313,1.2837945223377099 0.26116132735130104,0.9649513959528488 l0.08324186491883939,0.3430687785036929 0.1040425598558436,0.07623855038693057 l0.04360884430217333,-0.0871425121350739 -0.1296076328602696,-0.5568930507657252 l-0.2579313217453946,-1.1475770474952516 -0.20680762819234244,-1.7734562160960392 l0.18386563663812092,-1.7690243720341392 0.4540917575515624,-1.5778322220076633 l0.4635755419918763,-1.3211098907376626 0.49769017087875467,-1.06440305733579 l0.6337674259157285,-0.6075607537733536 0.740003585782081,-0.09969355915766047 l0.7718171477378868,0.32980406267624746 0.7598959802867955,0.9700449109168766 l0.5568555594483863,1.634910225841819 0.39234957083250843,2.1565284730565355 l0.40729090576741095,2.1065654755114513 0.5326980352295295,1.5210911036631218 l0.7820191979793405,0.9712277053590481 0.824816703673324,0.2412309795916041 l1.0353822709672509,-0.237111702761645 1.0817592144418513,-0.6615553499028127 l1.0350409744904137,-1.0155900716971613 0.8921828865155973,-1.2641758919019312 l0.6799047588367164,-1.2429056166234427 0.38950482013254767,-0.769007503987203 l0.20798057318894625,-0.045404307600648564 -0.1117663162610942,0.04497190937434928 l0.07056847212676247,0.3800680936495146 0.1488279848144089,1.1156524419717424 l0.2596278189915565,1.2323830127196072 0.4826085271166767,1.0062056777990633 l0.5947269200251365,0.613361954696439 0.5582827925823968,0.17962893850829398 l0.5316863058445693,-0.04118832575327589 0.40562710162933524,-0.28724342585705376 l0.3772503437224817,-0.5137912035168993 m-2.287675857521605,-10.94749069221964 l-0.3161161839849543,0.0016153733532470417 0.15328583120579636,0.1099990233605729 l-0.03343217462078149,0.04813648021053907 0.06304282682823084,0.0562063531436027 m7.370410918979072,4.336924553009412 l-0.22202023846303773,0.021932549858035826 -0.08964015540004062,0.029480680825493568 l-0.3892406524424377,-0.2110445202280288 -0.5547220706014034,-0.39210796358565625 l-0.5883014203335981,-0.19579330074018586 -0.4078196584990308,0.09376057993625793 l-0.1487274916226577,0.3555862009214982 0.025883479011623124,0.5834415556327279 l0.34563338761200035,0.8712718485872447 0.6189228297135794,1.0625317096288067 l0.751011610143908,1.0996121167870936 0.7905105352009864,1.073512434969752 l0.6681910156940203,0.9587171672486634 0.46029764422034153,0.8905101418808092 l0.045019149837616484,0.6817405223996981 -0.21074816595917134,0.5328856111939334 l-0.44910472634326787,0.4052480162141785 -0.5659353138143952,0.2011548727920182 l-0.6172839402126913,-0.015408043652664181 -0.5893855690346957,-0.2328995765065582 l-0.4128485023003622,-0.35417741530956093 -0.19123198088242496,-0.37426650518423915 l0.010562971263657033,-0.29329180708131075 0.2628116610561183,-0.34439051163315726 m19.593927383400867,-6.654870510201359 l-0.09303603316925274,0.14221511780152088 0.10601265725321062,0.7289169431654525 l0.04567551990129953,1.2856856584878253 0.2049897908732283,1.6732792854061511 l0.23457235089675,1.680323600948546 0.14945663510440335,1.253303408643061 l0.10646791743277226,0.8117038010226293 0.048389021179346486,0.34321027986193 m-0.637350738080383,-14.735611915783782 l-0.04319909205246662,-0.028445720739308525 0.12871977683179117,0.020591989172540726 l0.06860944643693237,0.03812573488216513 0.14278446131825615,0.055221442223295 m5.456002235312268,8.959897041465524 l0.3215821682705083,-0.34693273895753896 0.3393244445634078,-0.5665735005339344 l0.0967662333016262,-0.737610042159253 -0.03387532770226084,-0.7816915511442709 l-0.18697211136010644,-0.7510570286810422 -0.3652111589143834,-0.4273117185150831 l-0.5333929658857434,-0.12428224092932716 -0.7269477245577158,0.08347465852382507 l-0.8043055535182746,0.3184173107055246 -0.6120894551793926,0.5481707454945548 l-0.40713030101486414,0.6284372210672996 -0.15676176528971822,0.5525830389048955 l0.21356420233408788,0.6107539532674993 0.4427142739439978,0.6324458718013822 l0.5555090309060182,0.596314907021075 0.7292164566132311,0.6284984944677124 l0.7706548572459812,0.6363707780554695 0.7415792345327796,0.6703438162485658 l0.6221274136421658,0.6752132773622158 0.43839108953143857,0.7201343179388845 l0.19127206531028773,0.7167773842934815 -0.16667711719634043,0.5310322642760914 l-0.30768042784230537,0.5414660573445502 -0.5587754249729634,0.3894802331348904 l-0.660896718555546,0.17795169346398831 -0.709116339813888,-0.045509047700454636 l-0.5623742938913334,-0.21382762491886845 -0.3510114547966201,-0.3656984865636187 m22.554489135727472,-5.775187969173146 m-2.409723758583367,-1.2619285582045356 l-0.2019288538692472,-0.4538781641471427 -0.08411133286662459,0.09005350609904725 l-0.0721339136294761,0.2768406868734433 -0.11969271306465884,0.9522765280162157 l-0.1568909586924181,1.5160895586498904 -0.1610534192147685,1.819176554738216 l-0.009252708537213957,1.6357675791582373 0.2585149109630802,1.1622002123892392 l0.4792621732133499,0.585204005304514 0.6446601152300744,0.11283066124653045 l0.6190494894453294,-0.3109359741662698 0.4343433379435382,-0.6711757777152981 l0.28865596646418973,-0.8438701631158603 0.1064094752331015,-0.9662177562490476 l-0.06208143020096421,-1.0693415403471305 0.04744246965638785,-0.3302815854551261 l0.029841456437447532,0.15728986276670942 -0.07629180695599491,0.2825090587979318 l0.24753084778930035,0.9873778819102172 0.41101557017762397,0.9881164431682355 l0.48770689954392715,0.740502834400067 0.5500750538836233,0.4800983073605336 l0.6091354488034139,0.24616068604309285 m12.297966003543047,-10.19284534443155 l-0.19148841503723882,-0.4255785047678438 -0.12095661465830679,-0.09307794256765484 l0.013136837658924056,0.0005942819116435423 0.006828768179839074,0.24302500498070642 l0.11937783656006373,1.0689313410273495 0.14005769782159716,1.6674813032797728 l0.21561712009782746,2.0645389555848737 0.17463886745269017,2.2185978890267446 l0.14571341866595486,2.1230313777792187 0.16768325871311973,1.6893274784079488 l0.21350139388503345,1.127698421509152 0.24548736211297928,0.5565426945967555 l0.15879553558655435,0.06316376487741177 0.2928591668413436,-0.15087142586596552 l0.34784939883786076,-0.7367407679677483 0.3996208310276032,-1.4453598262872263 l0.5253061055737478,-1.7716735600346385 0.6576067804267366,-1.5165388584550532 l0.719238937006007,-0.932337820414625 0.6530147790401927,-0.43630173798283484 l0.5222284196340464,-0.04514552661182931 0.5064886807763489,0.39742717151290474 l0.4680436550727056,0.9021717311422184 0.4014074802139993,1.312787771344222 l0.33214738967105695,1.30577325812309 0.33476668584652036,1.0690559150244594 l0.3798272611101639,0.7076558470688313 0.4532811046472399,0.3468764722653863 l0.5294253826728451,0.010971440931908261 0.6177411079411155,-0.34361240285765393 l0.7826005816683901,-0.7169901727784094 0.8823741676179915,-1.0470260382523298 l0.9552499056185404,-1.1695718765972152 0.9738169908076509,-1.01452636723194 l0.9617431759296095,-0.7517642974658357 0.8801367283567229,-0.5279146434087111 l0.7542859317439724,-0.3139454425146493 0.6068975925068665,-0.15504927932689158 l0.30748909724879114,-0.06279847040633495 0.04138486090155785,0.03234659885695339 l-0.03885630150077783,0.0006296747458380037 -0.04835960667788443,0.000476861522327066 l-0.12343803043427594,0.0948032289207523 -0.4481001794570916,-0.04290347175908026 l-0.519197166050011,0.05067219973432462 -0.6204979420058864,0.25606963027126917 l-0.7537446021109548,0.4784595968532079 -0.6627898811226367,0.792731106332647 l-0.4619710447208846,0.9616633058112862 -0.2487684041024701,1.0010373592365627 l0.02836281062499328,0.7978088856776192 0.26257607317150894,0.4511138201488266 l0.4234283565884313,0.19678206750032765 0.544573724106619,-0.1469951417335678 l0.5882390140491438,-0.45707014200309737 0.5892271996527285,-0.7193199394930576 l0.511510133647365,-0.8959542513454456 0.43899703027464093,-0.9871016144611376 l0.3530535400804997,-0.9339969754375671 0.16402468079149957,-0.36938649388859873 l0.06284331521070981,0.11660499128382239 0.0021567718422033214,0.22431017459602415 l0.08796976512583143,0.8308871389645425 0.08858351392271974,1.0386688709041747 l0.21340678637889227,1.000925540868808 0.319248676358642,0.7102279066688465 l0.3634791373039382,0.3845556379290832 0.4021645187687787,0.11923703552661735 l0.4678665099144347,-0.13084980839692034 0.5009750725568314,-0.45373114937575476 l0.5285004972648082,-0.7587288618384616 0.536777973139437,-1.052999258190306 l0.5248534083313395,-1.2190133333479358 0.49027490633966403,-1.0811442136876104 l0.44777688377908337,-0.6673655507725098 0.2898780999997612,-0.2091102450574757 l0.1845437886144336,0.1180806608253141 0.22625954460372058,0.5031615496027794 l0.18766093252764707,0.8935094475125092 0.14046046143473534,1.1060149670704786 l0.15726448588668887,1.075368166170829 0.2073281555593507,0.7763504386444349 l0.2787484230447857,0.42148223510980065 0.3077217340542485,0.12724776578932562 l0.3708684741188924,-0.13684555876211565 0.44991895519948266,-0.4314597547345574 l0.522474288978084,-0.7373094557978188 0.5512439013426875,-0.9350610971579106 l0.5333721638569426,-0.9125778675145754 0.4832209944318991,-0.6669307352663213 l0.3941209614251369,-0.2977130414648499 0.261845707886606,0.0682917013807363 l0.22616058593394733,0.24765045940142774 0.3496782182336227,0.6502370833591178 l0.3385547698424744,0.8213753102803408 0.3621059952783629,0.8239567278294093 l0.42807582005083894,0.6773416400816439 0.5093054174974235,0.43828749653636373 l0.5592652560727522,0.22389903651909596 0.6240867971687951,-0.024299329329456533 l0.7138060330321343,-0.2817058265292856 0.7850891945803052,-0.509233295793661 l0.8168480991374318,-0.677451729791648 0.7563932535874036,-0.7897401453072258 l0.6520778537392091,-0.7729225160170375 0.5391501187594769,-0.6092738508580123 l0.4242483675529177,-0.41401162740668057 0.28391769529488936,-0.2638031542024813 l0.11421898746680607,-0.007107295134237762 0.012063331963604899,0.07797224820605946 l-0.04626999793751147,0.1160235480319514 -0.19751974935255126,0.38248628382739036 l-0.28983968506508323,0.628298699842491 -0.22238026563613683,0.7698304056879546 l-0.09652028973740544,0.7840312718904375 0.04872898398365866,0.6886526941859754 l0.18245694040308302,0.4841848910702768 0.29286837581249864,0.2620785831517147 l0.36489248283748277,0.010150986793641454 0.4296663701658328,-0.2650547025822497 l0.43996098640970543,-0.5791907310480933 0.37991708527681933,-0.8538876771444252 l0.2928763331143139,-1.1049457788680543 0.23304960135867414,-1.383483648372392 l0.20437471571408955,-1.5663104057035866 0.18012589195713516,-1.5958628652603606 l0.16000679146201752,-1.5054458379084763 0.15596388285609586,-1.2996681927293072 l0.13850145056322002,-1.0056864022583778 0.07040944683220855,-0.6666007041007642 l-0.014524549419029456,-0.3068496584497647 -0.01923163608891284,0.00022538186324231138 m9.802873611486147,6.714663982411032 l0.119900084997297,-0.24916815756272676 0.03184761854484163,-0.5124290586501443 l-0.1465486438511624,-0.6895933747896896 -0.2594873308799201,-0.6156154869082817 l-0.355321258227232,-0.3731800914700528 -0.3333785235686397,-0.06899757695450738 l-0.3748748302938165,0.2739486991288137 -0.4323183893963475,0.7395027279676016 l-0.36074280744299375,1.0605638025823731 -0.0982895939840896,1.1144183874622071 l0.10629250104155204,0.8744232058198388 0.27710160607523554,0.4727394581006894 l0.37808033824461057,0.13235443828020732 0.453622102678307,-0.10427849005481313 l0.5325324535045115,-0.3948227763989584 0.5525348782397521,-0.6382953523819691 l0.5005218982440625,-0.7913069129533008 0.4005247652236942,-0.8204385043012259 l0.19074334209979696,-0.51426005352909 0.025435898549295066,0.058016736067615496 l-0.014378916734945252,0.16415050612648827 0.08417802297776276,0.7959562539815298 l0.0945231169717538,1.0278681514641097 0.21843186020718824,0.9614426493219893 l0.4239187834948141,0.735261142382816 0.5399620532164517,0.3153518439341645 l0.6389607190152693,-0.02254403168585091 0.7117053865997367,-0.3717226388608601 l0.7296132443501797,-0.6533877850503896 0.6494438647567453,-0.87302929160697 l0.514839231979649,-0.9945182203423653 0.4107561409708145,-1.0347312688607033 l0.2993432581933526,-0.8257405161261452 0.07332683360732481,-0.2858463228307691 l0.0025669372722786615,0.09773009269128183 0.002271577728043515,0.16518151760987473 l0.19063892969516064,0.7488292457479269 0.2008034436314918,0.9123950004177306 l0.3214919269095376,0.8788578512469669 0.38433617358248684,0.6091108322386326 l0.40858608469731494,0.285913348166888 0.49117338659009824,0.05818624057841916 l0.45618030435434453,-0.16726452117440047 0.4126608075444768,-0.34051439165837655 l0.3587405980761921,-0.5361187457250884 0.3193768262858729,-0.6744360925164279 l0.2317931205512892,-0.6756830811334702 0.12625311312442586,-0.4771550000517096 l0.03952908500992922,-0.07538537691304707 0.024760078678303515,0.11144763984955576 l0.03989629086391287,0.15572224551526334 0.17519679666906354,0.569777548254909 l0.21792913976599304,0.7287418841395171 0.2687824368434802,0.7130557895087234 l0.2570856808340574,0.5452636479906531 0.2681528628212821,0.367892205757142 l0.2683144212416857,0.23589444156350503 0.24097718303294208,0.0938098655226254 l0.20899894824085768,-0.040594078505360405 0.2140782623448749,-0.19028535474707525 l0.26041534568460295,-0.4024003147043145 0.2998593449686071,-0.6212955714214763 l0.3176078500763386,-0.6964129804572518 0.32421267026351597,-0.5992584228012449 l0.31235066041942383,-0.42814311386844384 0.30013301949393584,-0.2517809271223995 l0.2912966907986703,-0.1213915124084866 0.3000814020272271,-0.011171381061844175 l0.326019495724619,0.14834868907106585 0.3307789264898898,0.32409220934782623 l0.3105792402441192,0.4951003494121499 0.2860265671970994,0.6036175489090198 l0.27274188391452686,0.5797979830413925 0.27208298447612406,0.4581371545375526 l0.2845700384528693,0.2967903616127923 0.28985002629165213,0.12730965029556748 l0.29386070360069527,-0.036668621179414086 0.3029203713350105,-0.24509999173635638 l0.31981101626253927,-0.4856632649917662 0.3308677971312136,-0.6331751346515441 l0.3341056406277015,-0.6297029852303087 0.3328661919384513,-0.5336744190191522 l0.2899346651623057,-0.3957577346383993 0.22236560282665177,-0.23924198746262534 l0.15788003807283035,-0.09338034687622737 0.007958684157858833,8.598049067288875e-05 l-0.06359374515491091,0.07539170969379771 0.003863141074627361,0.3070863187763225 l0.030429089531624036,0.6761405469878411 0.0699632913347424,0.7835141421731243 l0.1165240853520507,0.7473658919670828 0.21249930535271,0.6136994957927276 l0.3234469294897442,0.4023659825478252 0.4193807841244368,0.204916953875319 l0.4781382382627703,-0.012646361465541522 0.5402269364708239,-0.25779122122516107 l0.6020184753774157,-0.5354534388400013 0.649495482441704,-0.7697024345950251 l0.6532070040122617,-0.9674854278687065 0.6299821137479505,-1.1264322995794471 l0.5883236527811705,-1.1811954975015677 0.5623068213386531,-1.1550842523292717 l0.527015864832594,-1.0478814839273982 0.45210513488761794,-0.8695936203667616 l0.3491681216835138,-0.5800839664392609 0.21468904609761197,-0.26032724974514243 l0.090605810399347,0.05039036275177179 -0.059519447303418446,0.1872479468716996 l0.08056687567331346,0.8074076773045 0.033245828148465585,1.2183387278679443 l0.022208480249308812,1.4728754758585816 0.07587906712401547,1.5317894220850001 l0.12712755811703033,1.344613075011947 0.1755672396064211,1.067073106820989 l0.2138720750660703,0.7637012600684832 0.18265627326168776,0.47849759445320206 l0.13200148950639434,0.11789703376932795 0.033587504158056614,-0.03399762135127767 l-0.10394892100882193,-0.3256536422603733 -0.284060388858538,-0.6405684948149698 l-0.4307847617564622,-0.7507088782000284 -0.5037863253487456,-0.6531994936477088 l-0.4457514286689264,-0.39200684430724914 -0.3222407400885473,-0.17122234388674898 l-0.21212635946388878,-0.04734741160234606 0.07994258406560688,0.10117234294668943 l0.13263309003583595,0.06481946983086088 0.44303685423567096,0.10906238108897005 l0.824777543560746,0.0904011280829745 0.9964680671254065,-0.1350976823592585 l1.0827926396088874,-0.32546338439875333 1.0784113406964613,-0.4099130332080728 l0.9630717636252969,-0.4022128282778263 0.7753801344265959,-0.338682621702971 l0.5433455705120895,-0.23423221709874037 0.2985637187612036,-0.10083628443675859 l0.07963871966710995,0.10258299118281379 -0.1113623230568613,0.06935575603436125 l0.02249425667520334,0.5125249624028507 -0.03593591603229104,0.7825893162505213 l-0.06089606496949728,0.7517289519871505 0.05649761478074702,0.6555768252026737 l0.19108362506662105,0.45276832590967414 0.32807785262300754,0.28018286830336225 l0.42945027350653486,0.10350248940514109 0.5061068535047224,-0.12595458341189783 l0.587973535194215,-0.38487765176809197 0.676640093431091,-0.5567440987341821 l0.665340065928582,-0.5896060467531669 0.6017854213639895,-0.5053436755501085 l0.47892409549439724,-0.32488232844074627 0.3199621736053662,-0.09392736848673351 l0.19334515924732032,0.09110662335274948 0.17983189232115715,0.3155220448766851 l0.15288615239996978,0.5155307054149344 0.11305910331129282,0.587722241744493 l0.12190312152600713,0.5016124844903972 0.2210446149427534,0.3590904475837026 l0.3259250521347893,0.22578629844572873 0.4085468052853353,0.05808271853335377 l0.5134708879567086,-0.14818952988983786 0.6076767443993096,-0.3546425699419713 l0.6844670771213369,-0.4895057082825871 0.7093245981476518,-0.5429236291506345 l0.6780932545367728,-0.4955407084926123 0.6058613656704015,-0.3773263395480291 l0.4971992373059419,-0.2345971316952769 0.3095439076176687,-0.03968976460872683 l0.18038907653202965,0.07505901890852157 0.11835823210655452,0.15823560950399126 l0.17355087374770398,0.35876494628213434 0.14582023032587166,0.4354788958576231 l0.17076410347520363,0.4816900491880215 0.20591230687088224,0.4545684456316303 l0.26497822994413295,0.3704276681007095 0.33169892417598007,0.2663232088114697 l0.4075575768919636,0.15634034557987497 0.48177158836157163,0.03585023804441642 l0.5342307687225987,-0.09969428920703559 0.5745614170790655,-0.21944263568952926 m-9.738901138349927,-7.043809413978062 l-0.27109259367259914,0.09577595449470243 -0.062468297772454696,-0.0693846046567679 l0.18180574473198763,0.08866171545189833 0.327220708181794,0.12963628762792295 m9.220480918685842,4.645926952356805 l0.0818203164659422,0.013296410533898203 0.005712378725628861,-0.17780707758645606 l0.07685679189120742,0.08825042838377986 -0.11244401333962953,0.03309997168289832 l-0.17008969186387377,0.27746325727019155 -0.32140845060662815,0.6941387653635236 l-0.11001496009202456,0.8476698994987848 -0.03564975038154114,0.6538839935682867 l0.23341359187811483,0.37738209972696696 0.4261946976291659,0.12061066182607819 l0.6376985311013078,-0.20131640128361766 0.7869567872704921,-0.5332385895949712 l0.7736665606089653,-0.7182220817378095 0.743098676178161,-0.8090716598572926 l0.6774120331257637,-0.773778200157408 0.5217930077944204,-0.6365722416007367 l0.3341542481446239,-0.27145272486660976 0.1967256515126605,0.0017392934959344897 l0.2558613122425839,0.4329905509766577 0.2894911765319863,0.9743971824818722 l0.303044438212735,1.3367582558488185 0.3497656880802521,1.5902138950436926 l0.284796863714509,1.6422890425077852 0.08163532603048466,1.5620918273466189 l-0.13329726459667146,1.3657046556102146 -0.35832017668012056,1.0158500671019597 l-0.5461087822723008,0.6250361799687841 -0.6355776189506916,0.29156422601612475 l-0.6893329619128509,0.02097311428556476 -0.6892064809616525,-0.2559636831252289 l-0.4685338439196794,-0.548743784333177 -0.18947435915278288,-0.7199250459527441 l0.14339517035111274,-0.9020051956716808 0.6075550318359177,-1.0858651398871921 l1.0933395624160003,-1.2703908682421978 1.4554772376879972,-1.3910366298137182 l1.634549021652929,-1.3711078166676083 1.7251803874519522,-1.2825217248878953 l1.621978163742884,-1.1541481017354054 1.2786810398803976,-1.018991470478238 m16.00113105766799,-0.2747752071473544 l0.006348421751792354,-0.06726259737591073 0.005835302348807311,0.01237638286238995 l-0.00028061870188145075,-0.09623958174610901 0.04217002541734758,-0.04768972827916641 l0.013713169864937015,-0.1572348177263236 0.23110523823939794,-0.3739644884945144 l0.41916823386077473,-0.7066583634028594 0.48108550901473,-0.9053295851503104 l0.610636472951134,-1.1221702099620445 0.7733517886798041,-1.3474178316456615 l0.9958207606040416,-1.4745781422568718 1.0420236588566494,-1.5474650861372503 l0.9267435671018569,-1.483146548244169 0.8238543867696514,-1.3018815515935616 l0.5653910636568864,-0.9007494448546712 0.1690717042339976,-0.30856165280975173 l0.05137787761797932,0.10916356745573012 -0.13156768685687262,0.06908874200931607 l-0.15610086911138235,0.7828847170681015 -0.537070631994394,1.6220228671690633 l-0.33696588862514126,2.0806767940817688 -0.3368788659939509,2.528400421144574 l-0.18477091200679632,2.6764364241963454 -0.07732428627767629,2.624170064943636 l0.1862480489776185,2.3842456339325344 0.32272198785841644,1.7281161547642567 l0.468987018076133,1.1369417906492605 0.4384700058550577,0.5483919381401053 l0.4787837565726292,0.11273202280998472 0.4385592043138342,-0.34628176694850066 l0.48714870235845287,-0.9126539827963158 0.2729727326216279,-1.2298488614650442 l-0.016483351512910548,-1.1790704727879937 -0.19730360786812484,-1.0104126929384234 l-0.40318825844414463,-0.9046518803704161 -0.5987555384312296,-0.8276460765689564 l-0.6379237771604255,-0.683411121233271 -0.6541044710383879,-0.5408614875577228 l-0.5413619876931666,-0.33912733196084505 -0.38026171920407603,-0.18121720822844614 l-0.27026459576037376,-0.11368296309708209 0.1449355186589981,0.12546192082935015 l-0.020657729458501358,-0.0012998801052805837 0.4646515548983022,0.45383247754596273 l0.5530289412279846,0.5061258672776658 0.786987483430434,0.5009300112480696 l0.8853232860321429,0.36500501632096694 1.0627908707506852,0.2844188810273361 l1.093398332490058,0.13003619022369087 1.1144479512816599,-0.021927664048135332 l1.0626518724606897,-0.24319724728499076 1.015218854028949,-0.45514291529435164 l0.8824095725563159,-0.6453396081011371 0.6970785855640117,-0.7607631087165551 l0.4572689830834522,-0.7852407695336399 0.1636639388426309,-0.686264753344679 l-0.08667184406640287,-0.47214573613694155 -0.30495798596916573,-0.2887914776631263 l-0.4910956920489308,-0.13025771078933565 -0.6028114558834993,0.0903994366651434 l-0.6390553713434481,0.33681121481102894 -0.5327698588282611,0.5909738541444339 l-0.36399111143065505,0.7694617510051927 -0.15575908137481229,0.788515031348363 l0.1362670958098825,0.7322736382355646 0.37540253999443973,0.6032627821115008 l0.5846397280868036,0.39922738065542723 0.7876449823563871,0.1848535241301108 l0.9174339770225792,-0.08024324474923346 1.0513980387867763,-0.3029310106971928 l1.052900433520136,-0.5077393055493609 0.9838195441890699,-0.6374614238424459 l0.8635424973182944,-0.6977124214686747 0.735469460475955,-0.6672743558216337 l0.5704593060817306,-0.5585771204559253 0.36588686703232454,-0.37883496270748623 l0.11411634088894729,-0.08690401908537322 0.02009570045130527,0.05979809179714626 l-0.02669702476628331,0.0693994983796362 0.013294664986947804,0.4378201364802571 l-0.07023249566593445,0.7575446370160466 -0.04234491669537016,0.7871968151608391 l0.053265866096814364,0.6918610928784036 0.22296066587128568,0.4998794497154197 l0.3953570125245495,0.3070597350177714 0.5017535687695157,0.09587185086429736 l0.5942618251151885,-0.14920280876023903 0.6854946016661891,-0.3788848518902708 l0.7320442796239104,-0.5503773689846468 0.7155628799605532,-0.6240531802166185 l0.6517966987305699,-0.5791455507172063 0.518173456246971,-0.44273683448684636 l0.31372213366420454,-0.21376988283760065 0.1581701338907392,-0.02570472654148427 l0.06694343701907772,0.05832402409559781 0.067205622557584,0.12589636454929898 l0.14387334883864908,0.38474646207946633 0.1961991190520011,0.5079326630522879 l0.284241735925577,0.5113705397177251 0.3946033417241066,0.43919515594151215 l0.5059890149980218,0.3324947357811998 0.6111829875563957,0.1935668887345539 l0.6847864985133548,0.03834335512126128 0.7113570571890762,-0.14590933934199057 l0.7086436153884269,-0.31984946116943247 0.6619719266349876,-0.45226109036655754 l0.562064051535276,-0.5234389901751966 0.4046476184964252,-0.5507630705444402 l0.20263275511331275,-0.505968987834561 0.02012842137115168,-0.38075885187265485 l-0.1271383316883991,-0.27216675865050505 -0.24562428898245006,-0.19186504175483854 l-0.3300341962966998,-0.08565127860191535 -0.37864264849431123,0.04817359887290543 l-0.4065643847056907,0.21236905447825977 -0.38960552215892164,0.3953813313299492 l-0.2798397540592134,0.5280529260606649 -0.09922540177775027,0.5627050996064075 l0.10913847405637915,0.547968447254504 0.29336112754552457,0.5073043705093184 l0.49328252669931655,0.4194291235133753 0.6724364159504798,0.2963316738562483 l0.8091313242974504,0.15618394318164225 0.8794714211535751,0.003508349281827924 l0.8868116736679087,-0.125974684943986 0.8277952075303454,-0.22805640098348418 l0.7317765950908948,-0.2921660542922789 0.6077020168262444,-0.32494336353598585 l0.46453788890826336,-0.3308569194792255 0.31668078899998553,-0.30454412096574845 l0.18705293545155394,-0.2590113581080424 0.09089523554735823,-0.20516221231882248 l0.03957996516678411,-0.14288163181125896 0.002082970095222748,0.005778655558881421 l-0.0031399428878614013,0.052950065729556434 -0.0027983040605896216,0.05693668490222926 l0.07584179926389832,0.28717798007210904 0.06468828023248205,0.5128018260514504 l0.09828852132053112,0.5957096217880501 0.10866847630359765,0.5994652511512827 l0.14880557350409152,0.5354878902925998 0.1933146714705027,0.4166170359166705 l0.13650143160709816,0.1685312092951402 0.12158376717330588,0.03697289527921522 l0.08044656366704106,-0.04821388422474365 0.06606256954240566,-0.1003058404846111 l0.12434983253114666,-0.36818242079246133 0.18850499379073973,-0.6143503188425742 l0.2574432195132527,-0.6316435337488092 0.31316134325327655,-0.5290334819339827 l0.3471518754915736,-0.4066742361739976 0.39361956697587436,-0.29235941169718577 l0.4858520925317054,-0.19317828111003965 0.5929639936149895,-0.11510393760715937 l0.6739263535320661,-0.047692622882599255 0.7279253008313424,0.017996031699298688 l0.757694601957471,0.07499587521807766 0.750682651989413,0.10599074513286133 l0.7035568357301709,0.1109789685315192 0.636894106784876,0.10484292355694641 l0.5388354062462106,0.07744364437741742 0.4277016222144746,0.051935948444430495 l0.3244179486271585,0.03329121696368226 0.22908562434926139,0.02461471962562844 l0.07429772620650127,-0.014929503319446204 0.06579759727182703,-0.010157689466196386 l0.030128041194280024,-0.016579777125606956 0.004382032950473681,-0.011419989112457004 l-0.016177732542815567,-0.018560320041222236 -0.15122541784428967,-0.1077733338469578 l-0.17286299176563696,-0.09002533546695382 -0.23053555195750153,-0.07662568985498089 l-0.2946133612383757,-0.04690665762952695 -0.36696720135780825,0.022636132130738354 l-0.4546740352946835,0.10832586896140367 -0.5208847523792179,0.20112572619384186 l-0.5216587185611379,0.3236122131612445 -0.45303130150268434,0.4284818170653506 l-0.3224705459025556,0.47827807050950827 -0.06946232160033017,0.47912782427962414 l0.12914486223652943,0.410799383955203 0.27896755918717486,0.28394550081957015 l0.49152079229848017,0.14050522454305908 0.6563338039541171,-0.04671566188771579 l0.7534680365222697,-0.24722409251247024 0.7523812651626575,-0.39748635892085415 l0.6658954025975381,-0.4873300196779322 0.5493713019753999,-0.5048860312286388 l0.40941187750474184,-0.44160723685242775 0.250162363130026,-0.33127334711343775 l0.07694301764715912,-0.0818968565003979 -0.001818440856630526,0.06222736094736945 l-0.02343833448677819,0.07582604149768722 -0.05717576304826436,0.17209662502259984 l-0.037299081607481646,0.5135859846687256 -0.007178686564280694,0.6935834289146631 l0.043845981468827525,0.6270812747722789 0.24939034870827276,0.5623337029407763 l0.4523881376888502,0.39346614479519243 0.6212345958183608,0.16978536550165174 l0.7704637052348412,-0.10424228010962043 0.9100474118879204,-0.4311434031058115 l0.9971558450120767,-0.7524880170348486 1.027169346954778,-0.985760808061648 l1.0189847945535173,-1.1462768314756042 0.951336741387782,-1.2284642458047565 l0.8359875084385625,-1.2291357518106347 0.6681232451487461,-1.1267749071675186 l0.48413923394670816,-0.9023173449076937 0.2993005811420467,-0.6210969687142421 l0.05240212379701842,-0.2291435299508919 -0.012665264224280458,0.051936641471967075 l-0.03852079807033217,0.08385382608128276 -0.015683997312171898,0.2879661919376966 l-0.11305995284990634,0.8570877909750451 -0.13421712804241512,1.255395650898367 l-0.11385059357198359,1.3456078768009552 0.0035179965550473126,1.3142378330377262 l0.07106438280264987,1.1683279276771796 0.16020882112314722,0.9475822448170231 l0.2673204244678079,0.717429339671336 0.17656759928014704,0.3072884679123997 l0.16662557421883464,0.09577769765287428 0.13892333212081168,-0.009682498958628029 l0.06577532724473435,-0.20435541881510555 0.024100867884053925,-0.44897407293838126 l-0.09877969332415615,-0.5126112104593781 -0.22384332126207396,-0.4364895522579853 l-0.27837887410608386,-0.30493098498856813 -0.298813313227265,-0.19735376534931862 l-0.06326025721248908,-0.04015464328287473 0.031150013078782512,0.046786874697328354 l0.07394783939535785,0.06491505356183258 0.17574410147348163,0.0579419061651969 l0.5300360918626023,0.1783997715783116 0.7589098216195735,0.10777486117421657 l0.9618976712212982,-0.026918053501523605 1.0510457753505555,-0.1506994664907394 l1.0248408317882993,-0.22534745924816024 0.915577948116703,-0.23219686756669133 l0.7508525846309942,-0.2052226364791913 0.5681815148422011,-0.15392720695929252 l0.36320599903800704,-0.08196333041942593 0.07132273915721117,0.024522166462849396 l0.0015977025745468195,0.07790938018445734 -0.08285287765363372,0.14941442010297576 l-0.09338659814926986,0.3319658041667595 -0.13357710832461753,0.4885105192653911 l-0.12317953991683661,0.4719112218090218 0.02953663831622624,0.41293320057287136 l0.20516125867280754,0.311282396372383 0.4079505502135947,0.22781066600574815 l0.6125210523504617,0.09400781238255906 0.797008097333038,-0.11990010743929892 l0.9439918995090848,-0.29380345310781486 0.9720027444842438,-0.40989583731411044 l0.8905657529397466,-0.4546521604260433 0.7664392589904766,-0.44595575319394737 l0.6401923300003632,-0.3840047120560223 0.47966739530309566,-0.30001831041771476 l0.30282542122136025,-0.21794581427044718 0.13083425157105255,-0.04730810233519986 l0.012546356795426985,0.007489770395089429 -0.019966147861060317,0.036935470852394514 l-0.029415793700259703,0.03049079687229827 -0.02707906051073838,0.03200197604825744 l-0.023931674630590406,0.030461136337742164 -0.007251590429862529,0.0222543292011883 l-0.013107191623345183,0.00048670687093103264 0.04034039022258992,0.021441847049559027 l-6.707373416514026e-05,0.00018908788244110546 0.04449981827786471,0.01254796966902054 l0.03417174520097777,0.013879466839594873 0.03605802358368419,0.015082865957824751 l0.036422576920039945,0.02151218427057926 0.0393570660565061,0.024287234978221876 l0.04283902794389017,0.029210779752400554 0.04881114883262172,0.02772513023059844 l0.053773954359129385,0.021346423687433717 0.056040331736371914,0.015694737469711208 l0.056175213337700224,0.013009212860091105 0.056113034393841583,0.008634365929258609 l0.052976813096153784,0.006157487598178147 0.04787693166815785,0.009547311743106884 l0.04477748652883409,0.012028627048569536 -0.0038460493140022264,-0.0002544543327408359 l-0.003641780524899152,-0.00025123704543422303 -0.001079309868025748,-9.308244443552365e-05 l0.0029011330612854955,8.000685140508377e-06 0.003225386064244941,-6.373169583585328e-05 l0.002739257997563971,-8.960319340845008e-05 0.0031764172418929227,1.5362323881486927e-05 l0.0037025472986657345,5.036378278143137e-05 0.0025249122023728752,-4.397372848506678e-05 l0.0013265162492838035,-8.402075056623797e-05 0.0016795619191237628,-7.3823096375006e-06 l0.002204552461794814,2.0986352362289366e-05 0.001362826485300895,-4.168468585238884e-05 l0.0005721264181050633,-5.7242104677451906e-05 0.0010334066560093735,1.2983018708433573e-05 l0.0015308374519375813,3.742273682399568e-05 0.0008716507735395165,-1.2325992971347102e-05 l0.0002333745276242092,-2.569306829964734e-05 0.0005797183639423015,2.4863569447983067e-05 l0.0008801298261620856,3.7321797800526235e-05 0.0002218296766693403,-5.410067422107483e-06 l-0.00034706670890995823,-1.5633476504887923e-05 -5.4765489231706824e-05,2.443369842455448e-05 l0.0001825131635069628,3.41841678040881e-05 -0.0003408080797903401,1.958399752577207e-06 l-0.0007305370539778433,-3.3695850107073284e-06 -0.00040978212027671174,2.958639604292925e-05 l-0.00018451723469365848,3.720927085915285e-05 -0.0005840471913513888,1.20211408789473e-05 l-0.0008477681211015874,9.073062415965716e-06 -0.0005441494054181098,3.586126726836288e-05 l-0.0003573970049742569,4.186847853255985e-05 -0.000670548318603457,2.2276397875999374e-05 l-0.0008463077404900249,2.1239695771831528e-05 -0.0005708969239364409,4.3536824086522564e-05 l-0.00041677058280949376,4.864758325934132e-05 -0.0006578639424607513,3.350037147547425e-05 l-0.0007684342629798456,3.3739627355545216e-05 -0.0005247182250778479,5.234740582381187e-05 l-0.00040007760872095817,5.668613113917576e-05 -0.0005883611529677433,4.4932367984369914e-05 l-0.0006585233571898501,4.594776030164024e-05 -0.00045181426630644996,6.146148033739815e-05 l-0.00035633915124562275,6.512997989776516e-05 -0.0005079284934028602,5.600268742766274e-05 l-0.0005544313258227814,5.744295252268642e-05 -0.0003839545185758732,7.031901337974931e-05 l-0.0003129241972402278,7.338560598651688e-05 -0.00043629111975782985,6.630270559390172e-05 l-0.0004675462331476753,6.794976864590204e-05 -0.00032822783103129077,7.860656511087862e-05 l-0.00027556354639627885,8.117661397219913e-05 -0.00037562464011635236,7.573147027870424e-05 l-0.0003960394655951598,7.747431930265212e-05 -0.0002820641841469142,8.629452102852673e-05 l-0.00024208051918674556,8.84782834627712e-05 -0.00032171235006941864,8.43644763223052e-05 l-0.00033312652822247465,8.614913339982723e-05 -0.00023855642802116916,9.347738837386593e-05 l-0.0002062658068813014,9.539075606160367e-05 -0.0002672635293376233,9.238972254882208e-05 l-0.0002704151635953589,9.421426215039505e-05 -0.00019037714776140008,0.00010036440363323345 l-0.00016218043822032862,0.00010212095705424627 -0.00020651523705575314,0.00010006828838709694 l-0.00020245091129515884,0.00010194423885317839 -0.00013355535046354904,0.00010717321718888161 l-0.00010770916712118027,0.00010885249591604406 -0.000138033224254478,0.00010759522927499094 l-0.00012855602622615682,0.00010951006018228086 -6.927922593746191e-05,0.00011399753902721864 l-4.568686144002327e-05,0.00011562348785522437 -6.563961936900378e-05,0.0001149932661252736 l-5.353622394786659e-05,0.00011689705966942195 -3.930166141464405e-06,0.00012074441847139113 l1.5880836543564133e-05,0.0001222886653835611 1.914865023363792e-06,0.00012210523640213247 l1.315034566226035e-05,0.0001239220304246442 5.196405369790243e-05,0.000127187595394498 l6.598256237000506e-05,0.00012861555117014983 5.3781885070247424e-05,0.00012874033661678202 l6.115778578156456e-05,0.00013044589437642744 8.854641443259565e-05,0.00013323979563566554 l9.555729558181944e-05,0.00013460968003828182 8.26120596028781e-05,0.00013504233013666097 l8.487696045555561e-05,0.0001367548542334006 0.00010152540605595821,0.00013932361812839147 l0.00010170779486929153,0.00014084800354552504 8.671354368685585e-05,0.00014176269332588537 l8.312224059929436e-05,0.00014376068765855908 8.922420102506552e-05,0.00014649308817234855 l8.147566054293859e-05,0.0001485479581633837 6.118036049259936e-05,0.00015031709646995853 l4.7925802377654945e-05,0.00015310613774735345 3.90744989151489e-05,0.00015666696234253354 l1.6074746781697474e-05,0.00016001028351588843 -2.063453091927822e-05,0.0001635472765545684 l-5.80883918589258e-05,0.00016837373537050693 -0.00010124241385101225,0.00017445642150443327 l-0.00016763444844919428,0.00018131934965384891 -0.0002618841175899994,0.00018966562472457404 l-0.00038321689623351755,0.00020086618986932844 -0.0005498640570312664,0.00021574992516585427 l-0.0007976254064762869,0.00023533435426952457 -0.0011649466436052594,0.0002622611709166663 l-0.0016964042241816252,0.0003005381310959196 -0.0024165548698481918,0.00035362650085125566 l-0.0031429789753110583,0.0004193911190155463 -0.0032579934666879585,0.0004808216958168827 l-0.0025426484580981265,0.0005178538973339321 -0.0019803642710585134,0.0005352584620608924 l-0.001926254546926398,0.0005422787801362815 -0.0020636693111529395,0.0005429304945615902 l-0.002216499331607249,0.0005414607867867235 -0.0023706966718048056,0.0005393476595900615 l-0.002548743076774232,0.0005358702321620243 -0.002734940467599567,0.0005316401236302292 l-0.0028964095720649253,0.0005283054261306042 -0.003032337769671283,0.0005257745719292833 l-0.0031623432164675697,0.0005227863623716264 -0.003284085485857898,0.0005194381894899163 l-0.003381855758528378,0.0005167557947798452 -0.0034598336758099833,0.0005145912105457579 l-0.0035334863650739942,0.0005120501837092177 -0.003601662749703873,0.0005092853145473776 l-0.0036536642745764,0.0005070880369591469 -0.00369266050949741,0.0005053605093009377 l-0.00372887410291598,0.0005034640400073524 -0.003760997065012382,0.0005014993299592736 l-0.0037819482717109942,0.0004999921685945764 -0.003795057482463543,0.0004988133809707598 l-0.0038085988736880055,0.0004974738800311726 -0.003822077175810413,0.0004960397089924137 l-0.003831129652293065,0.0004948749178615499 -0.0038383193325226064,0.0004938773269304037 l-0.0038489288012568726,0.0004927097485758222 -0.003861781108813745,0.0004914401036518502 l-0.0038730837765528613,0.0004903340926035074 -0.0038840770902671333,0.0004893169626028407 l-0.00389799472564881,0.00048815684903113506 -0.0039136299243580025,0.0004869107002817114 l-0.003928255394902219,0.00048576442431339103 -0.003942944121001392,0.00048465951916520916 l-0.003960035721420399,0.00048343422735331427 -0.0039786359386250235,0.0004821355514681402 l-0.003996916213005329,0.0004808948285499036 -0.00401557253265439,0.0004796693447233706 l-0.004036094925063919,0.0004783504828433329 -0.004057649502585028,0.000476977920469924 l-0.004078917279279188,0.0004756437661862187 -0.004100326490641604,0.00047431758594370846 l-0.004122819650850218,0.0004729251575151261 -0.004145857109431652,0.00047149639536873847 l-0.004168532781868018,0.00047009647902729345 -0.004191216108518076,0.00046870194224053237 l-0.004214566070867966,0.00046726343703339243 -0.004238173327959089,0.0004658038647435274 l-0.0042614154529380084,0.000464369166984667 -0.0042845644843841095,0.0004629416619078409 l-0.004308044660201544,0.0004614886942001696 -0.004331484353850258,0.00046002778956834355 l-0.0043545253935923746,0.0004585909584867317 -0.004377324205555887,0.00045716521440955656 l-0.00440016761548638,0.0004557286348752936 -0.004422858359171943,0.00045429456350058864 l-0.004445087293010743,0.0004528842433437573 -0.004467066299503554,0.0004514885267573882 l-0.004488985787825765,0.00045009322690729465 -0.004510622615380999,0.00044870766288969486 l-0.0045318975495144105,0.00044734568505806543 -0.004552871074079295,0.0004460019591739763 l-0.004573684035261358,0.00044466599156684514 -0.004594281375458297,0.00044334504157710845 l-0.004614479743630643,0.00044204860428106524 -0.004634376691796435,0.0004407721704785284 l-0.004654105923155344,0.0004395099228867969 -0.004673577701672384,0.0004382661452334997 l-0.004692718242835415,0.0004370468868995086 -0.00471160193174101,0.00043585038629665455 l-0.004730317642532984,0.0004346712193266028 -0.004748757939014017,0.00043351324654214104 l-0.004766922274081769,0.00043238022971091343 -0.004784863310110528,0.00043127149569895324 l-0.004802633077093591,0.0004301836045075458 -0.004820171723476609,0.000429118279036089 l-0.004837416176609463,0.0004280790334584112 -0.004854504013627669,0.0004270647604678118 l-0.004871394632171092,0.00042607335537299255 -0.00488807633560039,0.0004251072437369349 l-0.004904538475757587,0.00042416732870404107 -0.004920817845936187,0.00042325378048280735 l-0.004936900020525712,0.0004223644245424389 -0.004952833060212661,0.00042150110395606334 l-0.004968576080175918,0.00042066512283139075 -0.0049841443074911795,0.0004198558494139823 l-0.0049995668602910185,0.0004190723459071248 -0.00501479956765986,0.00041831601434415424 l-0.0050298869771632365,0.0004175872356999849 -0.005044791741468122,0.0004168862169017315 l-0.005059618434732955,0.00041621226150475243 -0.0050742476340977566,0.00041556605746702915 l-0.005088765292399061,0.00041494814939316857 -0.005103152244884051,0.00041435841021966984 l-0.005117404990787604,0.00041379645464755655 -0.005131550141609922,0.00041326234033808585 l-0.005145557195466423,0.00041275638632486453 -0.005159486074688997,0.00041227904162676046 l-0.0051732694904623785,0.00041182967249593774 -0.00518696760320354,0.00041140886659592966 l-0.005200523832321066,0.00041101593866129434 -0.0052140317518427366,0.0004106513516644047 l-0.005227413086518888,0.0004103151753087228 -0.005240719723742609,0.00041000733126877814 l-0.005253937104584646,0.000409727977161539 -0.0052670725199010894,0.0004094770265263139 l-0.0052801371480376644,0.00040925423025390975 -0.005293142111153882,0.0004090589482511845 l-0.005306038975351536,0.00040889227369550403 -0.005318865191324693,0.00040875349680886866 l-0.0053316354608402144,0.00040864233220340787 -0.005344305193097993,0.00040855922949404645 l-0.005356963607616493,0.00040850296081115805 -0.005369503005727795,0.00040847413376532887 l-0.005382016299869277,0.00040847329189089857 -0.00539445512975239,0.00040849930336333504 l-0.005406815586873867,0.0004085520403273801 -0.005419146218791759,0.00040863162284986864 l-0.005431376407632552,0.000408737987991482 -0.005443584159213345,0.0004088709369856903 l-0.005455713802384823,0.00040903018477580447 -0.00546778376942304,0.0004092157335271321 l-0.005479782888484505,0.0004094270193941698 -0.005491740884548429,0.00040966399729120155 l-0.005503591152356679,0.0004099263232580781 -0.00551543771775968,0.00041021454155898293 l-0.005527172227846091,0.00041052751081573725 -0.005538828414808008,0.00041086516013074103 l-0.005550436692557171,0.0004112277364919724 -0.0055619813471734815,0.0004116145778741355 l-0.005573425583962223,0.0004120258885897269 -0.005584802443778279,0.00041246123243053736 l-0.005596105161793741,0.00041292001330193323 -0.0056073106861735675,0.0004134024832855219 l-0.005618419504265084,0.00041390839654750636 -0.005629483690750539,0.0004144372254369495 l-0.005640402467282831,0.00041498902331965154 -0.005651246751785222,0.00041556304105186127 l-0.005661990650054601,0.00041615956278394877 -0.005672656030200768,0.0004167784426633965 l-0.005683179979859605,0.0004174185897079116 -0.005693584614980814,0.00041808032197204064 l-0.005703892569393095,0.00041876364910277983 -0.005714085008163093,0.00041946816461677447 l-0.005724150614499849,0.00042019337283209557 -0.005734089830166825,0.0004209394296208293 l-0.005743842574187371,0.00042170577659722883 -0.005753502217756764,0.0004224922364986498 l-0.005763005563395658,0.0004232989268235265 -0.005772363522447633,0.00042412519013058925 l-0.005781565048868311,0.0004249705668384223 -0.005790613411547563,0.00042583546158986546 l-0.005799464895593941,0.0004267193301185401 -0.0058081634891140295,0.0004276223249693303 l-0.0058166830960402266,0.00042854345596803734 -0.005825020469817813,0.00042948352984278703 l-0.005833175065557705,0.00043044117212522195 -0.005841121060813595,0.0004314169201580612 l-0.005848873424662427,0.00043241037921767163 -0.005856420980242565,0.00043342160510271405 l-0.005863756045797723,0.0004344501874778255 -0.0058708748795248625,0.0004354957841811393 l-0.0058777518085724,0.00043655872283738075 -0.005884397714322647,0.0004376384481446437 l-0.00589082379738452,0.0004387344176315935 -0.005896985580967347,0.0004398474245322335 l-0.005902897570661888,0.00044097641873723536 -0.005908560091036926,0.00044212165593561064 l-0.005913950491871486,0.0004432831052850435 -0.005919069056030751,0.0004444605468646705 l-0.005923893208466987,0.0004456533118660324 -0.0059284531415551185,0.0004468619112775415 l-0.005932729823912203,0.000448085908161177 -0.0059366969912326125,0.0004493256337715143 l-0.005940366518525476,0.0004505801275534383 -0.005943711783646258,0.00045184976806995995 l-0.005946733018182857,0.0004531345035113063 m0.06050223101883257,0.534231782047169 l-0.1269048751578613,0.44962921732930966 -0.24897317597918328,0.460518151665886 l-0.3465030789868104,0.6379331350432335 -0.30717986838149935,0.7467108369840594 l-0.2526578306103528,0.720498144733447 -0.13752722744460202,0.6469400524581479 l-0.02477910738822438,0.5168648957927803 0.011021483571435255,0.18738479914889075 l0.08982090656204683,0.06452779488557295 0.04738628867214175,0.0004659881024141039 l0.0648449808299037,-0.12073458718321761 0.07031659780458271,-0.1197136939414246 l0.030327171072736823,-0.2040191293076471 0.09728737171948139,-0.5301851630599486 l0.22214908901520877,-0.7501549720344415 0.3437119721426424,-0.7987684607058683 l0.4916229546170205,-0.7923800944629398 0.6310437918128964,-0.7746382355871527 l0.7515466215371746,-0.7110791205368563 0.8369143008746988,-0.6000744104373503 l0.8682398199954442,-0.4400602579073567 0.8615570067633004,-0.2502283453570311 l0.8204939364059196,-0.04905195909787373 0.7543249726301842,0.1493880151747613 l0.6550567746378897,0.339171528839164 0.515496135032208,0.4786498546703737 l0.371941447188975,0.589076995772318 0.23973831544430343,0.6783572434918832 l0.11188086871128862,0.7170881032861858 0.03013670436657273,0.6956086754583547 l0.01177161559786091,0.6233437656909772 0.043461456854977536,0.5177019239236353 l0.10294869547858802,0.4083481729546173 0.11041165883628618,0.21940115112383735 l0.16054561732930867,0.15623971830063432 0.159118846036869,0.0843698904211962 l0.14511606099489943,0.04787824314940644 0.12311214959569527,0.033973418168863505 l0.09899219889049402,0.03003309671663498 0.080736823287952,0.03507968772928302 l0.07254352405358963,0.04459621004180212 0.06691529600664824,0.050527043733848635 l0.06043018420434855,0.05328850831108639 0.057146422597219165,0.05475405221563746 l0.0012071169369302645,0.0007409738073856019 -0.002357300264467833,0.0006057669085264575 l-0.0017402544859073834,0.0007434516279647546 0.0026648117883240115,0.0009377278212857231 l0.002825241472218464,0.0009565358863076639 -0.00045533106144615167,0.0009327196620856947 l-0.003132622715935383,0.0010483039904197067 -0.0052620657862452284,0.0011174141341648014 l-0.007510859406921275,0.0010206860246204036 -0.009405758277487516,0.0008762638871247549 l-0.00902900469654756,0.0008963888636455167 -0.007446516300167938,0.0009305265430542684 l-0.006643797882737455,0.0008487347763854525 -0.006886687152372189,0.0007673511629648042 l-0.0058821812070194825,0.0008635128810955604 -0.004843641234336826,0.0009405185710257207 l-0.0059342945031230125,0.0009051750452216656 -0.007640007729096568,0.0008696871003574181 l-0.0075303875273168815,0.000958509589641667 -0.00728814656643675,0.0009992817871961686 l-0.008410420485969412,0.0009315838821345674 -0.009417746163703201,0.0008658230481731852 l-0.008916374328822925,0.0009128906222116056 -0.008555646988159428,0.0009241741971436511 l-0.009450193594176946,0.0008524516343298567 -0.01007765160436521,0.0008027048500857578 l-0.009423721623880842,0.0008572534293467906 -0.009010251494865956,0.0008781117710783214 l-0.009696904599148043,0.0008259842648181017 -0.010001335207392985,0.0007964059872914188 l-0.00927882256820602,0.000848801474344883 -0.008934725107028446,0.0008638668690064435 l-0.009508546423106504,0.0008140417050965487 -0.009640645181940263,0.0007874609143363413 l-0.008941408351578535,0.0008278323424693975 -0.008609015534119835,0.0008349218046756621 l-0.008986797118847204,0.0007893592993488659 -0.008912529852376687,0.000769289931258916 l-0.008179899321152165,0.000804298112461312 -0.007842291264442717,0.0008100396614133314 l-0.008105013537046615,0.0007730584235023334 -0.00794829053873624,0.0007602940168083023 l-0.007288221609487643,0.0007902581156194438 -0.007021810670114641,0.0007935882037412294 l-0.007208522396336004,0.0007620145608357558 -0.006986316330243625,0.0007518906788062755 l-0.006377089875819672,0.0007744398999664809 m15.02481079095904,-3.230468511661288 l-0.020865069689937076,-0.13275039190349722 0.006244741357181173,-0.27416804426106384 l-0.03710457684930301,-0.12205360841597723 0.012853410249188405,0.036654338297467295 l-0.04483452451256498,0.01481244356773957 -0.05793944006108504,0.03266044717605898 l0.10439347483749521,0.5317919253989488 0.021086964646919452,0.8286293744998092 l0.005387814612623805,0.8511149883231833 0.038964070358108324,0.886762678511486 l0.09109740690835601,0.8249171376031614 0.1934114843793801,0.6358931661006103 l0.22531642005693406,0.31550830615436687 0.26608729385352164,0.08432241535516442 l0.4102474451892208,-0.05797942364516933 0.4689311981068982,-0.32480588560591556 l0.6064684389534852,-0.6722092034389079 0.7235087752928443,-0.9628059863810507 l0.8077794312381393,-1.0351685285383552 0.8343716858889016,-0.9869938491766705 l0.8209019899965899,-0.8297964930462934 0.7512711883576925,-0.6342050432762036 l0.6542353033954241,-0.3988765775581713 0.45418214804780577,-0.14898680142992776 l0.30477774160860005,0.0484926811238289 0.2938381135079492,0.3585320710674163 l0.2568125725122289,0.5738844274306849 0.2612641750905106,0.7533737420175183 l0.2047833949222297,0.755401551373589 0.22001853580511674,0.6803759931419865 l0.30817705397653666,0.5190052986453402 0.4364028571640523,0.3405612705947054 l0.5484567283453411,0.12982076397678372 0.6683349608697391,-0.12922191625894058 l0.8071506022960964,-0.38660776617229375 0.9351027607958036,-0.642492175048724 l0.9872595069685375,-0.8255788086305269 0.9739342926553457,-0.8740587234791426 l0.9280419349365623,-0.8111679554684285 0.8310821055529826,-0.6877708434560452 l0.6862705349702486,-0.5177672505025456 0.443500518862237,-0.2820320129232267 l0.21184033151581555,-0.05907160044015092 0.03745687388014084,0.06740483633884656 l-0.02583714560779954,0.12809357033534205 -0.035850584711829704,0.42767697570691565 l-0.12475319202722018,0.6402579545768508 -0.14426447456428382,0.6920098064853558 l-0.061400201101391584,0.7241066696276731 0.03759558492664971,0.6760338546043239 l0.16477058829289093,0.5753907559917786 0.3116238116353543,0.4534234702435294 l0.45507669446683036,0.3144911228630758 0.580069899532208,0.14895685028626365 l0.7005518674955546,-0.030070384938793444 0.814369618959178,-0.20519074787810782 l0.8956304191883803,-0.37377393250255003 0.9265247583401657,-0.5028958322532131 l0.9095093608284246,-0.58070307969084 0.8552408219821607,-0.6084828376888496 l0.7730716467931114,-0.5778913497097045 0.6738172172537341,-0.5066111088612788 l0.548043191373492,-0.41970917592189094 0.4044652879537609,-0.3274352551276923 l0.2155824751770293,-0.11189691725199366 0.05324613300789971,-0.0043483229260588485 l-0.008812297228953714,0.0007872630130270191 -0.005367007095199075,0.08011309784362564 l-0.01938677205323413,0.04714779555073097 -0.016338307608103095,0.0692685396480069 l-0.02090923508285105,0.07027090352958953 -0.014570921625066326,0.06803319594207237 l0.005549818320156372,0.06255369623705435 0.018121985723879734,0.050410516700937644 l0.023822281547552053,0.038104586423902936 -0.00786407659446919,0.0010316857867047077 l-0.0034087038654515987,0.0010498455054455491 -0.0015214198266032257,0.0009994056215746783 l0.0007371119552576417,0.0009725372559870193 0.003141503857533749,0.0009946563355097764 l0.00628554447713101,0.0009975335461216944 0.009719561837454494,0.0009404860585056154 l0.01359910144445073,0.0008733154861407989 0.017268065442461268,0.0008260041207388041 l0.01960936566947405,0.0007665079150737334 0.020508717636554288,0.0006924059801984725 l0.020622495499209442,0.000648844928905383 0.0204121061629671,0.000646435189114561 l0.02006809038212095,0.0006497920009024767 0.01971532773190032,0.0006450823657446644 l0.019475128640227053,0.0006500408658346617 0.01938121412733138,0.0006641267539259615 l0.01928472515871101,0.00066537874647798 0.019004773453985525,0.0006520540447020917 l0.018548067579991383,0.0006423254601030677 0.017967544457162733,0.0006404706863910723 l0.017225678980820208,0.0006369512862352564 0.016329947935756924,0.0006331822977182609 l0.01542480670999593,0.0006390002769923612 0.014628823734980863,0.0006534177736134756 l0.013934005145396776,0.000667516621418515 0.013306532173318989,0.0006796659784025742 l0.012767333499221965,0.0006934513900099671 0.012317661203863293,0.0007071227204940247 l0.011902324942037235,0.0007161263216976984 0.011487078077589731,0.0007210494679780562 l0.011091720216014,0.0007252881990966097 0.010725740400244176,0.0007290630695083246 l0.010365460107846383,0.0007310423196250151 0.0100008287018805,0.0007323441398764114 l0.009646758265510138,0.0007349282250201437 0.009306050858998266,0.0007385820457517057 l0.008964341230279208,0.0007421544159476145 0.008618906243271236,0.0007457624210998916 l0.008280828475617678,0.0007499215974531256 0.007953766884471277,0.0007541001173360567 l0.007633674960004292,0.0007575215920427054 0.007323816350242292,0.000760275483604974 l0.0070328303432641995,0.0007627387913422698 0.006762746687414336,0.0007647919096222711 l0.006510127208073658,0.0007662335123441438 0.006274867669518181,0.0007672944516315138 l0.006058875401355225,0.0007682767600259494 0.005859993234331249,0.0007691496879268259 l0.005674440342449715,0.0007698083835335385 0.005501363379287919,0.0007703439966438386 l0.00534153353106627,0.0007708614864040242 0.005194064090439762,0.0007712923292561265 l0.005057502716352485,0.0007715521687497005 0.0049319827648261014,0.0007716844334331491 l0.004818085562525501,0.000771749056386287 0.004714980503053084,0.0007717253401391605 l0.004621323369921416,0.0007715933256244135 0.004536513345540622,0.0007713997754808833 l0.004460085256130841,0.000771192060563259 0.004390846966279162,0.0007709665138376962 l0.004327524412540491,0.000770715974546467 0.004269506607840859,0.0007704625917276894 l0.004216331995140496,0.0007702251075181782 0.004167359003651306,0.0007699941488179433 l0.0041219778501938465,0.0007697581050528968 0.00407987466610045,0.0007695259388577659 l0.004040844771003827,0.0007693039085433003 0.004004493185407566,0.0007690849955419688 l0.003970447922642807,0.0007688633733515762 0.003938522191889741,0.000768641927492818 l0.0039085671813418,0.0007684247312560755 0.003880273705201406,0.0007682072716753325 l0.0038534588481004715,0.0007679862175301272 0.003827940807892963,0.0007677622074609596 l0.003803703936710772,0.0007675362806260161 0.00378062193083179,0.0007673051403235169 l0.0037585681593073584,0.0007670666302030735 0.0037374608038343573,0.0007668209780562143 l0.0037173367599780795,0.0007665684283314196 0.003698110620893774,0.0007663072895605852 l0.0036797673355569026,0.0007660349589751378 0.003662317912160484,0.0007657524447756678 l0.00364572951031318,0.0007654598629449459 0.0036299488614912187,0.0007651548376594485 l0.0036150999584604075,0.000764836429820534 0.003601118930624389,0.0007645047213087555 l0.003588061678689113,0.0007641579966553479 0.0035759545869325894,0.0007637950809458224 l0.0035649351799241923,0.000763414914028199 0.003554943777427726,0.0007630157174496389 l0.0035460553063322645,0.000762597856151553 0.003538276995833341,0.0007621603891701103 l0.0035316498129451487,0.000761700717721716 0.0035262965071965677,0.0007612180068121204 l0.0035222396589055095,0.0007607114694301857 0.003519576080373235,0.0007601797107939882 l0.0035182795917159835,0.0007596223142707319 0.003518436172964323,0.000759038119265324 l0.0035200900057152794,0.0007584261721622589 0.0035232640436696975,0.0007577864767565006 l0.0035279952129839594,0.0007571169588802633 0.0035343282261762633,0.0007564182244103817 l0.0035423488149663993,0.0007556888465883601 0.003552060709500864,0.000754928518829918 l0.0035634487065922507,0.000754136917393747 0.0035766624428827244,0.0007533120104993381 l0.003591693866615516,0.0007524549541673881 0.003608517254453299,0.0007515656564245895 l0.0036271957778918605,0.0007506438326039345 0.003647711205473067,0.0007496887039627456 l0.003670141115337091,0.0007487003954214607 0.003694508079461545,0.0007476780200077747 l0.0037208162264772207,0.0007466222116446671 0.0037491283731019447,0.0007455336697506643 l0.0037794819483757637,0.0007444110702137835 0.003811839976665919,0.0007432541644723258 l0.003846291575070744,0.0007420644315255542 0.0038827843708041797,0.0007408418844421085 l0.003921296397227858,0.0007395870372877974 0.003961879909391702,0.0007382997705589953 l0.004004646119251293,0.0007369793490188147 0.004049539512924956,0.0007356279556679084 l0.0040965637844395525,0.0007342453822530043 0.004145670812906524,0.0007328331485708424 l0.004196956494004441,0.0007313897902643885 0.004250403440294829,0.0007299176034908734 l0.0043059997039919294,0.0007284170555211289 0.004363764032200723,0.0007268882968356747 l0.004423666646324282,0.0007253328488202436 0.004485700119122864,0.0007237517968432377 l0.004549883391479667,0.0007221448078278208 0.00461616001707215,0.000720514173370694 l0.0046845711275010585,0.000718859215896767 0.004755068632931395,0.0007171830284560126 l0.004827637243174764,0.0007154851845506834 0.004902206467441135,0.0007137684214952298 l0.004978764955469675,0.0007120323793905719 0.005057293930593252,0.0007102796351939575 l0.0051377527666841725,0.0007085098612428204 0.0052200739959097475,0.0007067266149350072 l0.005304213628455816,0.0007049295308610277 0.005390178445605025,0.0007031204496488247 l0.0054778082231668294,0.0007013018516662222 0.005567122167629617,0.0006994738919761989 l0.00565802679358121,0.000697638082399646 0.005750413888741131,0.0006957981198741904 l0.005844239060076082,0.0006939534596783124 0.005939450354891239,0.0006921063327078838 l0.006035950041759953,0.0006902590105070903 0.006133604700771849,0.0006884127200587396 l0.0062324368756367194,0.0006865687536843348 0.006332274361815712,0.0006847292871496008 l0.006433118093752379,0.000682896081361051 0.006534714438601981,0.00068107147407203 l0.006637122583186096,0.0006792560954428036 0.006740134162180303,0.000677452178625996 l0.0068437345581853085,0.0006756608543761831 0.0069478563684477555,0.0006738839779600519 l0.0070523397658824845,0.0006721236218414777 0.007157038794727366,0.0006703806996543952 l0.007261950499675419,0.0006686578256253782 0.007366880724799338,0.0006669557676655314 l0.007471822452032046,0.0006652757092181938 0.007576685239726589,0.0006636190572174052 l0.007681314029342294,0.0006619871289870572 0.0077855997927039015,0.0006603809585101069 l0.0078894906587224,0.0006588025532268453 0.007992867519632069,0.0006572519393295207 l0.00809558849840867,0.0006557305449568806 0.008197590844268354,0.0006542390902624516 l0.00829879187576482,0.0006527783152969857 0.008399028438614354,0.0006513490943757536 l0.008498292444882627,0.0006499517918492058 0.00859640155011233,0.0006485872690468428 l0.008693303942089487,0.0006472557718866223 0.0087888502906784,0.0006459576011843485 l0.008882935995442489,0.0006446927909412653 0.008975487125770362,0.0006434621988477311 l0.009066335818272486,0.0006422653258661423 0.009155411274242811,0.0006411027486809415 l0.009242586835382371,0.0006399744888772854 0.009327750594782807,0.0006388794641189463 l0.009410750243133316,0.0006378190882760161 0.009491547905811472,0.0006367924925074686 l0.009569924402641204,0.0006357998331855727 0.009645838370997618,0.0006348410322316133 l0.009719107192094172,0.0006339158110876683 0.009789641859773691,0.0006330239508547073 l0.00985731194494694,0.0006321655582093662 0.009921983003539926,0.0006313405570335998 l0.009983531995019971,0.000630548116090828 0.010041814511195868,0.000629789622549259 l0.010096739828776895,0.0006290632580590397 0.010148126560190764,0.0006283702246103089 l0.010195955583216029,0.0006277092890349487 0.010240044221828119,0.0006270812438522919 l0.010280277572194118,0.0006264850811383226 0.01031653950708069,0.0006259213700270358 l0.010348681403645857,0.00062539014065431 0.010376651039074786,0.0006248914187043029 l0.010400351128518493,0.0006244227986524533 0.010419685412545551,0.0006239860319619141 l0.01043449725665609,0.0006235806446966112 0.010444752810782594,0.0006232064538327713 l0.01045036688793044,0.0006228629391373452 0.010451223715844251,0.0006225491382888999 l0.010447289833363314,0.0006222646701373462 0.010438535303017941,0.0006220101531413018 l0.010424878509116945,0.0006217838084251621 0.01040620363095683,0.0006215869558401629 l0.010382588911557347,0.0006214171577421003 0.010353948932225921,0.0006212736770654433 l0.010320279742047469,0.0006211570138730116 0.010281588945304272,0.0006210658574735548 l0.010237902391293548,0.0006209992168866037 0.010189175623756602,0.0006209574955929868 l0.010135468083194984,0.0006209384503178742 0.010076764955478969,0.0006209435847316494 l0.010013118424400837,0.0006209712737488298 0.009944643981531914,0.0006210195998248345 l0.00987141948685142,0.0006210896532571402 0.009793467758598264,0.00062118060171968 l0.009710978957711638,0.0006212904892067201 0.009623937414885394,0.0006214206888622099 l0.009532529863262577,0.0006215701311734964 0.009436804995420248,0.0006217395168749722 l0.009337026563567713,0.0006219257694368759 0.00923325489093422,0.0006221310769251343 l0.009125713161313765,0.0006223546664356589 0.009014476193763046,0.0006225972233121072 l0.008899770831833902,0.0006228578142569737 0.008781768153365592,0.0006231364139452495 l0.008660834289269446,0.0006234313897964875 0.008536986870048668,0.0006237450350406421 l0.008410479876637358,0.0006240770782171438 0.008281458168704195,0.000624427887567713 m3.2928085327418204,-0.9701074957342203 l-0.05635317421047704,-0.15597844118432413 -0.15328055615200584,-0.07469257693060097 l-0.13567070681388682,-0.006127357570929538 -0.20893307053120527,0.0162461025454389 l-0.3064391613321036,0.06840123982491253 -0.36112824087239953,0.21287737779200744 l-0.40827622991307766,0.37592321645867693 -0.40845280884167096,0.5598919392081955 l-0.34091967343445695,0.6943097710965705 -0.22975413500887498,0.7291097639508227 l-0.08923265323808464,0.6899925470269349 0.07939042898968625,0.5937067270637519 l0.2635277806714382,0.4611819088579042 0.437153846020713,0.3090715706297111 l0.5808578730049353,0.117241800046981 0.6757547257956865,-0.11502491679616675 l0.7362335920368166,-0.3338498474120522 0.7614424229115011,-0.5684253571806392 l0.7562119959575521,-0.7547023891307536 0.7246228456111111,-0.8872827887077401 l0.6644417046887153,-1.0008239745466565 0.5827556847659793,-1.093873500856868 l0.49603357903491796,-1.1502698659785489 0.40945857757631693,-1.1566452980387614 l0.32113116991209706,-1.107934355558307 0.2331355660329556,-1.0135976076766888 l0.15143424274143302,-0.8847138879634896 0.08004208658466105,-0.7278633118033649 l0.010896999479694006,-0.5533657075478097 -0.06278514863212574,-0.3721950054307671 l-0.11877378781010979,-0.2015637159467618 -0.017563957768435254,0.06324487940327111 l-0.02622920271931258,0.07722066336032306 -0.01012224317404472,0.10531148307114137 l0.009643006970815916,0.14089334016635227 0.028727514601746284,0.5070832968685661 l0.03445579100630138,0.7986160518368456 -0.00024608158586624776,0.91806578630608 l-0.015508033535541987,1.0409100056337104 -0.012634143168366361,1.1488536596599639 l-0.0011352631976637728,1.1998039483731744 0.006776632642825492,1.1930396555400358 l0.025331772834958178,1.1444481612233024 0.07616589964460474,1.0602138041259408 l0.14297391478078242,0.9229222536746348 0.19058758020192057,0.7543765303901173 l0.23755781349778188,0.5721855758986818 0.29998630297530343,0.40184432264190595 l0.36336171619633933,0.24298243222645044 0.41736870998618864,0.10867267087630125 l0.4726330937376412,-0.010198784195945408 0.5501789449707788,-0.11914318063234716 l0.6425994036319271,-0.2263246923486777 0.7270964979476349,-0.35515582549026087 l0.7829384802932722,-0.47052028766614346 0.7940683961447638,-0.553340673525726 l0.7497069836081003,-0.6115096212084798 0.6572631595569313,-0.6428398489214335 l0.5303311944186466,-0.6420466897821557 0.3710995018693711,-0.5989461540427881 l0.18934895091540258,-0.5035102962238474 0.027547586682958418,-0.39087080945179475 l-0.10887905953868603,-0.3056796490504704 -0.21533976502765603,-0.24315984543527067 l-0.2964381873711345,-0.17341957971344352 -0.3631969389050649,-0.07811117166812044 l-0.3992004989583914,0.0397981105911191 -0.41352224342358346,0.19551411279306102 l-0.41402533658305285,0.36537951229322274 -0.36901935926274015,0.5219827890821491 l-0.286015957652754,0.6278107168532793 -0.17718981224610864,0.6791408657913718 l-0.044608373244513236,0.7007588149702332 0.09225136033689249,0.6886646152090414 l0.23296105862778282,0.6343894003434051 0.3798877894931499,0.5481846927984263 l0.5141013859405805,0.4507745206338073 0.6227045060678863,0.3388948740212667 l0.7167086005157518,0.19472394893645986 0.8169641494553186,0.009272147839735248 l0.9176281690527858,-0.1912574320190046 1.0151481626386227,-0.39768698804624414 l1.0895733833146841,-0.6068592668306011 1.1233047247069325,-0.8049647211996753 l1.0986937283630156,-0.9916794895172794 1.0242687463548172,-1.1388734578049229 l0.9304730892739582,-1.217402934939832 0.8348041177042055,-1.2319871187801508 l0.7301734089665137,-1.1963036060906724 0.6137588619222469,-1.1330852509351366 l0.4761354625726213,-1.0380263329572703 0.30571335556012913,-0.8819984198075502 l0.11391770840652236,-0.6654915810804943 -0.06882327812268683,-0.4405407309330915 l-0.20426452149224902,-0.26476892841493027 -0.1801565287534974,-0.08790464690674142 l-0.20468924947603606,-0.02820663152407609 -0.19326624264487147,0.016073308863512038 l-0.15729871397671585,0.053955655503948305 -0.10293291502965367,0.09410831331177705 l-0.05258139976543775,0.11625773457057528 -0.019419558431132546,0.12186330566443317 l-0.006894677849862739,0.1043783127995611 -0.006530180535307977,0.06891886886720278 l-0.006602879659118539,0.03256868566500968 0.0023263394365164044,0.014205068330125782 l0.014942925490109704,0.0072375907272664184 0.02094405884728147,-0.0014058723916483946 l0.024212176277219537,-0.009207785147110067 0.027633024298760637,-0.01347764577447001 l0.029566075524682323,-0.012685216982095024 0.028454869882270657,-0.00928962226429051 l0.02809995227048155,-0.005689926464702473 0.02963998182342565,-0.005818657523974204 l0.029898004658890736,-0.008980207270870419 0.027849743261807895,-0.012016557133472366 l0.0263043437044755,-0.014393299928272572 0.026070374730942796,-0.01604633045233326 l0.025747762920547885,-0.015360534227435026 0.023049574449042074,-0.01518005140877254 l0.019320102499933475,-0.015491671786223607 0.017159856892978546,-0.01498043540561555 l0.015891440213576868,-0.014556408026161632 0.01353855810658985,-0.015642501448664945 l0.011303411778736474,-0.016678780370351944 0.011066744129108474,-0.017072029398977662 l0.011552982191068012,-0.017795219995914074 0.010701775705967849,-0.019167363687027292 l0.009473752003839198,-0.019900456203274353 0.009439006416327111,-0.01989391443384326 l0.009646242481089029,-0.019910052393723905 0.008654186527449115,-0.02022987580984897 l0.007353084313984858,-0.020184151881007677 -0.01478716362591877,0.0007575639272011672 l-0.013577547000926185,0.000732502155887008 -0.011983182321202095,0.0007221381661554296 l-0.010836821148337259,0.0007671531468636965 -0.010119091671012966,0.0008060248384786165 l-0.008910585266652192,0.0008107067018540639 -0.007868390496519844,0.0008080404412322437 l-0.007130112579036047,0.0008125045223921197 m9.70311546338916,2.7342426776771305 " fill="none" stroke="black" stroke-width="1" /></svg>